SplineFontDB: 3.0
FontName: Neuton-Extrabold
FullName: Neuton Extrabold
FamilyName: Neuton
Weight: Extrabold
Copyright: Copyright (c) 2010, 2011 Brian M Zick (http://21326.info/), \nwith Reserved Font Name "Neuton".\n\nThis Font Software is licensed under the SIL Open Font License, Version 1.1.This license is available with a FAQ at: http://scripts.sil.org/OFL\n   WITHOUT WARRANTIES OR CONDITIONS OF ANY KIND, either express or implied.\n   See the License for the specific language governing permissions and\n   limitations under the License.
UComments: "2011-6-6: Created." 
Version: 1.42
ItalicAngle: 0
UnderlinePosition: -361
UnderlineWidth: 0
Ascent: 1638
Descent: 410
LayerCount: 2
Layer: 0 1 "Back"  1
Layer: 1 1 "Fore"  0
NeedsXUIDChange: 1
XUID: [1021 467 2011608612 15596835]
FSType: 0
OS2Version: 1
OS2_WeightWidthSlopeOnly: 0
OS2_UseTypoMetrics: 0
CreationTime: 1307367768
ModificationTime: 1316061335
PfmFamily: 17
TTFWeight: 800
TTFWidth: 5
LineGap: 0
VLineGap: 0
Panose: 2 0 9 3 0 0 0 0 0 0
OS2TypoAscent: 2106
OS2TypoAOffset: 0
OS2TypoDescent: -485
OS2TypoDOffset: 0
OS2TypoLinegap: 0
OS2WinAscent: 2106
OS2WinAOffset: 0
OS2WinDescent: 485
OS2WinDOffset: 0
HheadAscent: 2106
HheadAOffset: 0
HheadDescent: -485
HheadDOffset: 0
OS2SubXSize: 1095
OS2SubYSize: 1179
OS2SubXOff: 0
OS2SubYOff: 235
OS2SupXSize: 1095
OS2SupYSize: 1179
OS2SupXOff: 0
OS2SupYOff: 809
OS2StrikeYSize: 84
OS2StrikeYPos: 4436
OS2Vendor: 'PfEd'
Lookup: 1 0 0 "'sups' Superscript lookup 0"  {"'sups' Superscript lookup 0 subtable" ("superior" ) } ['sups' ('DFLT' <'dflt' > ) ]
MarkAttachClasses: 1
DEI: 91125
TtTable: prep
PUSHW_1
 511
SCANCTRL
PUSHB_1
 4
SCANTYPE
EndTTInstrs

StartChar: A
Encoding: 65 65 0
Width: 1453
VWidth: 0
Flags: HMW
LayerCount: 2
Back
SplineSet
0 0 m 5,0,-1
 19 138 l 1,1,-1
 180 241 l 1,2,-1
 618 1205 l 1,3,-1
 965 1270 l 1,4,-1
 1305 238 l 1,5,-1
 1453 145 l 1,6,-1
 1441 -2 l 1,7,-1
 716 -2 l 1,8,-1
 732 136 l 1,9,-1
 898 240 l 1,10,-1
 869 341 l 1,11,-1
 471 341 l 1,12,-1
 431 240 l 1,13,-1
 620 148 l 1,14,-1
 605 0 l 1,15,-1
 0 0 l 5,0,-1
546 534 m 5,16,-1
 815 534 l 1,17,-1
 703 933 l 1,18,-1
 546 534 l 5,16,-1
EndSplineSet
Fore
SplineSet
538 561 m 1,0,-1
 789 561 l 1,1,-1
 662 933 l 1,2,-1
 538 561 l 1,0,-1
0 0 m 1,3,-1
 19 138 l 1,4,-1
 180 241 l 1,5,-1
 568 1205 l 1,6,-1
 915 1270 l 1,7,-1
 1305 238 l 1,8,-1
 1453 145 l 1,9,-1
 1441 -2 l 1,10,-1
 716 -2 l 1,11,-1
 732 136 l 1,12,-1
 898 240 l 1,13,-1
 860 352 l 1,14,-1
 468 352 l 1,15,-1
 431 240 l 1,16,-1
 620 148 l 1,17,-1
 605 0 l 1,18,-1
 0 0 l 1,3,-1
EndSplineSet
Colour: ffffff
EndChar

StartChar: AE
Encoding: 198 198 1
Width: 1832
VWidth: 0
Flags: HMW
LayerCount: 2
Back
SplineSet
691 1100 m 1,0,-1
 710 1244 l 1,1,-1
 1883 1244 l 1,2,-1
 1853 826 l 1,3,-1
 1682 852 l 1,4,-1
 1599 1072 l 1,5,-1
 1254 1072 l 1,6,-1
 1254 712 l 1,7,-1
 1504 732.286 l 1,8,-1
 1549 735.938 l 1,9,-1
 1673 746 l 1,10,-1
 1640 470 l 1,11,-1
 1507 494.119 l 1,12,-1
 1462 502.28 l 1,13,-1
 1254 540 l 1,14,-1
 1254 210 l 1,15,-1
 1617 170 l 1,16,-1
 1763 428 l 1,17,-1
 1928 411 l 1,18,-1
 1898 0 l 1,19,-1
 707 0 l 1,20,-1
 717 138 l 1,21,-1
 881 217 l 1,22,-1
 881 1030 l 1,23,-1
 691 1100 l 1,0,-1
EndSplineSet
Fore
SplineSet
656 615 m 1,0,-1
 942 615 l 1,1,-1
 930 1008 l 1,2,-1
 656 615 l 1,0,-1
0 -2 m 1,3,-1
 20 162 l 1,4,-1
 154 237 l 1,5,-1
 715 1020 l 1,6,-1
 535 1094 l 1,7,-1
 556 1244 l 1,8,-1
 1807 1244 l 1,9,-1
 1777 826 l 1,10,-1
 1606 852 l 1,11,-1
 1523 1072 l 1,12,-1
 1275 1072 l 1,13,-1
 1292 708 l 1,14,-1
 1630 749 l 1,15,-1
 1598 507 l 1,16,-1
 1432 523 l 1,17,-1
 1408 526 l 1,18,-1
 1299 536 l 1,19,-1
 1315 198 l 1,20,-1
 1581 180 l 1,21,-1
 1727 428 l 1,22,-1
 1892 411 l 1,23,-1
 1862 0 l 1,24,-1
 791 0 l 1,25,-1
 804 138 l 1,26,-1
 967 217 l 1,27,-1
 954 443 l 1,28,-1
 552 443 l 1,29,-1
 420 243 l 1,30,-1
 601 150 l 1,31,-1
 584 -2 l 1,32,-1
 0 -2 l 1,3,-1
EndSplineSet
Colour: ffffff
EndChar

StartChar: Aacute
Encoding: 193 193 2
Width: 1453
VWidth: 0
Flags: HMW
LayerCount: 2
Fore
SplineSet
657 1403 m 1,0,-1
 812 1728 l 1,1,-1
 1032 1714 l 1,2,-1
 801 1382 l 1,3,-1
 657 1403 l 1,0,-1
538 561 m 1,4,-1
 789 561 l 1,5,-1
 662 933 l 1,6,-1
 538 561 l 1,4,-1
0 0 m 1,7,-1
 19 138 l 1,8,-1
 180 241 l 1,9,-1
 568 1205 l 1,10,-1
 915 1270 l 1,11,-1
 1305 238 l 1,12,-1
 1453 145 l 1,13,-1
 1441 -2 l 1,14,-1
 716 -2 l 1,15,-1
 732 136 l 1,16,-1
 898 240 l 1,17,-1
 860 352 l 1,18,-1
 468 352 l 1,19,-1
 431 240 l 1,20,-1
 620 148 l 1,21,-1
 605 0 l 1,22,-1
 0 0 l 1,7,-1
EndSplineSet
Colour: ffffff
EndChar

StartChar: Abreve
Encoding: 258 258 3
Width: 1453
VWidth: 0
Flags: HMW
LayerCount: 2
Fore
SplineSet
751 1569 m 128,-1,1
 782 1569 782 1569 799.5 1580.5 c 128,-1,2
 817 1592 817 1592 823.5 1603.5 c 128,-1,3
 830 1615 830 1615 839 1636 c 1,4,-1
 1012 1595 l 1,5,6
 995 1505 995 1505 926.5 1448.5 c 128,-1,7
 858 1392 858 1392 757 1392 c 0,8,9
 550 1392 550 1392 498 1600 c 1,10,-1
 677 1636 l 1,11,12
 682 1610 682 1610 701 1589.5 c 128,-1,0
 720 1569 720 1569 751 1569 c 128,-1,1
538 561 m 1,13,-1
 789 561 l 1,14,-1
 662 933 l 1,15,-1
 538 561 l 1,13,-1
0 0 m 1,16,-1
 19 138 l 1,17,-1
 180 241 l 1,18,-1
 568 1205 l 1,19,-1
 915 1270 l 1,20,-1
 1305 238 l 1,21,-1
 1453 145 l 1,22,-1
 1441 -2 l 1,23,-1
 716 -2 l 1,24,-1
 732 136 l 1,25,-1
 898 240 l 1,26,-1
 860 352 l 1,27,-1
 468 352 l 1,28,-1
 431 240 l 1,29,-1
 620 148 l 1,30,-1
 605 0 l 1,31,-1
 0 0 l 1,16,-1
EndSplineSet
Colour: ffffff
EndChar

StartChar: Acaron
Encoding: 461 461 4
Width: 1453
VWidth: 0
Flags: HMW
LayerCount: 2
Fore
SplineSet
466 1598 m 1,0,-1
 651 1635 l 1,1,-1
 764 1550 l 1,2,-1
 774 1550 l 1,3,-1
 870 1632 l 1,4,-1
 1042 1603 l 1,5,-1
 832 1402 l 1,6,-1
 674 1392 l 1,7,-1
 466 1598 l 1,0,-1
538 561 m 1,8,-1
 789 561 l 1,9,-1
 662 933 l 1,10,-1
 538 561 l 1,8,-1
0 0 m 1,11,-1
 19 138 l 1,12,-1
 180 241 l 1,13,-1
 568 1205 l 1,14,-1
 915 1270 l 1,15,-1
 1305 238 l 1,16,-1
 1453 145 l 1,17,-1
 1441 -2 l 1,18,-1
 716 -2 l 1,19,-1
 732 136 l 1,20,-1
 898 240 l 1,21,-1
 860 352 l 1,22,-1
 468 352 l 1,23,-1
 431 240 l 1,24,-1
 620 148 l 1,25,-1
 605 0 l 1,26,-1
 0 0 l 1,11,-1
EndSplineSet
Colour: ffffff
EndChar

StartChar: Acircumflex
Encoding: 194 194 5
Width: 1453
VWidth: 0
Flags: HMW
LayerCount: 2
Fore
SplineSet
474 1402 m 1,0,-1
 645 1597 l 1,1,-1
 822 1617 l 1,2,-1
 1026 1412 l 1,3,-1
 875 1353 l 1,4,-1
 736 1454 l 1,5,-1
 722 1454 l 1,6,-1
 619 1352 l 1,7,-1
 474 1402 l 1,0,-1
538 561 m 1,8,-1
 789 561 l 1,9,-1
 662 933 l 1,10,-1
 538 561 l 1,8,-1
0 0 m 1,11,-1
 19 138 l 1,12,-1
 180 241 l 1,13,-1
 568 1205 l 1,14,-1
 915 1270 l 1,15,-1
 1305 238 l 1,16,-1
 1453 145 l 1,17,-1
 1441 -2 l 1,18,-1
 716 -2 l 1,19,-1
 732 136 l 1,20,-1
 898 240 l 1,21,-1
 860 352 l 1,22,-1
 468 352 l 1,23,-1
 431 240 l 1,24,-1
 620 148 l 1,25,-1
 605 0 l 1,26,-1
 0 0 l 1,11,-1
EndSplineSet
Colour: ffffff
EndChar

StartChar: Adieresis
Encoding: 196 196 6
Width: 1453
VWidth: 0
Flags: HMW
LayerCount: 2
Fore
SplineSet
762 1509 m 0,0,1
 762 1547 762 1547 783 1572 c 0,2,3
 822 1616 822 1616 900 1616 c 0,4,5
 1010 1616 1010 1616 1037 1547 c 0,6,7
 1044 1530 1044 1530 1043 1511 c 0,8,9
 1043 1402 1043 1402 902.5 1402 c 128,-1,10
 762 1402 762 1402 762 1509 c 0,0,1
453 1509 m 0,11,12
 453 1547 453 1547 474 1572 c 0,13,14
 513 1616 513 1616 591 1616 c 0,15,16
 701 1616 701 1616 728 1547 c 0,17,18
 735 1530 735 1530 734 1511 c 0,19,20
 734 1402 734 1402 593.5 1402 c 128,-1,21
 453 1402 453 1402 453 1509 c 0,11,12
538 561 m 1,22,-1
 789 561 l 1,23,-1
 662 933 l 1,24,-1
 538 561 l 1,22,-1
0 0 m 1,25,-1
 19 138 l 1,26,-1
 180 241 l 1,27,-1
 568 1205 l 1,28,-1
 915 1270 l 1,29,-1
 1305 238 l 1,30,-1
 1453 145 l 1,31,-1
 1441 -2 l 1,32,-1
 716 -2 l 1,33,-1
 732 136 l 1,34,-1
 898 240 l 1,35,-1
 860 352 l 1,36,-1
 468 352 l 1,37,-1
 431 240 l 1,38,-1
 620 148 l 1,39,-1
 605 0 l 1,40,-1
 0 0 l 1,25,-1
EndSplineSet
Colour: ffffff
EndChar

StartChar: Agrave
Encoding: 192 192 7
Width: 1453
VWidth: 0
Flags: HMW
LayerCount: 2
Fore
SplineSet
456 1731 m 1,0,-1
 674 1771 l 1,1,-1
 824 1423 l 1,2,-1
 665 1392 l 1,3,-1
 456 1731 l 1,0,-1
538 561 m 1,4,-1
 789 561 l 1,5,-1
 662 933 l 1,6,-1
 538 561 l 1,4,-1
0 0 m 1,7,-1
 19 138 l 1,8,-1
 180 241 l 1,9,-1
 568 1205 l 1,10,-1
 915 1270 l 1,11,-1
 1305 238 l 1,12,-1
 1453 145 l 1,13,-1
 1441 -2 l 1,14,-1
 716 -2 l 1,15,-1
 732 136 l 1,16,-1
 898 240 l 1,17,-1
 860 352 l 1,18,-1
 468 352 l 1,19,-1
 431 240 l 1,20,-1
 620 148 l 1,21,-1
 605 0 l 1,22,-1
 0 0 l 1,7,-1
EndSplineSet
Colour: ffffff
EndChar

StartChar: Amacron
Encoding: 256 256 8
Width: 1453
VWidth: 0
Flags: HMW
LayerCount: 2
Fore
SplineSet
518 1392 m 1,0,-1
 539 1587 l 1,1,-1
 992 1587 l 1,2,-1
 970 1392 l 1,3,-1
 518 1392 l 1,0,-1
538 561 m 1,4,-1
 789 561 l 1,5,-1
 662 933 l 1,6,-1
 538 561 l 1,4,-1
0 0 m 1,7,-1
 19 138 l 1,8,-1
 180 241 l 1,9,-1
 568 1205 l 1,10,-1
 915 1270 l 1,11,-1
 1305 238 l 1,12,-1
 1453 145 l 1,13,-1
 1441 -2 l 1,14,-1
 716 -2 l 1,15,-1
 732 136 l 1,16,-1
 898 240 l 1,17,-1
 860 352 l 1,18,-1
 468 352 l 1,19,-1
 431 240 l 1,20,-1
 620 148 l 1,21,-1
 605 0 l 1,22,-1
 0 0 l 1,7,-1
EndSplineSet
Colour: ffffff
EndChar

StartChar: Aogonek
Encoding: 260 260 9
Width: 1453
VWidth: 0
Flags: HMW
LayerCount: 2
Fore
SplineSet
538 561 m 1,0,-1
 789 561 l 1,1,-1
 662 933 l 1,2,-1
 538 561 l 1,0,-1
1154 -195 m 128,-1,4
 1154 -136 1154 -136 1185 -93.5 c 128,-1,5
 1216 -51 1216 -51 1290 -2 c 1,6,-1
 716 -2 l 1,7,-1
 732 136 l 1,8,-1
 898 240 l 1,9,-1
 860 352 l 1,10,-1
 468 352 l 1,11,-1
 431 240 l 1,12,-1
 620 148 l 1,13,-1
 605 0 l 1,14,-1
 0 0 l 1,15,-1
 19 138 l 1,16,-1
 180 241 l 1,17,-1
 568 1205 l 1,18,-1
 915 1270 l 1,19,-1
 1305 238 l 1,20,-1
 1453 145 l 1,21,-1
 1441 -2 l 1,22,-1
 1424 -2 l 1,23,24
 1360 -176 1360 -176 1494 -292 c 1,25,-1
 1470 -387 l 1,26,27
 1289 -376 1289 -376 1200 -296 c 0,28,3
 1154 -254 1154 -254 1154 -195 c 128,-1,4
EndSplineSet
Colour: ffffff
EndChar

StartChar: Aring
Encoding: 197 197 10
Width: 1453
VWidth: 0
Flags: HMW
LayerCount: 2
Fore
SplineSet
660 1547 m 0,0,1
 660 1490 660 1490 738 1490 c 0,2,3
 768 1490 768 1490 792 1505 c 128,-1,4
 816 1520 816 1520 816 1546.5 c 128,-1,5
 816 1573 816 1573 791 1589.5 c 128,-1,6
 766 1606 766 1606 735.5 1606 c 128,-1,7
 705 1606 705 1606 682.5 1589 c 128,-1,8
 660 1572 660 1572 660 1547 c 0,0,1
730 1380 m 0,9,10
 470 1380 470 1380 470 1546 c 0,11,12
 470 1622 470 1622 538 1670 c 0,13,14
 606 1718 606 1718 744 1719 c 0,15,16
 1018 1719 1018 1719 1018 1555 c 0,17,18
 1018 1485 1018 1485 950 1432 c 0,19,20
 882 1380 882 1380 730 1380 c 0,9,10
538 561 m 1,21,-1
 789 561 l 1,22,-1
 662 933 l 1,23,-1
 538 561 l 1,21,-1
0 0 m 1,24,-1
 19 138 l 1,25,-1
 180 241 l 1,26,-1
 568 1205 l 1,27,-1
 915 1270 l 1,28,-1
 1305 238 l 1,29,-1
 1453 145 l 1,30,-1
 1441 -2 l 1,31,-1
 716 -2 l 1,32,-1
 732 136 l 1,33,-1
 898 240 l 1,34,-1
 860 352 l 1,35,-1
 468 352 l 1,36,-1
 431 240 l 1,37,-1
 620 148 l 1,38,-1
 605 0 l 1,39,-1
 0 0 l 1,24,-1
EndSplineSet
Colour: ffffff
EndChar

StartChar: Atilde
Encoding: 195 195 11
Width: 1453
VWidth: 0
Flags: HMW
LayerCount: 2
Fore
SplineSet
439 1398 m 1,0,1
 429 1476 429 1476 451 1530 c 128,-1,2
 473 1584 473 1584 500 1609 c 0,3,4
 562 1667 562 1667 662 1644 c 1,5,-1
 889 1595 l 2,6,7
 930 1586 930 1586 959 1648 c 1,8,-1
 1074 1637 l 1,9,10
 1073 1509 1073 1509 1008.5 1443.5 c 128,-1,11
 944 1378 944 1378 826 1406 c 2,12,-1
 617 1455 l 2,13,14
 568 1467 568 1467 557 1392 c 1,15,-1
 439 1398 l 1,0,1
538 561 m 1,16,-1
 789 561 l 1,17,-1
 662 933 l 1,18,-1
 538 561 l 1,16,-1
0 0 m 1,19,-1
 19 138 l 1,20,-1
 180 241 l 1,21,-1
 568 1205 l 1,22,-1
 915 1270 l 1,23,-1
 1305 238 l 1,24,-1
 1453 145 l 1,25,-1
 1441 -2 l 1,26,-1
 716 -2 l 1,27,-1
 732 136 l 1,28,-1
 898 240 l 1,29,-1
 860 352 l 1,30,-1
 468 352 l 1,31,-1
 431 240 l 1,32,-1
 620 148 l 1,33,-1
 605 0 l 1,34,-1
 0 0 l 1,19,-1
EndSplineSet
Colour: ffffff
EndChar

StartChar: B
Encoding: 66 66 12
Width: 1228
VWidth: 0
Flags: HMW
LayerCount: 2
Fore
SplineSet
552 728 m 1,0,-1
 726 728 l 1,1,2
 788 802 788 802 788 892 c 0,3,4
 788 1080 788 1080 604 1080 c 0,5,6
 584 1080 584 1080 552 1075 c 1,7,-1
 552 728 l 1,0,-1
552 186 m 1,8,-1
 664 186 l 2,9,10
 745 186 745 186 799 228.5 c 128,-1,11
 853 271 853 271 853 356.5 c 128,-1,12
 853 442 853 442 792 501.5 c 128,-1,13
 731 561 731 561 631 561 c 2,14,-1
 552 561 l 1,15,-1
 552 186 l 1,8,-1
560 1257 m 0,16,17
 900 1257 900 1257 1023 1165 c 128,-1,18
 1146 1073 1146 1073 1146 951 c 0,19,20
 1146 869 1146 869 1085.5 790 c 128,-1,21
 1025 711 1025 711 943 684 c 1,22,-1
 943 674 l 1,23,24
 1089 666 1089 666 1158.5 575.5 c 128,-1,25
 1228 485 1228 485 1228 379 c 0,26,27
 1228 199 1228 199 1076 99.5 c 128,-1,28
 924 0 924 0 644 0 c 2,29,-1
 0 0 l 1,30,-1
 14 138 l 1,31,-1
 180 217 l 1,32,-1
 180 1008 l 1,33,-1
 11 1052 l 1,34,-1
 21 1211 l 1,35,36
 366 1257 366 1257 560 1257 c 0,16,17
EndSplineSet
Colour: ffffff
EndChar

StartChar: C
Encoding: 67 67 13
Width: 1242
VWidth: 0
Flags: HMW
LayerCount: 2
Back
SplineSet
0 619 m 4,0,1
 0 911 0 911 203.5 1090 c 0
 407 1269 407 1269 755 1269 c 0,2,3
 914 1269 914 1269 1038.5 1231.5 c 0
 1163 1194 1163 1194 1256.5 1116 c 0
 1350 1038 1350 1038 1399.5 908.5 c 0
 1449 779 1449 779 1449 603 c 0,4,5
 1449 448 1449 448 1391 326.5 c 0
 1333 205 1333 205 1229.5 128.5 c 0
 1126 52 1126 52 988 12.5 c 0
 850 -27 850 -27 685 -27 c 0,6,7
 512 -27 512 -27 380 20 c 0
 248 67 248 67 165.5 153.5 c 0
 83 240 83 240 41.5 357 c 0
 0 474 0 474 0 619 c 4,0,1
448 671 m 4,8,9
 448 630 448 630 453 582.5 c 0
 458 535 458 535 469.5 475.5 c 0
 481 416 481 416 503 362.5 c 0
 525 309 525 309 555.5 263 c 0
 586 217 586 217 633 190 c 0
 680 163 680 163 738 163 c 0,10,11
 868 163 868 163 933 262.5 c 0
 998 362 998 362 998 573 c 0,12,13
 998 609 998 609 995.5 648.5 c 0
 993 688 993 688 985 740.5 c 0
 977 793 977 793 964 840 c 0
 951 887 951 887 928.5 934.5 c 0
 906 982 906 982 877 1016.5 c 0
 848 1051 848 1051 804.5 1072.5 c 0
 761 1094 761 1094 709 1094 c 0,14,15
 572 1094 572 1094 510 985.5 c 0
 448 877 448 877 448 671 c 4,8,9
EndSplineSet
Fore
SplineSet
0 583 m 0,0,1
 0 788 0 788 96 952 c 0,2,3
 151 1046 151 1046 234.5 1115 c 128,-1,4
 318 1184 318 1184 455 1228 c 128,-1,5
 592 1272 592 1272 731.5 1272 c 128,-1,6
 871 1272 871 1272 989 1244 c 128,-1,7
 1107 1216 1107 1216 1162 1172 c 1,8,-1
 1131 748 l 1,9,-1
 961 771 l 1,10,-1
 897 1003 l 1,11,12
 864 1044 864 1044 810.5 1067 c 128,-1,13
 757 1090 757 1090 703 1090 c 0,14,15
 540 1090 540 1090 466 996.5 c 128,-1,16
 392 903 392 903 392 706 c 0,17,18
 392 205 392 205 809 205 c 0,19,20
 990 205 990 205 1135 313 c 1,21,-1
 1194 178 l 1,22,23
 1120 86 1120 86 989.5 28.5 c 128,-1,24
 859 -29 859 -29 680 -29 c 0,25,26
 338 -29 338 -29 169 131 c 128,-1,27
 0 291 0 291 0 583 c 0,0,1
EndSplineSet
Colour: ffffff
EndChar

StartChar: Cacute
Encoding: 262 262 14
Width: 1242
VWidth: 0
Flags: HMW
LayerCount: 2
Fore
SplineSet
655 1405 m 1,0,-1
 810 1730 l 1,1,-1
 1030 1716 l 1,2,-1
 799 1384 l 1,3,-1
 655 1405 l 1,0,-1
0 583 m 0,4,5
 0 788 0 788 96 952 c 0,6,7
 151 1046 151 1046 234.5 1115 c 128,-1,8
 318 1184 318 1184 455 1228 c 128,-1,9
 592 1272 592 1272 731.5 1272 c 128,-1,10
 871 1272 871 1272 989 1244 c 128,-1,11
 1107 1216 1107 1216 1162 1172 c 1,12,-1
 1131 748 l 1,13,-1
 961 771 l 1,14,-1
 897 1003 l 1,15,16
 864 1044 864 1044 810.5 1067 c 128,-1,17
 757 1090 757 1090 703 1090 c 0,18,19
 540 1090 540 1090 466 996.5 c 128,-1,20
 392 903 392 903 392 706 c 0,21,22
 392 205 392 205 809 205 c 0,23,24
 990 205 990 205 1135 313 c 1,25,-1
 1194 178 l 1,26,27
 1120 86 1120 86 989.5 28.5 c 128,-1,28
 859 -29 859 -29 680 -29 c 0,29,30
 338 -29 338 -29 169 131 c 128,-1,31
 0 291 0 291 0 583 c 0,4,5
EndSplineSet
Colour: ffffff
EndChar

StartChar: Ccaron
Encoding: 268 268 15
Width: 1242
VWidth: 0
Flags: HMW
LayerCount: 2
Fore
SplineSet
394 1600 m 1,0,-1
 579 1637 l 1,1,-1
 692 1552 l 1,2,-1
 702 1552 l 1,3,-1
 798 1634 l 1,4,-1
 970 1605 l 1,5,-1
 760 1404 l 1,6,-1
 602 1394 l 1,7,-1
 394 1600 l 1,0,-1
0 583 m 0,8,9
 0 788 0 788 96 952 c 0,10,11
 151 1046 151 1046 234.5 1115 c 128,-1,12
 318 1184 318 1184 455 1228 c 128,-1,13
 592 1272 592 1272 731.5 1272 c 128,-1,14
 871 1272 871 1272 989 1244 c 128,-1,15
 1107 1216 1107 1216 1162 1172 c 1,16,-1
 1131 748 l 1,17,-1
 961 771 l 1,18,-1
 897 1003 l 1,19,20
 864 1044 864 1044 810.5 1067 c 128,-1,21
 757 1090 757 1090 703 1090 c 0,22,23
 540 1090 540 1090 466 996.5 c 128,-1,24
 392 903 392 903 392 706 c 0,25,26
 392 205 392 205 809 205 c 0,27,28
 990 205 990 205 1135 313 c 1,29,-1
 1194 178 l 1,30,31
 1120 86 1120 86 989.5 28.5 c 128,-1,32
 859 -29 859 -29 680 -29 c 0,33,34
 338 -29 338 -29 169 131 c 128,-1,35
 0 291 0 291 0 583 c 0,8,9
EndSplineSet
Colour: ffffff
EndChar

StartChar: Ccedilla
Encoding: 199 199 16
Width: 1242
VWidth: 0
Flags: HMW
LayerCount: 2
Fore
SplineSet
959 -245 m 0,0,1
 959 -301 959 -301 925 -336 c 0,2,3
 855 -407 855 -407 595 -407 c 1,4,-1
 559 -319 l 1,5,6
 617 -318 617 -318 656.5 -298.5 c 128,-1,7
 696 -279 696 -279 696 -255 c 0,8,9
 696 -216 696 -216 540 -163 c 1,10,-1
 712 -28 l 1,11,12
 696 -29 696 -29 680 -29 c 0,13,14
 338 -29 338 -29 169 131 c 128,-1,15
 0 291 0 291 0 583 c 0,16,17
 0 788 0 788 96 952 c 0,18,19
 151 1046 151 1046 234.5 1115 c 128,-1,20
 318 1184 318 1184 455 1228 c 128,-1,21
 592 1272 592 1272 731.5 1272 c 128,-1,22
 871 1272 871 1272 989 1244 c 128,-1,23
 1107 1216 1107 1216 1162 1172 c 1,24,-1
 1131 748 l 1,25,-1
 961 771 l 1,26,-1
 897 1003 l 1,27,28
 864 1044 864 1044 810.5 1067 c 128,-1,29
 757 1090 757 1090 703 1090 c 0,30,31
 540 1090 540 1090 466 996.5 c 128,-1,32
 392 903 392 903 392 706 c 0,33,34
 392 205 392 205 809 205 c 0,35,36
 990 205 990 205 1135 313 c 1,37,-1
 1194 178 l 1,38,39
 1071 25 1071 25 836 -16 c 1,40,-1
 902 -16 l 1,41,-1
 784 -102 l 1,42,43
 959 -117 959 -117 959 -245 c 0,0,1
EndSplineSet
Colour: ffffff
EndChar

StartChar: Cdotaccent
Encoding: 266 266 17
Width: 1242
VWidth: 0
Flags: HMW
LayerCount: 2
Fore
SplineSet
480 1547 m 0,0,1
 480 1602 480 1602 512 1637 c 0,2,3
 572 1700 572 1700 688 1700 c 0,4,5
 854 1700 854 1700 896 1601 c 0,6,7
 906 1577 906 1577 906 1550 c 0,8,9
 906 1394 906 1394 693 1394 c 128,-1,10
 480 1394 480 1394 480 1547 c 0,0,1
0 583 m 0,11,12
 0 788 0 788 96 952 c 0,13,14
 151 1046 151 1046 234.5 1115 c 128,-1,15
 318 1184 318 1184 455 1228 c 128,-1,16
 592 1272 592 1272 731.5 1272 c 128,-1,17
 871 1272 871 1272 989 1244 c 128,-1,18
 1107 1216 1107 1216 1162 1172 c 1,19,-1
 1131 748 l 1,20,-1
 961 771 l 1,21,-1
 897 1003 l 1,22,23
 864 1044 864 1044 810.5 1067 c 128,-1,24
 757 1090 757 1090 703 1090 c 0,25,26
 540 1090 540 1090 466 996.5 c 128,-1,27
 392 903 392 903 392 706 c 0,28,29
 392 205 392 205 809 205 c 0,30,31
 990 205 990 205 1135 313 c 1,32,-1
 1194 178 l 1,33,34
 1120 86 1120 86 989.5 28.5 c 128,-1,35
 859 -29 859 -29 680 -29 c 0,36,37
 338 -29 338 -29 169 131 c 128,-1,38
 0 291 0 291 0 583 c 0,11,12
EndSplineSet
Colour: ffffff
EndChar

StartChar: D
Encoding: 68 68 18
Width: 1451
VWidth: 0
Flags: HMW
LayerCount: 2
Fore
SplineSet
573 202 m 1,0,-1
 648 202 l 2,1,2
 964 202 964 202 1030 459 c 0,3,4
 1046 523 1046 523 1046 591 c 0,5,6
 1046 658 1046 658 1030 720 c 0,7,8
 995 858 995 858 887.5 957.5 c 128,-1,9
 780 1057 780 1057 591 1057 c 1,10,-1
 578 1056 l 2,11,12
 579 1056 579 1056 585.5 1054 c 128,-1,13
 592 1052 592 1052 584 1051.5 c 128,-1,14
 576 1051 576 1051 573 1051 c 1,15,-1
 573 202 l 1,0,-1
645 1258 m 0,16,17
 1262 1258 1262 1258 1406 906 c 0,18,19
 1452 794 1452 794 1451.5 659 c 128,-1,20
 1451 524 1451 524 1391.5 406 c 128,-1,21
 1332 288 1332 288 1226.5 198 c 128,-1,22
 1121 108 1121 108 962.5 54 c 128,-1,23
 804 0 804 0 618 0 c 2,24,-1
 0 0 l 1,25,-1
 23 138 l 1,26,-1
 203 241 l 1,27,-1
 203 1003 l 1,28,-1
 30 1049 l 1,29,-1
 37 1206 l 1,30,31
 363 1258 363 1258 645 1258 c 0,16,17
EndSplineSet
Colour: ffffff
EndChar

StartChar: Dcaron
Encoding: 270 270 19
Width: 1451
VWidth: 0
Flags: HMW
LayerCount: 2
Fore
SplineSet
446 1597 m 1,0,-1
 632 1634 l 1,1,-1
 744 1549 l 1,2,-1
 754 1549 l 1,3,-1
 850 1631 l 1,4,-1
 1022 1602 l 1,5,-1
 812 1401 l 1,6,-1
 654 1391 l 1,7,-1
 446 1597 l 1,0,-1
573 202 m 1,8,-1
 648 202 l 2,9,10
 964 202 964 202 1030 459 c 0,11,12
 1046 523 1046 523 1046 591 c 0,13,14
 1046 658 1046 658 1030 720 c 0,15,16
 995 858 995 858 887.5 957.5 c 128,-1,17
 780 1057 780 1057 591 1057 c 1,18,-1
 578 1056 l 2,19,20
 579 1056 579 1056 585.5 1054 c 128,-1,21
 592 1052 592 1052 584 1051.5 c 128,-1,22
 576 1051 576 1051 573 1051 c 1,23,-1
 573 202 l 1,8,-1
645 1258 m 0,24,25
 1262 1258 1262 1258 1406 906 c 0,26,27
 1452 794 1452 794 1451.5 659 c 128,-1,28
 1451 524 1451 524 1391.5 406 c 128,-1,29
 1332 288 1332 288 1226.5 198 c 128,-1,30
 1121 108 1121 108 962.5 54 c 128,-1,31
 804 0 804 0 618 0 c 2,32,-1
 0 0 l 1,33,-1
 23 138 l 1,34,-1
 203 241 l 1,35,-1
 203 1003 l 1,36,-1
 30 1049 l 1,37,-1
 37 1206 l 1,38,39
 363 1258 363 1258 645 1258 c 0,24,25
EndSplineSet
Colour: ffffff
EndChar

StartChar: Dcroat
Encoding: 272 272 20
Width: 1451
VWidth: 0
Flags: HMW
LayerCount: 2
Fore
SplineSet
573 202 m 1,0,-1
 648 202 l 2,1,2
 964 202 964 202 1030 459 c 0,3,4
 1046 523 1046 523 1046 591 c 0,5,6
 1046 658 1046 658 1030 720 c 0,7,8
 995 858 995 858 887.5 957.5 c 128,-1,9
 780 1057 780 1057 591 1057 c 1,10,-1
 578 1056 l 2,11,12
 579 1056 579 1056 585.5 1054 c 128,-1,13
 592 1052 592 1052 584 1051.5 c 128,-1,14
 576 1051 576 1051 573 1051 c 1,15,-1
 573 712 l 1,16,-1
 771 737 l 1,17,-1
 752 548 l 1,18,-1
 573 536 l 1,19,-1
 573 202 l 1,0,-1
645 1258 m 0,20,21
 1262 1258 1262 1258 1406 906 c 0,22,23
 1452 794 1452 794 1451.5 659 c 128,-1,24
 1451 524 1451 524 1391.5 406 c 128,-1,25
 1332 288 1332 288 1226.5 198 c 128,-1,26
 1121 108 1121 108 962.5 54 c 128,-1,27
 804 0 804 0 618 0 c 2,28,-1
 0 0 l 1,29,-1
 23 138 l 1,30,-1
 203 241 l 1,31,-1
 203 499 l 1,32,-1
 23 483 l 1,33,-1
 38 666 l 1,34,-1
 203 680 l 1,35,-1
 203 1003 l 1,36,-1
 30 1049 l 1,37,-1
 37 1206 l 1,38,39
 363 1258 363 1258 645 1258 c 0,20,21
EndSplineSet
Colour: ffffff
EndChar

StartChar: E
Encoding: 69 69 21
Width: 1237
VWidth: 0
Flags: HMW
LayerCount: 2
Fore
SplineSet
563 1072 m 1,0,-1
 563 712 l 1,1,-1
 982 746 l 1,2,-1
 949 470 l 1,3,-1
 563 540 l 1,4,-1
 563 210 l 1,5,-1
 926 170 l 1,6,-1
 1072 428 l 1,7,-1
 1237 411 l 1,8,-1
 1207 0 l 1,9,-1
 16 0 l 1,10,-1
 26 138 l 1,11,-1
 190 217 l 1,12,-1
 190 1030 l 1,13,-1
 0 1100 l 1,14,-1
 19 1244 l 1,15,-1
 1192 1244 l 1,16,-1
 1162 826 l 1,17,-1
 991 852 l 1,18,-1
 908 1072 l 1,19,-1
 563 1072 l 1,0,-1
EndSplineSet
Colour: ffffff
EndChar

StartChar: Eacute
Encoding: 201 201 22
Width: 1237
VWidth: 0
Flags: HMW
LayerCount: 2
Fore
SplineSet
538 1402 m 1,0,-1
 692 1727 l 1,1,-1
 912 1713 l 1,2,-1
 682 1381 l 1,3,-1
 538 1402 l 1,0,-1
563 1072 m 1,4,-1
 563 712 l 1,5,-1
 982 746 l 1,6,-1
 949 470 l 1,7,-1
 563 540 l 1,8,-1
 563 210 l 1,9,-1
 926 170 l 1,10,-1
 1072 428 l 1,11,-1
 1237 411 l 1,12,-1
 1207 0 l 1,13,-1
 16 0 l 1,14,-1
 26 138 l 1,15,-1
 190 217 l 1,16,-1
 190 1030 l 1,17,-1
 0 1100 l 1,18,-1
 19 1244 l 1,19,-1
 1192 1244 l 1,20,-1
 1162 826 l 1,21,-1
 991 852 l 1,22,-1
 908 1072 l 1,23,-1
 563 1072 l 1,4,-1
EndSplineSet
Colour: ffffff
EndChar

StartChar: Ecaron
Encoding: 282 282 23
Width: 1237
VWidth: 0
Flags: HMW
LayerCount: 2
Fore
SplineSet
386 1597 m 1,0,-1
 572 1634 l 1,1,-1
 684 1549 l 1,2,-1
 694 1549 l 1,3,-1
 790 1631 l 1,4,-1
 962 1602 l 1,5,-1
 752 1401 l 1,6,-1
 594 1391 l 1,7,-1
 386 1597 l 1,0,-1
563 1072 m 1,8,-1
 563 712 l 1,9,-1
 982 746 l 1,10,-1
 949 470 l 1,11,-1
 563 540 l 1,12,-1
 563 210 l 1,13,-1
 926 170 l 1,14,-1
 1072 428 l 1,15,-1
 1237 411 l 1,16,-1
 1207 0 l 1,17,-1
 16 0 l 1,18,-1
 26 138 l 1,19,-1
 190 217 l 1,20,-1
 190 1030 l 1,21,-1
 0 1100 l 1,22,-1
 19 1244 l 1,23,-1
 1192 1244 l 1,24,-1
 1162 826 l 1,25,-1
 991 852 l 1,26,-1
 908 1072 l 1,27,-1
 563 1072 l 1,8,-1
EndSplineSet
Colour: ffffff
EndChar

StartChar: Ecircumflex
Encoding: 202 202 24
Width: 1237
VWidth: 0
Flags: HMW
LayerCount: 2
Fore
SplineSet
364 1401 m 1,0,-1
 536 1596 l 1,1,-1
 712 1616 l 1,2,-1
 916 1411 l 1,3,-1
 766 1352 l 1,4,-1
 626 1453 l 1,5,-1
 612 1453 l 1,6,-1
 510 1351 l 1,7,-1
 364 1401 l 1,0,-1
563 1072 m 1,8,-1
 563 712 l 1,9,-1
 982 746 l 1,10,-1
 949 470 l 1,11,-1
 563 540 l 1,12,-1
 563 210 l 1,13,-1
 926 170 l 1,14,-1
 1072 428 l 1,15,-1
 1237 411 l 1,16,-1
 1207 0 l 1,17,-1
 16 0 l 1,18,-1
 26 138 l 1,19,-1
 190 217 l 1,20,-1
 190 1030 l 1,21,-1
 0 1100 l 1,22,-1
 19 1244 l 1,23,-1
 1192 1244 l 1,24,-1
 1162 826 l 1,25,-1
 991 852 l 1,26,-1
 908 1072 l 1,27,-1
 563 1072 l 1,8,-1
EndSplineSet
Colour: ffffff
EndChar

StartChar: Edieresis
Encoding: 203 203 25
Width: 1237
VWidth: 0
Flags: HMW
LayerCount: 2
Fore
SplineSet
665 1498 m 0,0,1
 665 1537 665 1537 687 1561 c 0,2,3
 726 1605 726 1605 803 1605 c 0,4,5
 913 1605 913 1605 940 1536 c 0,6,7
 947 1519 947 1519 947 1500 c 0,8,9
 947 1391 947 1391 806 1391 c 128,-1,10
 665 1391 665 1391 665 1498 c 0,0,1
356 1498 m 0,11,12
 356 1537 356 1537 378 1561 c 0,13,14
 417 1605 417 1605 494 1605 c 0,15,16
 604 1605 604 1605 631 1536 c 0,17,18
 638 1519 638 1519 638 1500 c 0,19,20
 638 1391 638 1391 497 1391 c 128,-1,21
 356 1391 356 1391 356 1498 c 0,11,12
563 1072 m 1,22,-1
 563 712 l 1,23,-1
 982 746 l 1,24,-1
 949 470 l 1,25,-1
 563 540 l 1,26,-1
 563 210 l 1,27,-1
 926 170 l 1,28,-1
 1072 428 l 1,29,-1
 1237 411 l 1,30,-1
 1207 0 l 1,31,-1
 16 0 l 1,32,-1
 26 138 l 1,33,-1
 190 217 l 1,34,-1
 190 1030 l 1,35,-1
 0 1100 l 1,36,-1
 19 1244 l 1,37,-1
 1192 1244 l 1,38,-1
 1162 826 l 1,39,-1
 991 852 l 1,40,-1
 908 1072 l 1,41,-1
 563 1072 l 1,22,-1
EndSplineSet
Colour: ffffff
EndChar

StartChar: Edotaccent
Encoding: 278 278 26
Width: 1237
VWidth: 0
Flags: HMW
LayerCount: 2
Fore
SplineSet
452 1544 m 0,0,1
 452 1604 452 1604 501.5 1650.5 c 128,-1,2
 551 1697 551 1697 664.5 1697 c 128,-1,3
 778 1697 778 1697 828.5 1651.5 c 128,-1,4
 879 1606 879 1606 879 1547 c 0,5,6
 879 1391 879 1391 665.5 1391 c 128,-1,7
 452 1391 452 1391 452 1544 c 0,0,1
563 1072 m 1,8,-1
 563 712 l 1,9,-1
 982 746 l 1,10,-1
 949 470 l 1,11,-1
 563 540 l 1,12,-1
 563 210 l 1,13,-1
 926 170 l 1,14,-1
 1072 428 l 1,15,-1
 1237 411 l 1,16,-1
 1207 0 l 1,17,-1
 16 0 l 1,18,-1
 26 138 l 1,19,-1
 190 217 l 1,20,-1
 190 1030 l 1,21,-1
 0 1100 l 1,22,-1
 19 1244 l 1,23,-1
 1192 1244 l 1,24,-1
 1162 826 l 1,25,-1
 991 852 l 1,26,-1
 908 1072 l 1,27,-1
 563 1072 l 1,8,-1
EndSplineSet
Colour: ffffff
EndChar

StartChar: Egrave
Encoding: 200 200 27
Width: 1237
VWidth: 0
Flags: HMW
LayerCount: 2
Fore
SplineSet
316 1730 m 1,0,-1
 534 1770 l 1,1,-1
 684 1422 l 1,2,-1
 526 1391 l 1,3,-1
 316 1730 l 1,0,-1
563 1072 m 1,4,-1
 563 712 l 1,5,-1
 982 746 l 1,6,-1
 949 470 l 1,7,-1
 563 540 l 1,8,-1
 563 210 l 1,9,-1
 926 170 l 1,10,-1
 1072 428 l 1,11,-1
 1237 411 l 1,12,-1
 1207 0 l 1,13,-1
 16 0 l 1,14,-1
 26 138 l 1,15,-1
 190 217 l 1,16,-1
 190 1030 l 1,17,-1
 0 1100 l 1,18,-1
 19 1244 l 1,19,-1
 1192 1244 l 1,20,-1
 1162 826 l 1,21,-1
 991 852 l 1,22,-1
 908 1072 l 1,23,-1
 563 1072 l 1,4,-1
EndSplineSet
Colour: ffffff
EndChar

StartChar: Emacron
Encoding: 274 274 28
Width: 1237
VWidth: 0
Flags: HMW
LayerCount: 2
Fore
SplineSet
428 1391 m 1,0,-1
 450 1586 l 1,1,-1
 902 1586 l 1,2,-1
 880 1391 l 1,3,-1
 428 1391 l 1,0,-1
563 1072 m 1,4,-1
 563 712 l 1,5,-1
 982 746 l 1,6,-1
 949 470 l 1,7,-1
 563 540 l 1,8,-1
 563 210 l 1,9,-1
 926 170 l 1,10,-1
 1072 428 l 1,11,-1
 1237 411 l 1,12,-1
 1207 0 l 1,13,-1
 16 0 l 1,14,-1
 26 138 l 1,15,-1
 190 217 l 1,16,-1
 190 1030 l 1,17,-1
 0 1100 l 1,18,-1
 19 1244 l 1,19,-1
 1192 1244 l 1,20,-1
 1162 826 l 1,21,-1
 991 852 l 1,22,-1
 908 1072 l 1,23,-1
 563 1072 l 1,4,-1
EndSplineSet
Colour: ffffff
EndChar

StartChar: Eng
Encoding: 330 330 29
Width: 1403
VWidth: 0
Flags: HMW
LayerCount: 2
Fore
SplineSet
1210 434 m 2,0,1
 1210 237 1210 237 1183.5 144 c 128,-1,2
 1157 51 1157 51 1128.5 0 c 128,-1,3
 1100 -51 1100 -51 1036 -121 c 0,4,5
 972 -191 972 -191 812 -292 c 1,6,-1
 756 -326 l 1,7,-1
 639 -151 l 1,8,9
 762 -53 762 -53 815 112 c 1,10,-1
 414 619 l 1,11,-1
 414 211 l 1,12,-1
 594 148 l 1,13,-1
 581 0 l 1,14,-1
 0 0 l 1,15,-1
 10 138 l 1,16,-1
 181 217 l 1,17,-1
 181 1003 l 1,18,-1
 4 1087 l 1,19,-1
 18 1244 l 1,20,-1
 458 1244 l 1,21,-1
 990 532 l 1,22,-1
 990 1020 l 1,23,-1
 802 1094 l 1,24,-1
 826 1244 l 1,25,-1
 1403 1244 l 1,26,-1
 1378 1094 l 1,27,-1
 1210 1027 l 1,28,-1
 1210 434 l 2,0,1
EndSplineSet
Colour: ffffff
EndChar

StartChar: Eogonek
Encoding: 280 280 30
Width: 1237
VWidth: 0
Flags: HMW
LayerCount: 2
Fore
SplineSet
502 -193 m 128,-1,1
 502 -134 502 -134 533.5 -91.5 c 128,-1,2
 565 -49 565 -49 639 0 c 1,3,-1
 16 0 l 1,4,-1
 26 138 l 1,5,-1
 190 217 l 1,6,-1
 190 1030 l 1,7,-1
 0 1100 l 1,8,-1
 19 1244 l 1,9,-1
 1192 1244 l 1,10,-1
 1162 826 l 1,11,-1
 991 852 l 1,12,-1
 908 1072 l 1,13,-1
 563 1072 l 1,14,-1
 563 712 l 1,15,-1
 982 746 l 1,16,-1
 949 470 l 1,17,-1
 563 540 l 1,18,-1
 563 210 l 1,19,-1
 926 170 l 1,20,-1
 1072 428 l 1,21,-1
 1237 411 l 1,22,-1
 1207 0 l 1,23,-1
 773 -0 l 1,24,25
 710 -174 710 -174 844 -290 c 1,26,-1
 818 -385 l 1,27,28
 637 -374 637 -374 549 -294 c 0,29,0
 502 -252 502 -252 502 -193 c 128,-1,1
EndSplineSet
Colour: ffffff
EndChar

StartChar: Eth
Encoding: 208 208 31
Width: 1451
VWidth: 0
Flags: HMW
LayerCount: 2
Fore
SplineSet
573 202 m 1,0,-1
 648 202 l 2,1,2
 964 202 964 202 1030 459 c 0,3,4
 1046 523 1046 523 1046 591 c 0,5,6
 1046 658 1046 658 1030 720 c 0,7,8
 995 858 995 858 887.5 957.5 c 128,-1,9
 780 1057 780 1057 591 1057 c 1,10,-1
 578 1056 l 2,11,12
 579 1056 579 1056 585.5 1054 c 128,-1,13
 592 1052 592 1052 584 1051.5 c 128,-1,14
 576 1051 576 1051 573 1051 c 1,15,-1
 573 712 l 1,16,-1
 771 737 l 1,17,-1
 752 548 l 1,18,-1
 573 536 l 1,19,-1
 573 202 l 1,0,-1
645 1258 m 0,20,21
 1262 1258 1262 1258 1406 906 c 0,22,23
 1452 794 1452 794 1451.5 659 c 128,-1,24
 1451 524 1451 524 1391.5 406 c 128,-1,25
 1332 288 1332 288 1226.5 198 c 128,-1,26
 1121 108 1121 108 962.5 54 c 128,-1,27
 804 0 804 0 618 0 c 2,28,-1
 0 0 l 1,29,-1
 23 138 l 1,30,-1
 203 241 l 1,31,-1
 203 499 l 1,32,-1
 23 483 l 1,33,-1
 38 666 l 1,34,-1
 203 680 l 1,35,-1
 203 1003 l 1,36,-1
 30 1049 l 1,37,-1
 37 1206 l 1,38,39
 363 1258 363 1258 645 1258 c 0,20,21
EndSplineSet
Colour: ffffff
EndChar

StartChar: Euro
Encoding: 8364 8364 32
Width: 1241
VWidth: 0
Flags: HMW
LayerCount: 2
Fore
SplineSet
711 1096 m 0,0,1
 616 1096 616 1096 557 1021.5 c 128,-1,2
 498 947 498 947 494 789 c 1,3,-1
 943 789 l 1,4,-1
 916 655 l 1,5,-1
 503 655 l 1,6,7
 508 622 508 622 514 589 c 1,8,-1
 897 589 l 1,9,-1
 870 456 l 1,10,-1
 550 456 l 1,11,12
 653 164 653 164 849 164 c 0,13,14
 938 164 938 164 952 188 c 1,15,-1
 1026 408 l 1,16,-1
 1202 436 l 1,17,-1
 1231 127 l 1,18,19
 1132 37 1132 37 1035.5 7 c 128,-1,20
 939 -23 939 -23 811 -23 c 128,-1,21
 683 -23 683 -23 581 2 c 0,22,23
 390 49 390 49 277.5 170.5 c 128,-1,24
 165 292 165 292 135 456 c 1,25,-1
 0 456 l 1,26,-1
 16 589 l 1,27,-1
 125 589 l 1,28,29
 126 622 126 622 130 655 c 1,30,-1
 16 655 l 1,31,-1
 32 789 l 1,32,-1
 161 789 l 1,33,34
 228 990 228 990 403 1128 c 128,-1,35
 578 1266 578 1266 830.5 1266 c 128,-1,36
 1083 1266 1083 1266 1212 1166 c 1,37,-1
 1185 815 l 1,38,-1
 1010 837 l 1,39,-1
 944 1027 l 1,40,41
 850 1096 850 1096 711 1096 c 0,0,1
EndSplineSet
Colour: ffffff
EndChar

StartChar: Euro.osf
Encoding: 65536 -1 33
Width: 1021
VWidth: 0
Flags: HMW
LayerCount: 2
Fore
SplineSet
110 510.5 m 128,-1,1
 110 525 110 525 110 533 c 1,2,-1
 0 533 l 1,3,-1
 22 669 l 1,4,-1
 132 669 l 1,5,6
 181 834 181 834 322.5 937.5 c 128,-1,7
 464 1041 464 1041 652 1041 c 0,8,9
 782 1041 782 1041 887 1004.5 c 128,-1,10
 992 968 992 968 1021 918 c 1,11,-1
 999 635 l 1,12,-1
 856 659 l 1,13,-1
 798 840 l 1,14,15
 769 868 769 868 750 882 c 0,16,17
 703 918 703 918 622 918 c 0,18,19
 462 918 462 918 437 669 c 1,20,-1
 748 669 l 1,21,-1
 721 533 l 1,22,-1
 431 533 l 1,23,24
 431 504 431 504 433 476 c 1,25,-1
 706 476 l 1,26,-1
 679 343 l 1,27,-1
 455 343 l 1,28,29
 485 230 485 230 544 171 c 128,-1,30
 603 112 603 112 677.5 112 c 128,-1,31
 752 112 752 112 794 147 c 1,32,-1
 866 408 l 1,33,-1
 1009 376 l 1,34,-1
 1028 84 l 1,35,36
 961 31 961 31 829 -5 c 128,-1,37
 697 -41 697 -41 575 -41 c 0,38,39
 393 -41 393 -41 277 57 c 128,-1,40
 161 155 161 155 125 343 c 1,41,-1
 5 343 l 1,42,-1
 21 476 l 1,43,-1
 111 476 l 1,44,0
 110 496 110 496 110 510.5 c 128,-1,1
EndSplineSet
Colour: ffffff
EndChar

StartChar: F
Encoding: 70 70 34
Width: 1187
VWidth: 0
Flags: HMW
LayerCount: 2
Fore
SplineSet
565 1072 m 1,0,-1
 565 686 l 1,1,-1
 984 728 l 1,2,-1
 951 452 l 1,3,-1
 565 514 l 1,4,-1
 565 227 l 1,5,-1
 790 143 l 1,6,-1
 774 0 l 1,7,-1
 15 0 l 1,8,-1
 31 138 l 1,9,-1
 193 217 l 1,10,-1
 193 1030 l 1,11,-1
 0 1100 l 1,12,-1
 19 1244 l 1,13,-1
 1187 1244 l 1,14,-1
 1128 834 l 1,15,-1
 961 861 l 1,16,-1
 901 1072 l 1,17,-1
 565 1072 l 1,0,-1
EndSplineSet
Colour: ffffff
EndChar

StartChar: G
Encoding: 71 71 35
Width: 1391
VWidth: 0
Flags: HMW
LayerCount: 2
Back
SplineSet
0 619 m 4,0,1
 0 911 0 911 203.5 1090 c 0
 407 1269 407 1269 755 1269 c 0,2,3
 914 1269 914 1269 1038.5 1231.5 c 0
 1163 1194 1163 1194 1256.5 1116 c 0
 1350 1038 1350 1038 1399.5 908.5 c 0
 1449 779 1449 779 1449 603 c 0,4,5
 1449 448 1449 448 1391 326.5 c 0
 1333 205 1333 205 1229.5 128.5 c 0
 1126 52 1126 52 988 12.5 c 0
 850 -27 850 -27 685 -27 c 0,6,7
 512 -27 512 -27 380 20 c 0
 248 67 248 67 165.5 153.5 c 0
 83 240 83 240 41.5 357 c 0
 0 474 0 474 0 619 c 4,0,1
448 671 m 4,8,9
 448 630 448 630 453 582.5 c 0
 458 535 458 535 469.5 475.5 c 0
 481 416 481 416 503 362.5 c 0
 525 309 525 309 555.5 263 c 0
 586 217 586 217 633 190 c 0
 680 163 680 163 738 163 c 0,10,11
 868 163 868 163 933 262.5 c 0
 998 362 998 362 998 573 c 0,12,13
 998 609 998 609 995.5 648.5 c 0
 993 688 993 688 985 740.5 c 0
 977 793 977 793 964 840 c 0
 951 887 951 887 928.5 934.5 c 0
 906 982 906 982 877 1016.5 c 0
 848 1051 848 1051 804.5 1072.5 c 0
 761 1094 761 1094 709 1094 c 0,14,15
 572 1094 572 1094 510 985.5 c 0
 448 877 448 877 448 671 c 4,8,9
EndSplineSet
Fore
SplineSet
0 580 m 0,0,1
 0 710 0 710 43 823 c 0,2,3
 122 1032 122 1032 323.5 1151.5 c 128,-1,4
 525 1271 525 1271 761 1271 c 0,5,6
 927 1272 927 1272 1057 1242 c 0,7,8
 1090 1234 1090 1234 1166 1210 c 2,9,-1
 1242 1185 l 1,10,-1
 1201 746 l 1,11,-1
 1013 761 l 1,12,-1
 972 979 l 1,13,14
 922 1030 922 1030 862.5 1058.5 c 128,-1,15
 803 1087 803 1087 714 1087 c 0,16,17
 564 1087 564 1087 486 994 c 128,-1,18
 408 901 408 901 408 683 c 128,-1,19
 408 465 408 465 494 322 c 128,-1,20
 580 179 580 179 724 179 c 0,21,22
 833 179 833 179 909 235 c 1,23,-1
 909 355 l 1,24,-1
 688 419 l 1,25,-1
 711 591 l 1,26,-1
 1371 591 l 1,27,-1
 1350 435 l 1,28,-1
 1245 363 l 1,29,-1
 1245 93 l 1,30,31
 1180 51 1180 51 1018.5 13.5 c 128,-1,32
 857 -24 857 -24 740 -24 c 0,33,34
 372 -24 372 -24 186 129.5 c 128,-1,35
 0 283 0 283 0 580 c 0,0,1
EndSplineSet
Colour: ffffff
EndChar

StartChar: Gbreve
Encoding: 286 286 36
Width: 1391
VWidth: 0
Flags: HMW
LayerCount: 2
Fore
SplineSet
687 1570 m 128,-1,1
 718 1570 718 1570 735.5 1581.5 c 128,-1,2
 753 1593 753 1593 759.5 1604.5 c 128,-1,3
 766 1616 766 1616 775 1637 c 1,4,-1
 948 1596 l 1,5,6
 931 1506 931 1506 862.5 1449.5 c 128,-1,7
 794 1393 794 1393 693 1393 c 0,8,9
 486 1393 486 1393 434 1601 c 1,10,-1
 613 1637 l 1,11,12
 618 1611 618 1611 637 1590.5 c 128,-1,0
 656 1570 656 1570 687 1570 c 128,-1,1
0 580 m 0,13,14
 0 710 0 710 43 823 c 0,15,16
 122 1032 122 1032 323.5 1151.5 c 128,-1,17
 525 1271 525 1271 761 1271 c 0,18,19
 927 1272 927 1272 1057 1242 c 0,20,21
 1090 1234 1090 1234 1166 1210 c 2,22,-1
 1242 1185 l 1,23,-1
 1201 746 l 1,24,-1
 1013 761 l 1,25,-1
 972 979 l 1,26,27
 922 1030 922 1030 862.5 1058.5 c 128,-1,28
 803 1087 803 1087 714 1087 c 0,29,30
 564 1087 564 1087 486 994 c 128,-1,31
 408 901 408 901 408 683 c 128,-1,32
 408 465 408 465 494 322 c 128,-1,33
 580 179 580 179 724 179 c 0,34,35
 833 179 833 179 909 235 c 1,36,-1
 909 355 l 1,37,-1
 688 419 l 1,38,-1
 711 591 l 1,39,-1
 1371 591 l 1,40,-1
 1350 435 l 1,41,-1
 1245 363 l 1,42,-1
 1245 93 l 1,43,44
 1180 51 1180 51 1018.5 13.5 c 128,-1,45
 857 -24 857 -24 740 -24 c 0,46,47
 372 -24 372 -24 186 129.5 c 128,-1,48
 0 283 0 283 0 580 c 0,13,14
EndSplineSet
Colour: ffffff
EndChar

StartChar: Gcommaaccent
Encoding: 290 290 37
Width: 1391
VWidth: 0
Flags: HMW
LayerCount: 2
Fore
SplineSet
760 -146 m 0,0,1
 836 -146 836 -146 882 -181 c 128,-1,2
 928 -216 928 -216 928 -278 c 128,-1,3
 928 -340 928 -340 877 -382 c 0,4,5
 778 -462 778 -462 586 -451 c 1,6,-1
 564 -391 l 1,7,8
 604 -385 604 -385 638 -367 c 128,-1,9
 672 -349 672 -349 672 -328.5 c 128,-1,10
 672 -308 672 -308 636 -293 c 0,11,12
 602 -278 602 -278 560 -272 c 1,13,14
 582 -146 582 -146 760 -146 c 0,0,1
0 580 m 0,15,16
 0 710 0 710 43 823 c 0,17,18
 122 1032 122 1032 323.5 1151.5 c 128,-1,19
 525 1271 525 1271 761 1271 c 0,20,21
 927 1272 927 1272 1057 1242 c 0,22,23
 1090 1234 1090 1234 1166 1210 c 2,24,-1
 1242 1185 l 1,25,-1
 1201 746 l 1,26,-1
 1013 761 l 1,27,-1
 972 979 l 1,28,29
 922 1030 922 1030 862.5 1058.5 c 128,-1,30
 803 1087 803 1087 714 1087 c 0,31,32
 564 1087 564 1087 486 994 c 128,-1,33
 408 901 408 901 408 683 c 128,-1,34
 408 465 408 465 494 322 c 128,-1,35
 580 179 580 179 724 179 c 0,36,37
 833 179 833 179 909 235 c 1,38,-1
 909 355 l 1,39,-1
 688 419 l 1,40,-1
 711 591 l 1,41,-1
 1371 591 l 1,42,-1
 1350 435 l 1,43,-1
 1245 363 l 1,44,-1
 1245 93 l 1,45,46
 1180 51 1180 51 1018.5 13.5 c 128,-1,47
 857 -24 857 -24 740 -24 c 0,48,49
 372 -24 372 -24 186 129.5 c 128,-1,50
 0 283 0 283 0 580 c 0,15,16
EndSplineSet
Colour: ffffff
EndChar

StartChar: Gdotaccent
Encoding: 288 288 38
Width: 1391
VWidth: 0
Flags: HMW
LayerCount: 2
Fore
SplineSet
498 1546 m 0,0,1
 498 1601 498 1601 530 1636 c 0,2,3
 590 1699 590 1699 706 1699 c 0,4,5
 872 1699 872 1699 914 1600 c 0,6,7
 924 1576 924 1576 924 1549 c 0,8,9
 924 1393 924 1393 711 1393 c 128,-1,10
 498 1393 498 1393 498 1546 c 0,0,1
0 580 m 0,11,12
 0 710 0 710 43 823 c 0,13,14
 122 1032 122 1032 323.5 1151.5 c 128,-1,15
 525 1271 525 1271 761 1271 c 0,16,17
 927 1272 927 1272 1057 1242 c 0,18,19
 1090 1234 1090 1234 1166 1210 c 2,20,-1
 1242 1185 l 1,21,-1
 1201 746 l 1,22,-1
 1013 761 l 1,23,-1
 972 979 l 1,24,25
 922 1030 922 1030 862.5 1058.5 c 128,-1,26
 803 1087 803 1087 714 1087 c 0,27,28
 564 1087 564 1087 486 994 c 128,-1,29
 408 901 408 901 408 683 c 128,-1,30
 408 465 408 465 494 322 c 128,-1,31
 580 179 580 179 724 179 c 0,32,33
 833 179 833 179 909 235 c 1,34,-1
 909 355 l 1,35,-1
 688 419 l 1,36,-1
 711 591 l 1,37,-1
 1371 591 l 1,38,-1
 1350 435 l 1,39,-1
 1245 363 l 1,40,-1
 1245 93 l 1,41,42
 1180 51 1180 51 1018.5 13.5 c 128,-1,43
 857 -24 857 -24 740 -24 c 0,44,45
 372 -24 372 -24 186 129.5 c 128,-1,46
 0 283 0 283 0 580 c 0,11,12
EndSplineSet
Colour: ffffff
EndChar

StartChar: H
Encoding: 72 72 39
Width: 1570
VWidth: 0
Flags: HMW
LayerCount: 2
Fore
SplineSet
559 744 m 1,0,-1
 1006 744 l 1,1,-1
 1006 1020 l 1,2,-1
 825 1094 l 1,3,-1
 842 1244 l 1,4,-1
 1570 1244 l 1,5,-1
 1551 1094 l 1,6,-1
 1383 1027 l 1,7,-1
 1383 211 l 1,8,-1
 1562 148 l 1,9,-1
 1548 0 l 1,10,-1
 825 0 l 1,11,-1
 839 138 l 1,12,-1
 1006 217 l 1,13,-1
 1006 493 l 1,14,-1
 559 493 l 1,15,-1
 559 211 l 1,16,-1
 740 148 l 1,17,-1
 722 0 l 1,18,-1
 5 0 l 1,19,-1
 17 138 l 1,20,-1
 186 217 l 1,21,-1
 186 1020 l 1,22,-1
 0 1094 l 1,23,-1
 25 1244 l 1,24,-1
 745 1244 l 1,25,-1
 726 1094 l 1,26,-1
 559 1027 l 1,27,-1
 559 744 l 1,0,-1
EndSplineSet
Colour: ffffff
EndChar

StartChar: Hbar
Encoding: 294 294 40
Width: 1570
VWidth: 0
Flags: HMW
LayerCount: 2
Fore
SplineSet
186 976 m 1,0,-1
 186 1020 l 1,1,-1
 0 1094 l 1,2,-1
 25 1244 l 1,3,-1
 745 1244 l 1,4,-1
 726 1094 l 1,5,-1
 559 1027 l 1,6,-1
 559 937 l 1,7,-1
 1006 937 l 1,8,-1
 1006 1020 l 1,9,-1
 825 1094 l 1,10,-1
 842 1244 l 1,11,-1
 1570 1244 l 1,12,-1
 1551 1094 l 1,13,-1
 1383 1027 l 1,14,-1
 1383 976 l 1,15,-1
 1541 976 l 1,16,-1
 1531 772 l 1,17,-1
 1383 772 l 1,18,-1
 1383 211 l 1,19,-1
 1562 148 l 1,20,-1
 1548 0 l 1,21,-1
 825 0 l 1,22,-1
 839 138 l 1,23,-1
 1006 217 l 1,24,-1
 1006 493 l 1,25,-1
 559 493 l 1,26,-1
 559 211 l 1,27,-1
 740 148 l 1,28,-1
 722 0 l 1,29,-1
 5 0 l 1,30,-1
 17 138 l 1,31,-1
 186 217 l 1,32,-1
 186 772 l 1,33,-1
 15 772 l 1,34,-1
 27 976 l 1,35,-1
 186 976 l 1,0,-1
1006 837 m 1,36,-1
 559 837 l 1,37,-1
 559 744 l 1,38,-1
 1006 744 l 1,39,-1
 1006 837 l 1,36,-1
EndSplineSet
Colour: ffffff
EndChar

StartChar: I
Encoding: 73 73 41
Width: 757
VWidth: 0
Flags: HMW
LayerCount: 2
Fore
SplineSet
0 1094 m 1,0,-1
 20 1244 l 1,1,-1
 747 1244 l 1,2,-1
 731 1084 l 1,3,-1
 552 1017 l 1,4,-1
 552 223 l 1,5,-1
 732 160 l 1,6,-1
 719 0 l 1,7,-1
 2 0 l 1,8,-1
 12 142 l 1,9,-1
 188 221 l 1,10,-1
 188 1020 l 1,11,-1
 0 1094 l 1,0,-1
EndSplineSet
Colour: ffffff
EndChar

StartChar: Iacute
Encoding: 205 205 42
Width: 757
VWidth: 0
Flags: HMW
LayerCount: 2
Fore
SplineSet
306 1402 m 1,0,-1
 460 1727 l 1,1,-1
 680 1713 l 1,2,-1
 450 1381 l 1,3,-1
 306 1402 l 1,0,-1
0 1094 m 1,4,-1
 20 1244 l 1,5,-1
 747 1244 l 1,6,-1
 731 1084 l 1,7,-1
 552 1017 l 1,8,-1
 552 223 l 1,9,-1
 732 160 l 1,10,-1
 719 0 l 1,11,-1
 2 0 l 1,12,-1
 12 142 l 1,13,-1
 188 221 l 1,14,-1
 188 1020 l 1,15,-1
 0 1094 l 1,4,-1
EndSplineSet
Colour: ffffff
EndChar

StartChar: Icaron
Encoding: 463 463 43
Width: 757
VWidth: 0
Flags: HMW
LayerCount: 2
Fore
SplineSet
104 1597 m 1,0,-1
 290 1634 l 1,1,-1
 402 1549 l 1,2,-1
 412 1549 l 1,3,-1
 508 1631 l 1,4,-1
 680 1602 l 1,5,-1
 470 1401 l 1,6,-1
 312 1391 l 1,7,-1
 104 1597 l 1,0,-1
0 1094 m 1,8,-1
 20 1244 l 1,9,-1
 747 1244 l 1,10,-1
 731 1084 l 1,11,-1
 552 1017 l 1,12,-1
 552 223 l 1,13,-1
 732 160 l 1,14,-1
 719 0 l 1,15,-1
 2 0 l 1,16,-1
 12 142 l 1,17,-1
 188 221 l 1,18,-1
 188 1020 l 1,19,-1
 0 1094 l 1,8,-1
EndSplineSet
Colour: ffffff
EndChar

StartChar: Icircumflex
Encoding: 206 206 44
Width: 757
VWidth: 0
Flags: HMW
LayerCount: 2
Fore
SplineSet
122 1401 m 1,0,-1
 294 1596 l 1,1,-1
 470 1616 l 1,2,-1
 674 1411 l 1,3,-1
 524 1352 l 1,4,-1
 384 1453 l 1,5,-1
 370 1453 l 1,6,-1
 268 1351 l 1,7,-1
 122 1401 l 1,0,-1
0 1094 m 1,8,-1
 20 1244 l 1,9,-1
 747 1244 l 1,10,-1
 731 1084 l 1,11,-1
 552 1017 l 1,12,-1
 552 223 l 1,13,-1
 732 160 l 1,14,-1
 719 0 l 1,15,-1
 2 0 l 1,16,-1
 12 142 l 1,17,-1
 188 221 l 1,18,-1
 188 1020 l 1,19,-1
 0 1094 l 1,8,-1
EndSplineSet
Colour: ffffff
EndChar

StartChar: Idieresis
Encoding: 207 207 45
Width: 757
VWidth: 0
Flags: HMW
LayerCount: 2
Fore
SplineSet
393 1498 m 0,0,1
 393 1537 393 1537 415 1561 c 0,2,3
 454 1605 454 1605 531 1605 c 0,4,5
 641 1605 641 1605 668 1536 c 0,6,7
 675 1519 675 1519 675 1500 c 0,8,9
 675 1391 675 1391 534 1391 c 128,-1,10
 393 1391 393 1391 393 1498 c 0,0,1
84 1498 m 0,11,12
 84 1537 84 1537 106 1561 c 0,13,14
 145 1605 145 1605 222 1605 c 0,15,16
 332 1605 332 1605 359 1536 c 0,17,18
 366 1519 366 1519 366 1500 c 0,19,20
 366 1391 366 1391 225 1391 c 128,-1,21
 84 1391 84 1391 84 1498 c 0,11,12
0 1094 m 1,22,-1
 20 1244 l 1,23,-1
 747 1244 l 1,24,-1
 731 1084 l 1,25,-1
 552 1017 l 1,26,-1
 552 223 l 1,27,-1
 732 160 l 1,28,-1
 719 0 l 1,29,-1
 2 0 l 1,30,-1
 12 142 l 1,31,-1
 188 221 l 1,32,-1
 188 1020 l 1,33,-1
 0 1094 l 1,22,-1
EndSplineSet
Colour: ffffff
EndChar

StartChar: Idotaccent
Encoding: 304 304 46
Width: 757
VWidth: 0
Flags: HMW
LayerCount: 2
Fore
SplineSet
170 1544 m 0,0,1
 170 1604 170 1604 220 1650 c 0,2,3
 268 1696 268 1696 382 1696.5 c 128,-1,4
 496 1697 496 1697 546.5 1651.5 c 128,-1,5
 597 1606 597 1606 597 1547 c 0,6,7
 598 1391 598 1391 384 1391 c 128,-1,8
 170 1391 170 1391 170 1544 c 0,0,1
0 1094 m 1,9,-1
 20 1244 l 1,10,-1
 747 1244 l 1,11,-1
 731 1084 l 1,12,-1
 552 1017 l 1,13,-1
 552 223 l 1,14,-1
 732 160 l 1,15,-1
 719 0 l 1,16,-1
 2 0 l 1,17,-1
 12 142 l 1,18,-1
 188 221 l 1,19,-1
 188 1020 l 1,20,-1
 0 1094 l 1,9,-1
EndSplineSet
Colour: ffffff
EndChar

StartChar: Igrave
Encoding: 204 204 47
Width: 757
VWidth: 0
Flags: HMW
LayerCount: 2
Fore
SplineSet
94 1730 m 1,0,-1
 312 1770 l 1,1,-1
 462 1422 l 1,2,-1
 304 1391 l 1,3,-1
 94 1730 l 1,0,-1
0 1094 m 1,4,-1
 20 1244 l 1,5,-1
 747 1244 l 1,6,-1
 731 1084 l 1,7,-1
 552 1017 l 1,8,-1
 552 223 l 1,9,-1
 732 160 l 1,10,-1
 719 0 l 1,11,-1
 2 0 l 1,12,-1
 12 142 l 1,13,-1
 188 221 l 1,14,-1
 188 1020 l 1,15,-1
 0 1094 l 1,4,-1
EndSplineSet
Colour: ffffff
EndChar

StartChar: Imacron
Encoding: 298 298 48
Width: 757
VWidth: 0
Flags: HMW
LayerCount: 2
Fore
SplineSet
146 1391 m 1,0,-1
 168 1586 l 1,1,-1
 620 1586 l 1,2,-1
 598 1391 l 1,3,-1
 146 1391 l 1,0,-1
0 1094 m 1,4,-1
 20 1244 l 1,5,-1
 747 1244 l 1,6,-1
 731 1084 l 1,7,-1
 552 1017 l 1,8,-1
 552 223 l 1,9,-1
 732 160 l 1,10,-1
 719 0 l 1,11,-1
 2 0 l 1,12,-1
 12 142 l 1,13,-1
 188 221 l 1,14,-1
 188 1020 l 1,15,-1
 0 1094 l 1,4,-1
EndSplineSet
Colour: ffffff
EndChar

StartChar: Iogonek
Encoding: 302 302 49
Width: 757
VWidth: 0
Flags: HMW
LayerCount: 2
Fore
SplineSet
438 -193 m 128,-1,1
 438 -134 438 -134 469 -91.5 c 128,-1,2
 500 -49 500 -49 574 0 c 1,3,-1
 2 0 l 1,4,-1
 12 142 l 1,5,-1
 188 221 l 1,6,-1
 188 1020 l 1,7,-1
 0 1094 l 1,8,-1
 20 1244 l 1,9,-1
 747 1244 l 1,10,-1
 731 1084 l 1,11,-1
 552 1017 l 1,12,-1
 552 223 l 1,13,-1
 732 160 l 1,14,-1
 719 0 l 1,15,-1
 708 0 l 1,16,17
 644 -174 644 -174 778 -290 c 1,18,-1
 754 -385 l 1,19,20
 573 -374 573 -374 484 -294 c 0,21,0
 438 -252 438 -252 438 -193 c 128,-1,1
EndSplineSet
Colour: ffffff
EndChar

StartChar: J
Encoding: 74 74 50
Width: 761
VWidth: 0
Flags: HMW
LayerCount: 2
Fore
SplineSet
204 285 m 2,0,-1
 204 1020 l 1,1,-1
 25 1094 l 1,2,-1
 44 1244 l 1,3,-1
 761 1244 l 1,4,-1
 741 1094 l 1,5,-1
 571 1027 l 1,6,-1
 571 434 l 1,7,8
 572 277 572 277 553 173.5 c 128,-1,9
 534 70 534 70 478.5 -18.5 c 128,-1,10
 423 -107 423 -107 341 -174 c 128,-1,11
 259 -241 259 -241 117 -326 c 1,12,-1
 0 -151 l 1,13,14
 101 -70 101 -70 152.5 49.5 c 128,-1,15
 204 169 204 169 204 285 c 2,0,-1
EndSplineSet
Colour: ffffff
EndChar

StartChar: K
Encoding: 75 75 51
Width: 1507
VWidth: 0
Flags: HMW
LayerCount: 2
Back
SplineSet
-48.458 0 m 5,0,-1
 -29.8828 138.105 l 1,1,-1
 159.912 217.254 l 1,2,-1
 159.912 995.814 l 1,3,-1
 -31.498 1043.46 l 1,4,-1
 -20.1904 1202.57 l 1,5,6
 305.63 1255.06 305.63 1255.06 497.503 1255.06 c 0,7,8
 578.969 1255.06 578.969 1255.06 641.819 1253.32 c 0
 704.67 1251.57 704.67 1251.57 769.608 1246.77 c 0
 834.547 1241.97 834.547 1241.97 882.95 1233.59 c 0
 931.353 1225.21 931.353 1225.21 978.626 1211.8 c 0
 1025.9 1198.39 1025.9 1198.39 1059.07 1179.57 c 0
 1092.24 1160.75 1092.24 1160.75 1121.07 1134.93 c 0
 1149.89 1109.1 1149.89 1109.1 1167.04 1076.04 c 0
 1184.2 1042.98 1184.2 1042.98 1193.79 1000.94 c 0
 1203.38 958.894 1203.38 958.894 1203.38 907.782 c 0,9,10
 1203.38 841.454 1203.38 841.454 1177.71 780.665 c 0
 1152.05 719.877 1152.05 719.877 1110.44 676.308 c 0
 1068.82 632.739 1068.82 632.739 1018.53 602.985 c 0
 968.238 573.231 968.238 573.231 916.666 562.114 c 1,11,-1
 916.666 561.307 l 1,12,-1
 1048.31 399.779 l 2,13,14
 1058.38 387.485 1058.38 387.485 1080.46 359.898 c 0
 1102.54 332.311 1102.54 332.311 1113.68 318.735 c 0
 1124.82 305.159 1124.82 305.159 1146.26 281.123 c 0
 1167.69 257.086 1167.69 257.086 1182.58 243.667 c 0
 1197.47 230.248 1197.47 230.248 1220.53 211.748 c 0
 1243.59 193.249 1243.59 193.249 1264.5 181.972 c 0
 1285.41 170.695 1285.41 170.695 1312.37 159.719 c 0
 1339.33 148.743 1339.33 148.743 1368.13 142.144 c 2,15,-1
 1406.9 133.26 l 1,16,-1
 1376.21 2.42285 l 1,17,18
 1277.23 -27.46 1277.23 -27.46 1158.96 -27.46 c 0,19,20
 1069.25 -27.46 1069.25 -27.46 996.739 -5.70802 c 0
 924.223 16.044 924.223 16.044 869.053 58.9849 c 0
 813.883 101.926 813.883 101.926 772.857 155.511 c 0
 731.832 209.096 731.832 209.096 694.566 282.672 c 2,21,-1
 600.073 469.236 l 1,22,-1
 530.616 469.236 l 1,23,-1
 530.616 228.561 l 1,24,-1
 672.76 155.066 l 1,25,-1
 661.453 0 l 1,26,-1
 -48.458 0 l 5,0,-1
530.616 627.532 m 5,27,-1
 653.377 627.532 l 1,28,29
 731.043 645.75 731.043 645.75 769.302 695.37 c 0
 807.56 744.989 807.56 744.989 807.56 811.124 c 0,30,31
 807.56 927.94 807.56 927.94 740.144 1003.99 c 0
 672.728 1080.03 672.728 1080.03 579.259 1080.03 c 0,32,33
 554.789 1080.03 554.789 1080.03 530.616 1074.15 c 1,34,-1
 530.616 627.532 l 5,27,-1
EndSplineSet
Fore
SplineSet
1232 -27 m 128,-1,1
 1170 -27 1170 -27 1098 -1 c 0,2,3
 1026 26 1026 26 968 78 c 0,4,5
 865 169 865 169 763 346 c 2,6,-1
 627 584 l 1,7,-1
 630 655 l 1,8,9
 681 717 681 717 695 740 c 2,10,-1
 867 1003 l 1,11,-1
 907 1244 l 1,12,-1
 1428 1244 l 1,13,-1
 1398 1094 l 1,14,-1
 1174 1000 l 1,15,-1
 942 685 l 1,16,-1
 1100 470 l 2,17,18
 1172 372 1172 372 1207 328 c 128,-1,19
 1242 284 1242 284 1289 238.5 c 128,-1,20
 1336 193 1336 193 1378.5 173 c 128,-1,21
 1421 153 1421 153 1482 139 c 2,22,-1
 1507 133 l 1,23,-1
 1475 2 l 1,24,25
 1444 -10 1444 -10 1369 -18.5 c 128,-1,0
 1294 -27 1294 -27 1232 -27 c 128,-1,1
0 1094 m 1,26,-1
 32 1244 l 1,27,-1
 742 1244 l 1,28,-1
 721 1094 l 1,29,-1
 585 1000 l 1,30,-1
 585 240 l 1,31,-1
 780 148 l 1,32,-1
 768 0 l 1,33,-1
 3 0 l 1,34,-1
 19 138 l 1,35,-1
 221 241 l 1,36,-1
 221 993 l 1,37,-1
 0 1094 l 1,26,-1
EndSplineSet
Colour: ffffff
EndChar

StartChar: Kcommaaccent
Encoding: 310 310 52
Width: 1507
VWidth: 0
Flags: HMW
LayerCount: 2
Fore
SplineSet
1276 -149 m 0,0,1
 1352 -149 1352 -149 1398 -184 c 128,-1,2
 1444 -219 1444 -219 1444 -281 c 128,-1,3
 1444 -343 1444 -343 1392 -385 c 0,4,5
 1292 -465 1292 -465 1100 -454 c 1,6,-1
 1078 -394 l 1,7,8
 1118 -388 1118 -388 1152 -370 c 128,-1,9
 1186 -352 1186 -352 1186 -331.5 c 128,-1,10
 1186 -311 1186 -311 1151 -296 c 128,-1,11
 1116 -281 1116 -281 1074 -275 c 1,12,13
 1098 -149 1098 -149 1276 -149 c 0,0,1
1232 -27 m 128,-1,15
 1170 -27 1170 -27 1098 -1 c 0,16,17
 1026 26 1026 26 968 78 c 0,18,19
 865 169 865 169 763 346 c 2,20,-1
 627 584 l 1,21,-1
 630 655 l 1,22,23
 681 717 681 717 695 740 c 2,24,-1
 867 1003 l 1,25,-1
 907 1244 l 1,26,-1
 1428 1244 l 1,27,-1
 1398 1094 l 1,28,-1
 1174 1000 l 1,29,-1
 942 685 l 1,30,-1
 1100 470 l 2,31,32
 1172 372 1172 372 1207 328 c 128,-1,33
 1242 284 1242 284 1289 238.5 c 128,-1,34
 1336 193 1336 193 1378.5 173 c 128,-1,35
 1421 153 1421 153 1482 139 c 2,36,-1
 1507 133 l 1,37,-1
 1475 2 l 1,38,39
 1444 -10 1444 -10 1369 -18.5 c 128,-1,14
 1294 -27 1294 -27 1232 -27 c 128,-1,15
0 1094 m 1,40,-1
 32 1244 l 1,41,-1
 742 1244 l 1,42,-1
 721 1094 l 1,43,-1
 585 1000 l 1,44,-1
 585 240 l 1,45,-1
 780 148 l 1,46,-1
 768 0 l 1,47,-1
 3 0 l 1,48,-1
 19 138 l 1,49,-1
 221 241 l 1,50,-1
 221 993 l 1,51,-1
 0 1094 l 1,40,-1
EndSplineSet
Colour: ffffff
EndChar

StartChar: L
Encoding: 76 76 53
Width: 1202
VWidth: 0
Flags: HMW
LayerCount: 2
Fore
SplineSet
0 0 m 1,0,-1
 16 138 l 1,1,-1
 176 217 l 1,2,-1
 176 998 l 1,3,-1
 4 1098 l 1,4,-1
 23 1245 l 1,5,-1
 766 1245 l 1,6,-1
 745 1098 l 1,7,-1
 549 1000 l 1,8,-1
 549 200 l 1,9,-1
 819 178 l 1,10,-1
 993 453 l 1,11,-1
 1159 430 l 1,12,-1
 1112 0 l 1,13,-1
 0 0 l 1,0,-1
EndSplineSet
Colour: ffffff
EndChar

StartChar: Lacute
Encoding: 313 313 54
Width: 1202
VWidth: 0
Flags: HMW
LayerCount: 2
Fore
SplineSet
284 1402 m 1,0,-1
 439 1727 l 1,1,-1
 659 1713 l 1,2,-1
 428 1381 l 1,3,-1
 284 1402 l 1,0,-1
0 0 m 1,4,-1
 16 138 l 1,5,-1
 176 217 l 1,6,-1
 176 998 l 1,7,-1
 4 1098 l 1,8,-1
 23 1245 l 1,9,-1
 766 1245 l 1,10,-1
 745 1098 l 1,11,-1
 549 1000 l 1,12,-1
 549 200 l 1,13,-1
 819 178 l 1,14,-1
 993 453 l 1,15,-1
 1159 430 l 1,16,-1
 1112 0 l 1,17,-1
 0 0 l 1,4,-1
EndSplineSet
Colour: ffffff
EndChar

StartChar: Lcaron
Encoding: 317 317 55
Width: 1830
VWidth: 0
Flags: HMW
LayerCount: 2
Fore
SplineSet
987 906 m 128,-1,1
 987 952 987 952 962 976.5 c 128,-1,2
 937 1001 937 1001 904.5 1001 c 128,-1,3
 872 1001 872 1001 846 988 c 1,4,5
 815 1040 815 1040 815 1087 c 0,6,7
 814 1174 814 1174 870.5 1221.5 c 128,-1,8
 927 1269 927 1269 1017 1269 c 0,9,10
 1260 1269 1260 1269 1260 1003 c 0,11,12
 1260 873 1260 873 1162.5 757.5 c 128,-1,13
 1065 642 1065 642 866 614 c 1,14,-1
 822 732 l 1,15,16
 903 759 903 759 945 809.5 c 128,-1,0
 987 860 987 860 987 906 c 128,-1,1
0 0 m 1,17,-1
 16 138 l 1,18,-1
 176 217 l 1,19,-1
 176 998 l 1,20,-1
 4 1098 l 1,21,-1
 23 1245 l 1,22,-1
 766 1245 l 1,23,-1
 745 1098 l 1,24,-1
 549 1000 l 1,25,-1
 549 200 l 1,26,-1
 819 178 l 1,27,-1
 993 453 l 1,28,-1
 1159 430 l 1,29,-1
 1112 0 l 1,30,-1
 0 0 l 1,17,-1
EndSplineSet
Colour: ffffff
EndChar

StartChar: Lcommaaccent
Encoding: 315 315 56
Width: 1202
VWidth: 0
Flags: HMW
LayerCount: 2
Fore
SplineSet
576 -122 m 0,0,1
 652 -122 652 -122 698 -157 c 128,-1,2
 744 -192 744 -192 744 -254 c 128,-1,3
 744 -316 744 -316 693 -358 c 0,4,5
 594 -438 594 -438 402 -427 c 1,6,-1
 380 -367 l 1,7,8
 420 -361 420 -361 454 -343 c 128,-1,9
 488 -325 488 -325 488 -304.5 c 128,-1,10
 488 -284 488 -284 452 -269 c 0,11,12
 418 -254 418 -254 376 -248 c 1,13,14
 398 -122 398 -122 576 -122 c 0,0,1
0 0 m 1,15,-1
 16 138 l 1,16,-1
 176 217 l 1,17,-1
 176 998 l 1,18,-1
 4 1098 l 1,19,-1
 23 1245 l 1,20,-1
 766 1245 l 1,21,-1
 745 1098 l 1,22,-1
 549 1000 l 1,23,-1
 549 200 l 1,24,-1
 819 178 l 1,25,-1
 993 453 l 1,26,-1
 1159 430 l 1,27,-1
 1112 0 l 1,28,-1
 0 0 l 1,15,-1
EndSplineSet
Colour: ffffff
EndChar

StartChar: Lslash
Encoding: 321 321 57
Width: 1202
VWidth: 0
Flags: HMW
LayerCount: 2
Fore
SplineSet
35 453 m 1,0,-1
 31 628 l 1,1,-1
 176 672 l 1,2,-1
 176 998 l 1,3,-1
 4 1098 l 1,4,-1
 23 1245 l 1,5,-1
 766 1245 l 1,6,-1
 745 1098 l 1,7,-1
 549 1000 l 1,8,-1
 549 784 l 1,9,-1
 767 850 l 1,10,-1
 768 678 l 1,11,-1
 549 611 l 1,12,-1
 549 200 l 1,13,-1
 819 178 l 1,14,-1
 993 453 l 1,15,-1
 1159 430 l 1,16,-1
 1112 0 l 1,17,-1
 0 0 l 1,18,-1
 16 138 l 1,19,-1
 176 217 l 1,20,-1
 176 496 l 1,21,-1
 35 453 l 1,0,-1
EndSplineSet
Colour: ffffff
EndChar

StartChar: M
Encoding: 77 77 58
Width: 1804
VWidth: 0
Flags: HMW
LayerCount: 2
Fore
SplineSet
0 0 m 1,0,-1
 21 154 l 1,1,-1
 189 233 l 1,2,-1
 247 1030 l 1,3,-1
 63 1087 l 1,4,-1
 79 1244 l 1,5,-1
 696 1244 l 1,6,-1
 767 1039 l 1,7,-1
 915 543 l 1,8,-1
 1071 1041 l 1,9,-1
 1138 1244 l 1,10,-1
 1738 1244 l 1,11,-1
 1720 1087 l 1,12,-1
 1558 1033 l 1,13,-1
 1628 229 l 1,14,-1
 1804 161 l 1,15,-1
 1790 0 l 1,16,-1
 1149 0 l 1,17,-1
 1172 154 l 1,18,-1
 1284 233 l 1,19,-1
 1231 776 l 1,20,-1
 1006 31 l 1,21,-1
 723 -8 l 1,22,-1
 484 787 l 1,23,-1
 451 229 l 1,24,-1
 580 161 l 1,25,-1
 555 0 l 1,26,-1
 0 0 l 1,0,-1
EndSplineSet
Colour: ffffff
EndChar

StartChar: N
Encoding: 78 78 59
Width: 1403
VWidth: 0
Flags: HMW
LayerCount: 2
Fore
SplineSet
4 1087 m 1,0,-1
 18 1244 l 1,1,-1
 458 1244 l 1,2,-1
 990 532 l 1,3,-1
 990 1020 l 1,4,-1
 802 1094 l 1,5,-1
 826 1244 l 1,6,-1
 1403 1244 l 1,7,-1
 1378 1094 l 1,8,-1
 1210 1027 l 1,9,-1
 1210 15 l 1,10,-1
 927 -29 l 1,11,-1
 414 619 l 1,12,-1
 414 211 l 1,13,-1
 594 148 l 1,14,-1
 581 0 l 1,15,-1
 0 0 l 1,16,-1
 10 138 l 1,17,-1
 181 217 l 1,18,-1
 181 1003 l 1,19,-1
 4 1087 l 1,0,-1
EndSplineSet
Colour: ffffff
EndChar

StartChar: Nacute
Encoding: 323 323 60
Width: 1403
VWidth: 0
Flags: HMW
LayerCount: 2
Fore
SplineSet
572 1402 m 1,0,-1
 728 1727 l 1,1,-1
 948 1713 l 1,2,-1
 716 1381 l 1,3,-1
 572 1402 l 1,0,-1
4 1087 m 1,4,-1
 18 1244 l 1,5,-1
 458 1244 l 1,6,-1
 990 532 l 1,7,-1
 990 1020 l 1,8,-1
 802 1094 l 1,9,-1
 826 1244 l 1,10,-1
 1403 1244 l 1,11,-1
 1378 1094 l 1,12,-1
 1210 1027 l 1,13,-1
 1210 15 l 1,14,-1
 927 -29 l 1,15,-1
 414 619 l 1,16,-1
 414 211 l 1,17,-1
 594 148 l 1,18,-1
 581 0 l 1,19,-1
 0 0 l 1,20,-1
 10 138 l 1,21,-1
 181 217 l 1,22,-1
 181 1003 l 1,23,-1
 4 1087 l 1,4,-1
EndSplineSet
Colour: ffffff
EndChar

StartChar: Ncaron
Encoding: 327 327 61
Width: 1403
VWidth: 0
Flags: HMW
LayerCount: 2
Fore
SplineSet
372 1597 m 1,0,-1
 556 1634 l 1,1,-1
 670 1549 l 1,2,-1
 680 1549 l 1,3,-1
 776 1631 l 1,4,-1
 948 1602 l 1,5,-1
 738 1401 l 1,6,-1
 580 1391 l 1,7,-1
 372 1597 l 1,0,-1
4 1087 m 1,8,-1
 18 1244 l 1,9,-1
 458 1244 l 1,10,-1
 990 532 l 1,11,-1
 990 1020 l 1,12,-1
 802 1094 l 1,13,-1
 826 1244 l 1,14,-1
 1403 1244 l 1,15,-1
 1378 1094 l 1,16,-1
 1210 1027 l 1,17,-1
 1210 15 l 1,18,-1
 927 -29 l 1,19,-1
 414 619 l 1,20,-1
 414 211 l 1,21,-1
 594 148 l 1,22,-1
 581 0 l 1,23,-1
 0 0 l 1,24,-1
 10 138 l 1,25,-1
 181 217 l 1,26,-1
 181 1003 l 1,27,-1
 4 1087 l 1,8,-1
EndSplineSet
Colour: ffffff
EndChar

StartChar: Ncommaaccent
Encoding: 325 325 62
Width: 1403
VWidth: 0
Flags: HMW
LayerCount: 2
Fore
SplineSet
740 -79 m 0,0,1
 816 -79 816 -79 862 -114 c 128,-1,2
 908 -149 908 -149 908 -211 c 128,-1,3
 908 -273 908 -273 856 -315 c 0,4,5
 756 -395 756 -395 564 -384 c 1,6,-1
 542 -324 l 1,7,8
 582 -318 582 -318 616 -300 c 128,-1,9
 650 -282 650 -282 650 -261.5 c 128,-1,10
 650 -241 650 -241 615 -226 c 128,-1,11
 580 -211 580 -211 538 -205 c 1,12,13
 562 -79 562 -79 740 -79 c 0,0,1
4 1087 m 1,14,-1
 18 1244 l 1,15,-1
 458 1244 l 1,16,-1
 990 532 l 1,17,-1
 990 1020 l 1,18,-1
 802 1094 l 1,19,-1
 826 1244 l 1,20,-1
 1403 1244 l 1,21,-1
 1378 1094 l 1,22,-1
 1210 1027 l 1,23,-1
 1210 15 l 1,24,-1
 927 -29 l 1,25,-1
 414 619 l 1,26,-1
 414 211 l 1,27,-1
 594 148 l 1,28,-1
 581 0 l 1,29,-1
 0 0 l 1,30,-1
 10 138 l 1,31,-1
 181 217 l 1,32,-1
 181 1003 l 1,33,-1
 4 1087 l 1,14,-1
EndSplineSet
Colour: ffffff
EndChar

StartChar: Ntilde
Encoding: 209 209 63
Width: 1403
VWidth: 0
Flags: HMW
LayerCount: 2
Fore
SplineSet
389 1397 m 1,0,1
 379 1475 379 1475 401 1529 c 128,-1,2
 423 1583 423 1583 450 1608 c 0,3,4
 512 1666 512 1666 612 1643 c 1,5,-1
 839 1594 l 2,6,7
 880 1585 880 1585 909 1647 c 1,8,-1
 1024 1636 l 1,9,10
 1023 1508 1023 1508 958 1442.5 c 128,-1,11
 893 1377 893 1377 776 1405 c 2,12,-1
 567 1454 l 2,13,14
 518 1466 518 1466 507 1391 c 1,15,-1
 389 1397 l 1,0,1
4 1087 m 1,16,-1
 18 1244 l 1,17,-1
 458 1244 l 1,18,-1
 990 532 l 1,19,-1
 990 1020 l 1,20,-1
 802 1094 l 1,21,-1
 826 1244 l 1,22,-1
 1403 1244 l 1,23,-1
 1378 1094 l 1,24,-1
 1210 1027 l 1,25,-1
 1210 15 l 1,26,-1
 927 -29 l 1,27,-1
 414 619 l 1,28,-1
 414 211 l 1,29,-1
 594 148 l 1,30,-1
 581 0 l 1,31,-1
 0 0 l 1,32,-1
 10 138 l 1,33,-1
 181 217 l 1,34,-1
 181 1003 l 1,35,-1
 4 1087 l 1,16,-1
EndSplineSet
Colour: ffffff
EndChar

StartChar: O
Encoding: 79 79 64
Width: 1462
VWidth: 0
Flags: HMW
LayerCount: 2
Fore
SplineSet
736 163 m 0,0,1
 998 163 998 163 998 573 c 0,2,3
 998 655 998 655 984 745 c 0,4,5
 961 890 961 890 895 992 c 128,-1,6
 829 1094 829 1094 700 1094 c 0,7,8
 448 1094 448 1094 448 671 c 0,9,10
 448 553 448 553 474 455 c 128,-1,11
 500 357 500 357 530 299.5 c 128,-1,12
 560 242 560 242 614 202.5 c 128,-1,13
 668 163 668 163 736 163 c 0,0,1
0 619 m 128,-1,15
 0 912 0 912 202.5 1090.5 c 128,-1,16
 405 1269 405 1269 753 1269 c 0,17,18
 1302 1269 1302 1269 1428 865 c 0,19,20
 1462 754 1462 754 1462 607 c 128,-1,21
 1462 460 1462 460 1402 338 c 0,22,23
 1342 216 1342 216 1236 136 c 0,24,25
 1018 -27 1018 -27 677.5 -27 c 128,-1,26
 337 -27 337 -27 168.5 149.5 c 128,-1,14
 0 326 0 326 0 619 c 128,-1,15
EndSplineSet
Colour: ffffff
EndChar

StartChar: OE
Encoding: 338 338 65
Width: 1832
VWidth: 0
Flags: HMW
LayerCount: 2
Fore
SplineSet
447 733.5 m 128,-1,1
 447 632 447 632 449 592 c 128,-1,2
 451 552 451 552 457 494 c 0,3,4
 468 390 468 390 511 292.5 c 128,-1,5
 554 195 554 195 640 195 c 0,6,7
 694 195 694 195 765 240 c 1,8,-1
 765 1058 l 1,9,10
 655 1104 655 1104 604.5 1104 c 128,-1,11
 554 1104 554 1104 520.5 1067.5 c 128,-1,12
 487 1031 487 1031 467 933 c 128,-1,0
 447 835 447 835 447 733.5 c 128,-1,1
0 619 m 0,13,14
 0 1004 0 1004 197 1156 c 0,15,16
 343 1269 343 1269 607 1269 c 0,17,18
 727 1269 727 1269 806 1241 c 1,19,-1
 1747 1244 l 1,20,-1
 1717 826 l 1,21,-1
 1546 852 l 1,22,-1
 1463 1072 l 1,23,-1
 1134 1072 l 1,24,-1
 1134 712 l 1,25,-1
 1570 749 l 1,26,-1
 1535 502 l 1,27,-1
 1320 522 l 1,28,-1
 1300 525 l 1,29,-1
 1134 540 l 1,30,-1
 1134 178 l 1,31,-1
 1521 180 l 1,32,-1
 1667 428 l 1,33,-1
 1832 411 l 1,34,-1
 1802 0 l 1,35,-1
 761 0 l 1,36,37
 665 -27 665 -27 536 -27 c 0,38,39
 258 -27 258 -27 129 138 c 128,-1,40
 0 303 0 303 0 619 c 0,13,14
EndSplineSet
Colour: ffffff
EndChar

StartChar: Oacute
Encoding: 211 211 66
Width: 1462
VWidth: 0
Flags: HMW
LayerCount: 2
Fore
SplineSet
635 1402 m 1,0,-1
 790 1727 l 1,1,-1
 1010 1713 l 1,2,-1
 779 1381 l 1,3,-1
 635 1402 l 1,0,-1
736 163 m 0,4,5
 998 163 998 163 998 573 c 0,6,7
 998 655 998 655 984 745 c 0,8,9
 961 890 961 890 895 992 c 128,-1,10
 829 1094 829 1094 700 1094 c 0,11,12
 448 1094 448 1094 448 671 c 0,13,14
 448 553 448 553 474 455 c 128,-1,15
 500 357 500 357 530 299.5 c 128,-1,16
 560 242 560 242 614 202.5 c 128,-1,17
 668 163 668 163 736 163 c 0,4,5
0 619 m 128,-1,19
 0 912 0 912 202.5 1090.5 c 128,-1,20
 405 1269 405 1269 753 1269 c 0,21,22
 1302 1269 1302 1269 1428 865 c 0,23,24
 1462 754 1462 754 1462 607 c 128,-1,25
 1462 460 1462 460 1402 338 c 0,26,27
 1342 216 1342 216 1236 136 c 0,28,29
 1018 -27 1018 -27 677.5 -27 c 128,-1,30
 337 -27 337 -27 168.5 149.5 c 128,-1,18
 0 326 0 326 0 619 c 128,-1,19
EndSplineSet
Colour: ffffff
EndChar

StartChar: Ocaron
Encoding: 465 465 67
Width: 1462
VWidth: 0
Flags: HMW
LayerCount: 2
Fore
SplineSet
434 1597 m 1,0,-1
 619 1634 l 1,1,-1
 732 1549 l 1,2,-1
 742 1549 l 1,3,-1
 838 1631 l 1,4,-1
 1010 1602 l 1,5,-1
 800 1401 l 1,6,-1
 642 1391 l 1,7,-1
 434 1597 l 1,0,-1
736 163 m 0,8,9
 998 163 998 163 998 573 c 0,10,11
 998 655 998 655 984 745 c 0,12,13
 961 890 961 890 895 992 c 128,-1,14
 829 1094 829 1094 700 1094 c 0,15,16
 448 1094 448 1094 448 671 c 0,17,18
 448 553 448 553 474 455 c 128,-1,19
 500 357 500 357 530 299.5 c 128,-1,20
 560 242 560 242 614 202.5 c 128,-1,21
 668 163 668 163 736 163 c 0,8,9
0 619 m 128,-1,23
 0 912 0 912 202.5 1090.5 c 128,-1,24
 405 1269 405 1269 753 1269 c 0,25,26
 1302 1269 1302 1269 1428 865 c 0,27,28
 1462 754 1462 754 1462 607 c 128,-1,29
 1462 460 1462 460 1402 338 c 0,30,31
 1342 216 1342 216 1236 136 c 0,32,33
 1018 -27 1018 -27 677.5 -27 c 128,-1,34
 337 -27 337 -27 168.5 149.5 c 128,-1,22
 0 326 0 326 0 619 c 128,-1,23
EndSplineSet
Colour: ffffff
EndChar

StartChar: Ocircumflex
Encoding: 212 212 68
Width: 1462
VWidth: 0
Flags: HMW
LayerCount: 2
Fore
SplineSet
462 1401 m 1,0,-1
 633 1596 l 1,1,-1
 810 1616 l 1,2,-1
 1014 1411 l 1,3,-1
 863 1352 l 1,4,-1
 724 1453 l 1,5,-1
 710 1453 l 1,6,-1
 607 1351 l 1,7,-1
 462 1401 l 1,0,-1
736 163 m 0,8,9
 998 163 998 163 998 573 c 0,10,11
 998 655 998 655 984 745 c 0,12,13
 961 890 961 890 895 992 c 128,-1,14
 829 1094 829 1094 700 1094 c 0,15,16
 448 1094 448 1094 448 671 c 0,17,18
 448 553 448 553 474 455 c 128,-1,19
 500 357 500 357 530 299.5 c 128,-1,20
 560 242 560 242 614 202.5 c 128,-1,21
 668 163 668 163 736 163 c 0,8,9
0 619 m 128,-1,23
 0 912 0 912 202.5 1090.5 c 128,-1,24
 405 1269 405 1269 753 1269 c 0,25,26
 1302 1269 1302 1269 1428 865 c 0,27,28
 1462 754 1462 754 1462 607 c 128,-1,29
 1462 460 1462 460 1402 338 c 0,30,31
 1342 216 1342 216 1236 136 c 0,32,33
 1018 -27 1018 -27 677.5 -27 c 128,-1,34
 337 -27 337 -27 168.5 149.5 c 128,-1,22
 0 326 0 326 0 619 c 128,-1,23
EndSplineSet
Colour: ffffff
EndChar

StartChar: Odieresis
Encoding: 214 214 69
Width: 1462
VWidth: 0
Flags: HMW
LayerCount: 2
Fore
SplineSet
763 1498 m 0,0,1
 763 1537 763 1537 784 1561 c 0,2,3
 823 1605 823 1605 901 1605 c 0,4,5
 1011 1605 1011 1605 1038 1536 c 0,6,7
 1045 1519 1045 1519 1044 1500 c 0,8,9
 1044 1391 1044 1391 903.5 1391 c 128,-1,10
 763 1391 763 1391 763 1498 c 0,0,1
454 1498 m 0,11,12
 454 1537 454 1537 475 1561 c 0,13,14
 514 1605 514 1605 592 1605 c 0,15,16
 702 1605 702 1605 729 1536 c 0,17,18
 736 1519 736 1519 735 1500 c 0,19,20
 735 1391 735 1391 594.5 1391 c 128,-1,21
 454 1391 454 1391 454 1498 c 0,11,12
736 163 m 0,22,23
 998 163 998 163 998 573 c 0,24,25
 998 655 998 655 984 745 c 0,26,27
 961 890 961 890 895 992 c 128,-1,28
 829 1094 829 1094 700 1094 c 0,29,30
 448 1094 448 1094 448 671 c 0,31,32
 448 553 448 553 474 455 c 128,-1,33
 500 357 500 357 530 299.5 c 128,-1,34
 560 242 560 242 614 202.5 c 128,-1,35
 668 163 668 163 736 163 c 0,22,23
0 619 m 128,-1,37
 0 912 0 912 202.5 1090.5 c 128,-1,38
 405 1269 405 1269 753 1269 c 0,39,40
 1302 1269 1302 1269 1428 865 c 0,41,42
 1462 754 1462 754 1462 607 c 128,-1,43
 1462 460 1462 460 1402 338 c 0,44,45
 1342 216 1342 216 1236 136 c 0,46,47
 1018 -27 1018 -27 677.5 -27 c 128,-1,48
 337 -27 337 -27 168.5 149.5 c 128,-1,36
 0 326 0 326 0 619 c 128,-1,37
EndSplineSet
Colour: ffffff
EndChar

StartChar: Ograve
Encoding: 210 210 70
Width: 1462
VWidth: 0
Flags: HMW
LayerCount: 2
Fore
SplineSet
484 1730 m 1,0,-1
 702 1770 l 1,1,-1
 852 1422 l 1,2,-1
 693 1391 l 1,3,-1
 484 1730 l 1,0,-1
736 163 m 0,4,5
 998 163 998 163 998 573 c 0,6,7
 998 655 998 655 984 745 c 0,8,9
 961 890 961 890 895 992 c 128,-1,10
 829 1094 829 1094 700 1094 c 0,11,12
 448 1094 448 1094 448 671 c 0,13,14
 448 553 448 553 474 455 c 128,-1,15
 500 357 500 357 530 299.5 c 128,-1,16
 560 242 560 242 614 202.5 c 128,-1,17
 668 163 668 163 736 163 c 0,4,5
0 619 m 128,-1,19
 0 912 0 912 202.5 1090.5 c 128,-1,20
 405 1269 405 1269 753 1269 c 0,21,22
 1302 1269 1302 1269 1428 865 c 0,23,24
 1462 754 1462 754 1462 607 c 128,-1,25
 1462 460 1462 460 1402 338 c 0,26,27
 1342 216 1342 216 1236 136 c 0,28,29
 1018 -27 1018 -27 677.5 -27 c 128,-1,30
 337 -27 337 -27 168.5 149.5 c 128,-1,18
 0 326 0 326 0 619 c 128,-1,19
EndSplineSet
Colour: ffffff
EndChar

StartChar: Ohungarumlaut
Encoding: 336 336 71
Width: 1462
VWidth: 0
Flags: HMW
LayerCount: 2
Fore
SplineSet
669 1430 m 1,0,-1
 927 1682 l 1,1,-1
 1136 1654 l 1,2,-1
 804 1391 l 1,3,-1
 669 1430 l 1,0,-1
391 1430 m 1,4,-1
 670 1685 l 1,5,-1
 875 1661 l 1,6,-1
 530 1391 l 1,7,-1
 391 1430 l 1,4,-1
736 163 m 0,8,9
 998 163 998 163 998 573 c 0,10,11
 998 655 998 655 984 745 c 0,12,13
 961 890 961 890 895 992 c 128,-1,14
 829 1094 829 1094 700 1094 c 0,15,16
 448 1094 448 1094 448 671 c 0,17,18
 448 553 448 553 474 455 c 128,-1,19
 500 357 500 357 530 299.5 c 128,-1,20
 560 242 560 242 614 202.5 c 128,-1,21
 668 163 668 163 736 163 c 0,8,9
0 619 m 128,-1,23
 0 912 0 912 202.5 1090.5 c 128,-1,24
 405 1269 405 1269 753 1269 c 0,25,26
 1302 1269 1302 1269 1428 865 c 0,27,28
 1462 754 1462 754 1462 607 c 128,-1,29
 1462 460 1462 460 1402 338 c 0,30,31
 1342 216 1342 216 1236 136 c 0,32,33
 1018 -27 1018 -27 677.5 -27 c 128,-1,34
 337 -27 337 -27 168.5 149.5 c 128,-1,22
 0 326 0 326 0 619 c 128,-1,23
EndSplineSet
Colour: ffffff
EndChar

StartChar: Omacron
Encoding: 332 332 72
Width: 1462
VWidth: 0
Flags: HMW
LayerCount: 2
Fore
SplineSet
476 1391 m 1,0,-1
 497 1586 l 1,1,-1
 950 1586 l 1,2,-1
 928 1391 l 1,3,-1
 476 1391 l 1,0,-1
736 163 m 0,4,5
 998 163 998 163 998 573 c 0,6,7
 998 655 998 655 984 745 c 0,8,9
 961 890 961 890 895 992 c 128,-1,10
 829 1094 829 1094 700 1094 c 0,11,12
 448 1094 448 1094 448 671 c 0,13,14
 448 553 448 553 474 455 c 128,-1,15
 500 357 500 357 530 299.5 c 128,-1,16
 560 242 560 242 614 202.5 c 128,-1,17
 668 163 668 163 736 163 c 0,4,5
0 619 m 128,-1,19
 0 912 0 912 202.5 1090.5 c 128,-1,20
 405 1269 405 1269 753 1269 c 0,21,22
 1302 1269 1302 1269 1428 865 c 0,23,24
 1462 754 1462 754 1462 607 c 128,-1,25
 1462 460 1462 460 1402 338 c 0,26,27
 1342 216 1342 216 1236 136 c 0,28,29
 1018 -27 1018 -27 677.5 -27 c 128,-1,30
 337 -27 337 -27 168.5 149.5 c 128,-1,18
 0 326 0 326 0 619 c 128,-1,19
EndSplineSet
Colour: ffffff
EndChar

StartChar: Oslash
Encoding: 216 216 73
Width: 1462
VWidth: 0
Flags: HMW
LayerCount: 2
Fore
SplineSet
753 1269 m 0,0,1
 949 1269 949 1269 1093 1216 c 1,2,-1
 1163 1282 l 1,3,-1
 1406 1231 l 1,4,-1
 1282 1104 l 1,5,6
 1462 938 1462 938 1462 613 c 0,7,8
 1462 460 1462 460 1402 338 c 0,9,10
 1342 216 1342 216 1236 136 c 0,11,12
 1018 -27 1018 -27 683 -27 c 0,13,14
 472 -27 472 -27 322 43 c 1,15,-1
 266 -19 l 1,16,-1
 20 44 l 1,17,-1
 142 178 l 1,18,19
 -2 344 -2 344 -1 628 c 128,-1,20
 0 912 0 912 202.5 1090.5 c 128,-1,21
 405 1269 405 1269 753 1269 c 0,0,1
998 573 m 0,22,23
 998 723 998 723 960 851 c 1,24,-1
 525 309 l 1,25,26
 601 163 601 163 736 163 c 0,27,28
 998 163 998 163 998 573 c 0,22,23
708 1094 m 128,-1,30
 570 1094 570 1094 509 985.5 c 128,-1,31
 448 877 448 877 448 706 c 128,-1,32
 448 535 448 535 486 410 c 1,33,-1
 922 946 l 1,34,29
 846 1094 846 1094 708 1094 c 128,-1,30
EndSplineSet
Colour: ffffff
EndChar

StartChar: Otilde
Encoding: 213 213 74
Width: 1462
VWidth: 0
Flags: HMW
LayerCount: 2
Fore
SplineSet
411 1397 m 1,0,1
 401 1475 401 1475 423 1529 c 128,-1,2
 445 1583 445 1583 472 1608 c 0,3,4
 534 1666 534 1666 634 1643 c 1,5,-1
 861 1594 l 2,6,7
 902 1585 902 1585 931 1647 c 1,8,-1
 1046 1636 l 1,9,10
 1045 1508 1045 1508 980.5 1442.5 c 128,-1,11
 916 1377 916 1377 798 1405 c 2,12,-1
 589 1454 l 2,13,14
 540 1466 540 1466 529 1391 c 1,15,-1
 411 1397 l 1,0,1
736 163 m 0,16,17
 998 163 998 163 998 573 c 0,18,19
 998 655 998 655 984 745 c 0,20,21
 961 890 961 890 895 992 c 128,-1,22
 829 1094 829 1094 700 1094 c 0,23,24
 448 1094 448 1094 448 671 c 0,25,26
 448 553 448 553 474 455 c 128,-1,27
 500 357 500 357 530 299.5 c 128,-1,28
 560 242 560 242 614 202.5 c 128,-1,29
 668 163 668 163 736 163 c 0,16,17
0 619 m 128,-1,31
 0 912 0 912 202.5 1090.5 c 128,-1,32
 405 1269 405 1269 753 1269 c 0,33,34
 1302 1269 1302 1269 1428 865 c 0,35,36
 1462 754 1462 754 1462 607 c 128,-1,37
 1462 460 1462 460 1402 338 c 0,38,39
 1342 216 1342 216 1236 136 c 0,40,41
 1018 -27 1018 -27 677.5 -27 c 128,-1,42
 337 -27 337 -27 168.5 149.5 c 128,-1,30
 0 326 0 326 0 619 c 128,-1,31
EndSplineSet
Colour: ffffff
EndChar

StartChar: P
Encoding: 80 80 75
Width: 1195
VWidth: 0
Flags: HMW
LayerCount: 2
Fore
SplineSet
596 1267 m 128,-1,1
 800 1267 800 1267 891.5 1247.5 c 128,-1,2
 983 1228 983 1228 1053 1184 c 0,3,4
 1195 1095 1195 1095 1195 878 c 0,5,6
 1195 694 1195 694 1056.5 568.5 c 128,-1,7
 918 443 918 443 698 443 c 0,8,9
 664 443 664 443 617 448 c 1,10,-1
 585 622 l 1,11,-1
 606 622 l 2,12,13
 714 622 714 622 769.5 678.5 c 128,-1,14
 825 735 825 735 825 831 c 128,-1,15
 825 927 825 927 775 990.5 c 128,-1,16
 725 1054 725 1054 630 1054 c 0,17,18
 603 1054 603 1054 563 1047 c 1,19,-1
 563 233 l 1,20,-1
 814 164 l 1,21,-1
 790 0 l 1,22,-1
 0 0 l 1,23,-1
 22 138 l 1,24,-1
 209 217 l 1,25,-1
 209 1008 l 1,26,-1
 19 1052 l 1,27,-1
 32 1211 l 1,28,0
 392 1267 392 1267 596 1267 c 128,-1,1
EndSplineSet
Colour: ffffff
EndChar

StartChar: Q
Encoding: 81 81 76
Width: 1451
VWidth: 0
Flags: HMW
LayerCount: 2
Fore
SplineSet
435 671 m 0,0,1
 435 490 435 490 527 338 c 0,2,3
 572 264 572 264 645.5 212.5 c 128,-1,4
 719 161 719 161 811 148 c 1,5,6
 921 204 921 204 961 306.5 c 128,-1,7
 1001 409 1001 409 1001 573 c 0,8,9
 1001 845 1001 845 889 999 c 0,10,11
 820 1094 820 1094 697 1094 c 0,12,13
 435 1094 435 1094 435 671 c 0,0,1
0 609 m 0,14,15
 0 752 0 752 55 874.5 c 128,-1,16
 110 997 110 997 208 1084 c 128,-1,17
 306 1171 306 1171 447 1220 c 128,-1,18
 588 1269 588 1269 751 1269 c 0,19,20
 1072 1269 1072 1269 1261.5 1114 c 128,-1,21
 1451 959 1451 959 1451 623 c 0,22,23
 1451 394 1451 394 1315 232.5 c 128,-1,24
 1179 71 1179 71 993 16 c 1,25,26
 1075 -133 1075 -133 1428 -200 c 1,27,-1
 1407 -335 l 1,28,29
 1265 -383 1265 -383 1149.5 -383 c 128,-1,30
 1034 -383 1034 -383 959.5 -362.5 c 128,-1,31
 885 -342 885 -342 826.5 -301 c 128,-1,32
 768 -260 768 -260 740 -189 c 128,-1,33
 712 -118 712 -118 724 -26 c 1,34,35
 707 -27 707 -27 685 -27 c 0,36,37
 356 -27 356 -27 178 147 c 128,-1,38
 0 321 0 321 0 609 c 0,14,15
EndSplineSet
Colour: ffffff
EndChar

StartChar: R
Encoding: 82 82 77
Width: 1456
VWidth: 0
Flags: HMW
LayerCount: 2
Fore
SplineSet
851 860 m 0,0,1
 851 949 851 949 784.5 1012 c 128,-1,2
 718 1075 718 1075 612 1075 c 0,3,4
 590 1075 590 1075 579 1074 c 1,5,-1
 579 668 l 1,6,-1
 732 668 l 1,7,8
 851 733 851 733 851 860 c 0,0,1
666 1255 m 0,9,10
 963 1255 963 1255 1107.5 1175.5 c 128,-1,11
 1252 1096 1252 1096 1252 913 c 128,-1,12
 1252 730 1252 730 1066 607 c 0,13,14
 1020 577 1020 577 976 562 c 1,15,-1
 976 561 l 1,16,-1
 1097 400 l 2,17,18
 1225 230 1225 230 1318 179 c 0,19,20
 1364 154 1364 154 1417 142 c 2,21,-1
 1456 133 l 1,22,-1
 1425 2 l 1,23,24
 1329 -27 1329 -27 1208 -27 c 0,25,26
 1035 -27 1035 -27 927.5 52 c 128,-1,27
 820 131 820 131 743 283 c 2,28,-1
 653 459 l 1,29,-1
 579 459 l 1,30,-1
 579 229 l 1,31,-1
 722 155 l 1,32,-1
 710 0 l 1,33,-1
 0 0 l 1,34,-1
 19 138 l 1,35,-1
 209 217 l 1,36,-1
 209 996 l 1,37,-1
 17 1043 l 1,38,-1
 29 1203 l 1,39,40
 140 1221 140 1221 348.5 1238 c 128,-1,41
 557 1255 557 1255 666 1255 c 0,9,10
EndSplineSet
Colour: ffffff
EndChar

StartChar: Racute
Encoding: 340 340 78
Width: 1456
VWidth: 0
Flags: HMW
LayerCount: 2
Fore
SplineSet
528 1402 m 1,0,-1
 683 1727 l 1,1,-1
 903 1713 l 1,2,-1
 672 1381 l 1,3,-1
 528 1402 l 1,0,-1
851 860 m 0,4,5
 851 949 851 949 784.5 1012 c 128,-1,6
 718 1075 718 1075 612 1075 c 0,7,8
 590 1075 590 1075 579 1074 c 1,9,-1
 579 668 l 1,10,-1
 732 668 l 1,11,12
 851 733 851 733 851 860 c 0,4,5
666 1255 m 0,13,14
 963 1255 963 1255 1107.5 1175.5 c 128,-1,15
 1252 1096 1252 1096 1252 913 c 128,-1,16
 1252 730 1252 730 1066 607 c 0,17,18
 1020 577 1020 577 976 562 c 1,19,-1
 976 561 l 1,20,-1
 1097 400 l 2,21,22
 1225 230 1225 230 1318 179 c 0,23,24
 1364 154 1364 154 1417 142 c 2,25,-1
 1456 133 l 1,26,-1
 1425 2 l 1,27,28
 1329 -27 1329 -27 1208 -27 c 0,29,30
 1035 -27 1035 -27 927.5 52 c 128,-1,31
 820 131 820 131 743 283 c 2,32,-1
 653 459 l 1,33,-1
 579 459 l 1,34,-1
 579 229 l 1,35,-1
 722 155 l 1,36,-1
 710 0 l 1,37,-1
 0 0 l 1,38,-1
 19 138 l 1,39,-1
 209 217 l 1,40,-1
 209 996 l 1,41,-1
 17 1043 l 1,42,-1
 29 1203 l 1,43,44
 140 1221 140 1221 348.5 1238 c 128,-1,45
 557 1255 557 1255 666 1255 c 0,13,14
EndSplineSet
Colour: ffffff
EndChar

StartChar: Rcaron
Encoding: 344 344 79
Width: 1456
VWidth: 0
Flags: HMW
LayerCount: 2
Fore
SplineSet
417 1597 m 1,0,-1
 602 1634 l 1,1,-1
 715 1549 l 1,2,-1
 725 1549 l 1,3,-1
 821 1631 l 1,4,-1
 993 1602 l 1,5,-1
 783 1401 l 1,6,-1
 625 1391 l 1,7,-1
 417 1597 l 1,0,-1
851 860 m 0,8,9
 851 949 851 949 784.5 1012 c 128,-1,10
 718 1075 718 1075 612 1075 c 0,11,12
 590 1075 590 1075 579 1074 c 1,13,-1
 579 668 l 1,14,-1
 732 668 l 1,15,16
 851 733 851 733 851 860 c 0,8,9
666 1255 m 0,17,18
 963 1255 963 1255 1107.5 1175.5 c 128,-1,19
 1252 1096 1252 1096 1252 913 c 128,-1,20
 1252 730 1252 730 1066 607 c 0,21,22
 1020 577 1020 577 976 562 c 1,23,-1
 976 561 l 1,24,-1
 1097 400 l 2,25,26
 1225 230 1225 230 1318 179 c 0,27,28
 1364 154 1364 154 1417 142 c 2,29,-1
 1456 133 l 1,30,-1
 1425 2 l 1,31,32
 1329 -27 1329 -27 1208 -27 c 0,33,34
 1035 -27 1035 -27 927.5 52 c 128,-1,35
 820 131 820 131 743 283 c 2,36,-1
 653 459 l 1,37,-1
 579 459 l 1,38,-1
 579 229 l 1,39,-1
 722 155 l 1,40,-1
 710 0 l 1,41,-1
 0 0 l 1,42,-1
 19 138 l 1,43,-1
 209 217 l 1,44,-1
 209 996 l 1,45,-1
 17 1043 l 1,46,-1
 29 1203 l 1,47,48
 140 1221 140 1221 348.5 1238 c 128,-1,49
 557 1255 557 1255 666 1255 c 0,17,18
EndSplineSet
Colour: ffffff
EndChar

StartChar: Rcommaaccent
Encoding: 342 342 80
Width: 1456
VWidth: 0
Flags: HMW
LayerCount: 2
Fore
SplineSet
828 -85 m 0,0,1
 904 -85 904 -85 950 -120 c 128,-1,2
 996 -155 996 -155 996 -217 c 128,-1,3
 996 -279 996 -279 945 -321 c 0,4,5
 846 -401 846 -401 654 -390 c 1,6,-1
 632 -330 l 1,7,8
 672 -324 672 -324 706 -306 c 128,-1,9
 740 -288 740 -288 740 -267.5 c 128,-1,10
 740 -247 740 -247 704 -232 c 0,11,12
 670 -217 670 -217 628 -211 c 1,13,14
 650 -85 650 -85 828 -85 c 0,0,1
851 860 m 0,15,16
 851 949 851 949 784.5 1012 c 128,-1,17
 718 1075 718 1075 612 1075 c 0,18,19
 590 1075 590 1075 579 1074 c 1,20,-1
 579 668 l 1,21,-1
 732 668 l 1,22,23
 851 733 851 733 851 860 c 0,15,16
666 1255 m 0,24,25
 963 1255 963 1255 1107.5 1175.5 c 128,-1,26
 1252 1096 1252 1096 1252 913 c 128,-1,27
 1252 730 1252 730 1066 607 c 0,28,29
 1020 577 1020 577 976 562 c 1,30,-1
 976 561 l 1,31,-1
 1097 400 l 2,32,33
 1225 230 1225 230 1318 179 c 0,34,35
 1364 154 1364 154 1417 142 c 2,36,-1
 1456 133 l 1,37,-1
 1425 2 l 1,38,39
 1329 -27 1329 -27 1208 -27 c 0,40,41
 1035 -27 1035 -27 927.5 52 c 128,-1,42
 820 131 820 131 743 283 c 2,43,-1
 653 459 l 1,44,-1
 579 459 l 1,45,-1
 579 229 l 1,46,-1
 722 155 l 1,47,-1
 710 0 l 1,48,-1
 0 0 l 1,49,-1
 19 138 l 1,50,-1
 209 217 l 1,51,-1
 209 996 l 1,52,-1
 17 1043 l 1,53,-1
 29 1203 l 1,54,55
 140 1221 140 1221 348.5 1238 c 128,-1,56
 557 1255 557 1255 666 1255 c 0,24,25
EndSplineSet
Colour: ffffff
EndChar

StartChar: S
Encoding: 83 83 81
Width: 969
VWidth: 0
Flags: HMW
LayerCount: 2
Fore
SplineSet
472.5 181 m 128,-1,1
 535 181 535 181 570 210.5 c 128,-1,2
 605 240 605 240 605 280 c 128,-1,3
 605 320 605 320 572 351.5 c 0,4,5
 538 383 538 383 486 407 c 0,6,7
 434 432 434 432 370 456 c 0,8,9
 222 512 222 512 126 591 c 0,10,11
 8 688 8 688 8 857 c 0,12,13
 8 1094 8 1094 246 1204 c 0,14,15
 378 1266 378 1266 548 1266 c 0,16,17
 634 1266 634 1266 750 1238.5 c 128,-1,18
 866 1211 866 1211 902 1176 c 1,19,-1
 874 814 l 1,20,-1
 701 844 l 1,21,-1
 662 987 l 1,22,23
 630 1033 630 1033 569 1059.5 c 128,-1,24
 508 1086 508 1086 451.5 1086 c 128,-1,25
 395 1086 395 1086 368 1060 c 128,-1,26
 341 1034 341 1034 341 992.5 c 128,-1,27
 341 951 341 951 377.5 917.5 c 128,-1,28
 414 884 414 884 472 857.5 c 128,-1,29
 530 831 530 831 600 802.5 c 128,-1,30
 670 774 670 774 740 736.5 c 128,-1,31
 810 699 810 699 868 653 c 128,-1,32
 926 607 926 607 962.5 537 c 0,33,34
 999 468 999 468 999 380 c 0,35,36
 1000 292 1000 292 960 220 c 0,37,38
 892 94 892 94 741 35.5 c 128,-1,39
 590 -23 590 -23 437.5 -23 c 128,-1,40
 285 -23 285 -23 163.5 19 c 128,-1,41
 42 61 42 61 0 126 c 1,42,-1
 34 488 l 1,43,-1
 211 459 l 1,44,-1
 253 272 l 1,45,46
 283 229 283 229 346.5 205 c 128,-1,0
 410 181 410 181 472.5 181 c 128,-1,1
EndSplineSet
Colour: ffffff
EndChar

StartChar: Sacute
Encoding: 346 346 82
Width: 969
VWidth: 0
Flags: HMW
LayerCount: 2
Fore
SplineSet
410 1402 m 1,0,-1
 565 1727 l 1,1,-1
 785 1713 l 1,2,-1
 554 1381 l 1,3,-1
 410 1402 l 1,0,-1
472.5 181 m 128,-1,5
 535 181 535 181 570 210.5 c 128,-1,6
 605 240 605 240 605 280 c 128,-1,7
 605 320 605 320 572 351.5 c 0,8,9
 538 383 538 383 486 407 c 0,10,11
 434 432 434 432 370 456 c 0,12,13
 222 512 222 512 126 591 c 0,14,15
 8 688 8 688 8 857 c 0,16,17
 8 1094 8 1094 246 1204 c 0,18,19
 378 1266 378 1266 548 1266 c 0,20,21
 634 1266 634 1266 750 1238.5 c 128,-1,22
 866 1211 866 1211 902 1176 c 1,23,-1
 874 814 l 1,24,-1
 701 844 l 1,25,-1
 662 987 l 1,26,27
 630 1033 630 1033 569 1059.5 c 128,-1,28
 508 1086 508 1086 451.5 1086 c 128,-1,29
 395 1086 395 1086 368 1060 c 128,-1,30
 341 1034 341 1034 341 992.5 c 128,-1,31
 341 951 341 951 377.5 917.5 c 128,-1,32
 414 884 414 884 472 857.5 c 128,-1,33
 530 831 530 831 600 802.5 c 128,-1,34
 670 774 670 774 740 736.5 c 128,-1,35
 810 699 810 699 868 653 c 128,-1,36
 926 607 926 607 962.5 537 c 0,37,38
 999 468 999 468 999 380 c 0,39,40
 1000 292 1000 292 960 220 c 0,41,42
 892 94 892 94 741 35.5 c 128,-1,43
 590 -23 590 -23 437.5 -23 c 128,-1,44
 285 -23 285 -23 163.5 19 c 128,-1,45
 42 61 42 61 0 126 c 1,46,-1
 34 488 l 1,47,-1
 211 459 l 1,48,-1
 253 272 l 1,49,50
 283 229 283 229 346.5 205 c 128,-1,4
 410 181 410 181 472.5 181 c 128,-1,5
EndSplineSet
Colour: ffffff
EndChar

StartChar: Scaron
Encoding: 352 352 83
Width: 969
VWidth: 0
Flags: HMW
LayerCount: 2
Fore
SplineSet
219 1597 m 1,0,-1
 404 1634 l 1,1,-1
 517 1549 l 1,2,-1
 527 1549 l 1,3,-1
 623 1631 l 1,4,-1
 795 1602 l 1,5,-1
 585 1401 l 1,6,-1
 427 1391 l 1,7,-1
 219 1597 l 1,0,-1
472.5 181 m 128,-1,9
 535 181 535 181 570 210.5 c 128,-1,10
 605 240 605 240 605 280 c 128,-1,11
 605 320 605 320 572 351.5 c 0,12,13
 538 383 538 383 486 407 c 0,14,15
 434 432 434 432 370 456 c 0,16,17
 222 512 222 512 126 591 c 0,18,19
 8 688 8 688 8 857 c 0,20,21
 8 1094 8 1094 246 1204 c 0,22,23
 378 1266 378 1266 548 1266 c 0,24,25
 634 1266 634 1266 750 1238.5 c 128,-1,26
 866 1211 866 1211 902 1176 c 1,27,-1
 874 814 l 1,28,-1
 701 844 l 1,29,-1
 662 987 l 1,30,31
 630 1033 630 1033 569 1059.5 c 128,-1,32
 508 1086 508 1086 451.5 1086 c 128,-1,33
 395 1086 395 1086 368 1060 c 128,-1,34
 341 1034 341 1034 341 992.5 c 128,-1,35
 341 951 341 951 377.5 917.5 c 128,-1,36
 414 884 414 884 472 857.5 c 128,-1,37
 530 831 530 831 600 802.5 c 128,-1,38
 670 774 670 774 740 736.5 c 128,-1,39
 810 699 810 699 868 653 c 128,-1,40
 926 607 926 607 962.5 537 c 0,41,42
 999 468 999 468 999 380 c 0,43,44
 1000 292 1000 292 960 220 c 0,45,46
 892 94 892 94 741 35.5 c 128,-1,47
 590 -23 590 -23 437.5 -23 c 128,-1,48
 285 -23 285 -23 163.5 19 c 128,-1,49
 42 61 42 61 0 126 c 1,50,-1
 34 488 l 1,51,-1
 211 459 l 1,52,-1
 253 272 l 1,53,54
 283 229 283 229 346.5 205 c 128,-1,8
 410 181 410 181 472.5 181 c 128,-1,9
EndSplineSet
Colour: ffffff
EndChar

StartChar: Scedilla
Encoding: 350 350 84
Width: 969
VWidth: 0
Flags: HMW
LayerCount: 2
Fore
SplineSet
705 -227 m 0,0,1
 705 -283 705 -283 671 -318 c 0,2,3
 601 -389 601 -389 341 -389 c 1,4,-1
 305 -301 l 1,5,6
 363 -300 363 -300 402.5 -280.5 c 128,-1,7
 442 -261 442 -261 442 -237 c 0,8,9
 442 -198 442 -198 286 -145 c 1,10,-1
 442 -23 l 1,11,12
 278 -22 278 -22 159.5 20 c 128,-1,13
 41 62 41 62 0 126 c 1,14,-1
 34 488 l 1,15,-1
 211 459 l 1,16,-1
 253 272 l 1,17,18
 283 229 283 229 346.5 205 c 128,-1,19
 410 181 410 181 472.5 181 c 128,-1,20
 535 181 535 181 570 210.5 c 128,-1,21
 605 240 605 240 605 280 c 128,-1,22
 605 320 605 320 572 351.5 c 0,23,24
 538 383 538 383 486 407 c 0,25,26
 434 432 434 432 370 456 c 0,27,28
 222 512 222 512 126 591 c 0,29,30
 8 688 8 688 8 857 c 0,31,32
 8 1094 8 1094 246 1204 c 0,33,34
 378 1266 378 1266 548 1266 c 0,35,36
 634 1266 634 1266 750 1238.5 c 128,-1,37
 866 1211 866 1211 902 1176 c 1,38,-1
 874 814 l 1,39,-1
 701 844 l 1,40,-1
 662 987 l 1,41,42
 630 1033 630 1033 569 1059.5 c 128,-1,43
 508 1086 508 1086 451.5 1086 c 128,-1,44
 395 1086 395 1086 368 1060 c 128,-1,45
 341 1034 341 1034 341 992.5 c 128,-1,46
 341 951 341 951 377.5 917.5 c 128,-1,47
 414 884 414 884 472 857.5 c 128,-1,48
 530 831 530 831 600 802.5 c 128,-1,49
 670 774 670 774 740 736.5 c 128,-1,50
 810 699 810 699 868 653 c 128,-1,51
 926 607 926 607 962.5 537 c 128,-1,52
 999 467 999 467 999 391.5 c 128,-1,53
 999 316 999 316 978 260 c 0,54,55
 940 158 940 158 848.5 95 c 128,-1,56
 757 32 757 32 641 2 c 1,57,-1
 648 2 l 1,58,-1
 530 -84 l 1,59,60
 705 -99 705 -99 705 -227 c 0,0,1
EndSplineSet
Colour: ffffff
EndChar

StartChar: Scommaaccent
Encoding: 536 536 85
Width: 969
VWidth: 0
Flags: HMW
LayerCount: 2
Fore
SplineSet
472 -145 m 0,0,1
 548 -145 548 -145 594 -180 c 128,-1,2
 640 -215 640 -215 640 -277 c 128,-1,3
 640 -339 640 -339 589 -381 c 0,4,5
 490 -461 490 -461 298 -450 c 1,6,-1
 276 -390 l 1,7,8
 316 -384 316 -384 350 -366 c 128,-1,9
 384 -348 384 -348 384 -327.5 c 128,-1,10
 384 -307 384 -307 348 -292 c 0,11,12
 314 -277 314 -277 272 -271 c 1,13,14
 294 -145 294 -145 472 -145 c 0,0,1
472.5 181 m 128,-1,16
 535 181 535 181 570 210.5 c 128,-1,17
 605 240 605 240 605 280 c 128,-1,18
 605 320 605 320 572 351.5 c 0,19,20
 538 383 538 383 486 407 c 0,21,22
 434 432 434 432 370 456 c 0,23,24
 222 512 222 512 126 591 c 0,25,26
 8 688 8 688 8 857 c 0,27,28
 8 1094 8 1094 246 1204 c 0,29,30
 378 1266 378 1266 548 1266 c 0,31,32
 634 1266 634 1266 750 1238.5 c 128,-1,33
 866 1211 866 1211 902 1176 c 1,34,-1
 874 814 l 1,35,-1
 701 844 l 1,36,-1
 662 987 l 1,37,38
 630 1033 630 1033 569 1059.5 c 128,-1,39
 508 1086 508 1086 451.5 1086 c 128,-1,40
 395 1086 395 1086 368 1060 c 128,-1,41
 341 1034 341 1034 341 992.5 c 128,-1,42
 341 951 341 951 377.5 917.5 c 128,-1,43
 414 884 414 884 472 857.5 c 128,-1,44
 530 831 530 831 600 802.5 c 128,-1,45
 670 774 670 774 740 736.5 c 128,-1,46
 810 699 810 699 868 653 c 128,-1,47
 926 607 926 607 962.5 537 c 0,48,49
 999 468 999 468 999 380 c 0,50,51
 1000 292 1000 292 960 220 c 0,52,53
 892 94 892 94 741 35.5 c 128,-1,54
 590 -23 590 -23 437.5 -23 c 128,-1,55
 285 -23 285 -23 163.5 19 c 128,-1,56
 42 61 42 61 0 126 c 1,57,-1
 34 488 l 1,58,-1
 211 459 l 1,59,-1
 253 272 l 1,60,61
 283 229 283 229 346.5 205 c 128,-1,15
 410 181 410 181 472.5 181 c 128,-1,16
EndSplineSet
Colour: ffffff
EndChar

StartChar: T
Encoding: 84 84 86
Width: 1264
VWidth: 0
Flags: HMW
LayerCount: 2
Fore
SplineSet
801 1072 m 1,0,-1
 801 208 l 1,1,-1
 1003 153 l 1,2,-1
 987 0 l 1,3,-1
 250 0 l 1,4,-1
 263 140 l 1,5,-1
 440 209 l 1,6,-1
 440 1072 l 1,7,-1
 260 1072 l 1,8,-1
 173 786 l 1,9,-1
 3 812 l 1,10,-1
 0 1244 l 1,11,-1
 1264 1244 l 1,12,-1
 1232 796 l 1,13,-1
 1049 827 l 1,14,-1
 985 1072 l 1,15,-1
 801 1072 l 1,0,-1
EndSplineSet
Colour: ffffff
EndChar

StartChar: Tbar
Encoding: 358 358 87
Width: 1264
VWidth: 0
Flags: HMW
LayerCount: 2
Fore
SplineSet
801 1072 m 1,0,-1
 801 208 l 1,1,-1
 1003 153 l 1,2,-1
 987 0 l 1,3,-1
 250 0 l 1,4,-1
 263 140 l 1,5,-1
 440 209 l 1,6,-1
 440 1072 l 1,7,-1
 260 1072 l 1,8,-1
 173 786 l 1,9,-1
 3 812 l 1,10,-1
 0 1244 l 1,11,-1
 1264 1244 l 1,12,-1
 1232 796 l 1,13,-1
 1049 827 l 1,14,-1
 985 1072 l 1,15,-1
 801 1072 l 1,0,-1
EndSplineSet
Colour: ffffff
EndChar

StartChar: Tcaron
Encoding: 356 356 88
Width: 1264
VWidth: 0
Flags: HMW
LayerCount: 2
Fore
SplineSet
343 1597 m 1,0,-1
 528 1634 l 1,1,-1
 641 1549 l 1,2,-1
 651 1549 l 1,3,-1
 747 1631 l 1,4,-1
 919 1602 l 1,5,-1
 709 1401 l 1,6,-1
 551 1391 l 1,7,-1
 343 1597 l 1,0,-1
801 1072 m 1,8,-1
 801 208 l 1,9,-1
 1003 153 l 1,10,-1
 987 0 l 1,11,-1
 250 0 l 1,12,-1
 263 140 l 1,13,-1
 440 209 l 1,14,-1
 440 1072 l 1,15,-1
 260 1072 l 1,16,-1
 173 786 l 1,17,-1
 3 812 l 1,18,-1
 0 1244 l 1,19,-1
 1264 1244 l 1,20,-1
 1232 796 l 1,21,-1
 1049 827 l 1,22,-1
 985 1072 l 1,23,-1
 801 1072 l 1,8,-1
EndSplineSet
Colour: ffffff
EndChar

StartChar: Tcedilla
Encoding: 354 354 89
Width: 1264
VWidth: 0
Flags: HMW
LayerCount: 2
Fore
SplineSet
872 -223 m 0,0,1
 872 -279 872 -279 837 -314 c 0,2,3
 768 -385 768 -385 508 -385 c 1,4,-1
 472 -297 l 1,5,6
 530 -296 530 -296 569 -276.5 c 128,-1,7
 608 -257 608 -257 608 -233 c 0,8,9
 608 -194 608 -194 452 -141 c 1,10,-1
 633 0 l 1,11,-1
 250 0 l 1,12,-1
 263 140 l 1,13,-1
 440 209 l 1,14,-1
 440 1072 l 1,15,-1
 260 1072 l 1,16,-1
 173 786 l 1,17,-1
 3 812 l 1,18,-1
 0 1244 l 1,19,-1
 1264 1244 l 1,20,-1
 1232 796 l 1,21,-1
 1049 827 l 1,22,-1
 985 1072 l 1,23,-1
 801 1072 l 1,24,-1
 801 208 l 1,25,-1
 1003 153 l 1,26,-1
 987 0 l 1,27,-1
 806 0 l 1,28,-1
 696 -80 l 1,29,30
 872 -95 872 -95 872 -223 c 0,0,1
EndSplineSet
Colour: ffffff
EndChar

StartChar: Tcommaaccent
Encoding: 538 538 90
Width: 1264
VWidth: 0
Flags: HMW
LayerCount: 2
Fore
SplineSet
639 -122 m 0,0,1
 715 -122 715 -122 761 -157 c 128,-1,2
 807 -192 807 -192 807 -254 c 0,3,4
 808 -316 808 -316 756 -358 c 0,5,6
 656 -438 656 -438 464 -427 c 1,7,-1
 442 -367 l 1,8,9
 482 -361 482 -361 516 -343 c 128,-1,10
 550 -325 550 -325 550 -304.5 c 128,-1,11
 550 -284 550 -284 515 -269 c 128,-1,12
 480 -254 480 -254 438 -248 c 1,13,14
 461 -122 461 -122 639 -122 c 0,0,1
801 1072 m 1,15,-1
 801 208 l 1,16,-1
 1003 153 l 1,17,-1
 987 0 l 1,18,-1
 250 0 l 1,19,-1
 263 140 l 1,20,-1
 440 209 l 1,21,-1
 440 1072 l 1,22,-1
 260 1072 l 1,23,-1
 173 786 l 1,24,-1
 3 812 l 1,25,-1
 0 1244 l 1,26,-1
 1264 1244 l 1,27,-1
 1232 796 l 1,28,-1
 1049 827 l 1,29,-1
 985 1072 l 1,30,-1
 801 1072 l 1,15,-1
EndSplineSet
Colour: ffffff
EndChar

StartChar: Thorn
Encoding: 222 222 91
Width: 1195
VWidth: 0
Flags: HMW
LayerCount: 2
Fore
SplineSet
693 993 m 0,0,1
 773 994 773 994 846 986 c 0,2,3
 1019 968 1019 968 1102.5 890.5 c 128,-1,4
 1186 813 1186 813 1186 639 c 128,-1,5
 1186 465 1186 465 1049.5 353.5 c 128,-1,6
 913 242 913 242 689 242 c 0,7,8
 655 242 655 242 608 247 c 1,9,-1
 576 421 l 1,10,11
 700 421 700 421 758 461 c 128,-1,12
 816 501 816 501 816 595.5 c 128,-1,13
 816 690 816 690 767 740 c 128,-1,14
 718 790 718 790 621 790 c 0,15,16
 594 790 594 790 554 783 c 1,17,-1
 552 223 l 1,18,-1
 732 160 l 1,19,-1
 719 0 l 1,20,-1
 2 0 l 1,21,-1
 12 142 l 1,22,-1
 188 221 l 1,23,-1
 188 1020 l 1,24,-1
 0 1094 l 1,25,-1
 20 1244 l 1,26,-1
 747 1244 l 1,27,-1
 731 1084 l 1,28,-1
 552 1017 l 1,29,-1
 552 982 l 1,30,31
 613 993 613 993 693 993 c 0,0,1
EndSplineSet
Colour: ffffff
EndChar

StartChar: U
Encoding: 85 85 92
Width: 1544
VWidth: 0
Flags: HMW
LayerCount: 2
Fore
SplineSet
562 541 m 2,0,1
 562 382 562 382 640 308 c 0,2,3
 718 234 718 234 848 233 c 0,4,5
 1114 233 1114 233 1115 537 c 2,6,-1
 1115 1020 l 1,7,-1
 939 1094 l 1,8,-1
 959 1244 l 1,9,-1
 1544 1244 l 1,10,-1
 1527 1094 l 1,11,-1
 1362 1027 l 1,12,-1
 1358 565 l 2,13,14
 1352 -27 1352 -27 777 -27 c 0,15,16
 614 -27 614 -27 548.5 -10 c 128,-1,17
 483 7 483 7 437.5 25.5 c 128,-1,18
 392 44 392 44 358 70 c 0,19,20
 190 196 190 196 190 484 c 2,21,-1
 190 1020 l 1,22,-1
 0 1094 l 1,23,-1
 29 1244 l 1,24,-1
 749 1244 l 1,25,-1
 727 1094 l 1,26,-1
 562 1027 l 1,27,-1
 562 541 l 2,0,1
EndSplineSet
Colour: ffffff
EndChar

StartChar: Uacute
Encoding: 218 218 93
Width: 1544
VWidth: 0
Flags: HMW
LayerCount: 2
Fore
SplineSet
768 1402 m 1,0,-1
 924 1727 l 1,1,-1
 1144 1713 l 1,2,-1
 912 1381 l 1,3,-1
 768 1402 l 1,0,-1
562 541 m 2,4,5
 562 382 562 382 640 308 c 0,6,7
 718 234 718 234 848 233 c 0,8,9
 1114 233 1114 233 1115 537 c 2,10,-1
 1115 1020 l 1,11,-1
 939 1094 l 1,12,-1
 959 1244 l 1,13,-1
 1544 1244 l 1,14,-1
 1527 1094 l 1,15,-1
 1362 1027 l 1,16,-1
 1358 565 l 2,17,18
 1352 -27 1352 -27 777 -27 c 0,19,20
 614 -27 614 -27 548.5 -10 c 128,-1,21
 483 7 483 7 437.5 25.5 c 128,-1,22
 392 44 392 44 358 70 c 0,23,24
 190 196 190 196 190 484 c 2,25,-1
 190 1020 l 1,26,-1
 0 1094 l 1,27,-1
 29 1244 l 1,28,-1
 749 1244 l 1,29,-1
 727 1094 l 1,30,-1
 562 1027 l 1,31,-1
 562 541 l 2,4,5
EndSplineSet
Colour: ffffff
EndChar

StartChar: Ucaron
Encoding: 467 467 94
Width: 1544
VWidth: 0
Flags: HMW
LayerCount: 2
Fore
SplineSet
558 1597 m 1,0,-1
 742 1634 l 1,1,-1
 856 1549 l 1,2,-1
 866 1549 l 1,3,-1
 962 1631 l 1,4,-1
 1134 1602 l 1,5,-1
 924 1401 l 1,6,-1
 766 1391 l 1,7,-1
 558 1597 l 1,0,-1
562 541 m 2,8,9
 562 382 562 382 640 308 c 0,10,11
 718 234 718 234 848 233 c 0,12,13
 1114 233 1114 233 1115 537 c 2,14,-1
 1115 1020 l 1,15,-1
 939 1094 l 1,16,-1
 959 1244 l 1,17,-1
 1544 1244 l 1,18,-1
 1527 1094 l 1,19,-1
 1362 1027 l 1,20,-1
 1358 565 l 2,21,22
 1352 -27 1352 -27 777 -27 c 0,23,24
 614 -27 614 -27 548.5 -10 c 128,-1,25
 483 7 483 7 437.5 25.5 c 128,-1,26
 392 44 392 44 358 70 c 0,27,28
 190 196 190 196 190 484 c 2,29,-1
 190 1020 l 1,30,-1
 0 1094 l 1,31,-1
 29 1244 l 1,32,-1
 749 1244 l 1,33,-1
 727 1094 l 1,34,-1
 562 1027 l 1,35,-1
 562 541 l 2,8,9
EndSplineSet
Colour: ffffff
EndChar

StartChar: Ucircumflex
Encoding: 219 219 95
Width: 1544
VWidth: 0
Flags: HMW
LayerCount: 2
Fore
SplineSet
586 1401 m 1,0,-1
 756 1596 l 1,1,-1
 934 1616 l 1,2,-1
 1138 1411 l 1,3,-1
 986 1352 l 1,4,-1
 848 1453 l 1,5,-1
 834 1453 l 1,6,-1
 730 1351 l 1,7,-1
 586 1401 l 1,0,-1
562 541 m 2,8,9
 562 382 562 382 640 308 c 0,10,11
 718 234 718 234 848 233 c 0,12,13
 1114 233 1114 233 1115 537 c 2,14,-1
 1115 1020 l 1,15,-1
 939 1094 l 1,16,-1
 959 1244 l 1,17,-1
 1544 1244 l 1,18,-1
 1527 1094 l 1,19,-1
 1362 1027 l 1,20,-1
 1358 565 l 2,21,22
 1352 -27 1352 -27 777 -27 c 0,23,24
 614 -27 614 -27 548.5 -10 c 128,-1,25
 483 7 483 7 437.5 25.5 c 128,-1,26
 392 44 392 44 358 70 c 0,27,28
 190 196 190 196 190 484 c 2,29,-1
 190 1020 l 1,30,-1
 0 1094 l 1,31,-1
 29 1244 l 1,32,-1
 749 1244 l 1,33,-1
 727 1094 l 1,34,-1
 562 1027 l 1,35,-1
 562 541 l 2,8,9
EndSplineSet
Colour: ffffff
EndChar

StartChar: Udieresis
Encoding: 220 220 96
Width: 1544
VWidth: 0
Flags: HMW
LayerCount: 2
Fore
SplineSet
856 1498 m 0,0,1
 856 1537 856 1537 878 1561 c 0,2,3
 917 1605 917 1605 994 1605 c 0,4,5
 1104 1605 1104 1605 1131 1536 c 0,6,7
 1138 1519 1138 1519 1138 1500 c 0,8,9
 1138 1391 1138 1391 997 1391 c 128,-1,10
 856 1391 856 1391 856 1498 c 0,0,1
547 1498 m 0,11,12
 547 1537 547 1537 569 1561 c 0,13,14
 608 1605 608 1605 685 1605 c 0,15,16
 795 1605 795 1605 822 1536 c 0,17,18
 829 1519 829 1519 829 1500 c 0,19,20
 829 1391 829 1391 688 1391 c 128,-1,21
 547 1391 547 1391 547 1498 c 0,11,12
562 541 m 2,22,23
 562 382 562 382 640 308 c 0,24,25
 718 234 718 234 848 233 c 0,26,27
 1114 233 1114 233 1115 537 c 2,28,-1
 1115 1020 l 1,29,-1
 939 1094 l 1,30,-1
 959 1244 l 1,31,-1
 1544 1244 l 1,32,-1
 1527 1094 l 1,33,-1
 1362 1027 l 1,34,-1
 1358 565 l 2,35,36
 1352 -27 1352 -27 777 -27 c 0,37,38
 614 -27 614 -27 548.5 -10 c 128,-1,39
 483 7 483 7 437.5 25.5 c 128,-1,40
 392 44 392 44 358 70 c 0,41,42
 190 196 190 196 190 484 c 2,43,-1
 190 1020 l 1,44,-1
 0 1094 l 1,45,-1
 29 1244 l 1,46,-1
 749 1244 l 1,47,-1
 727 1094 l 1,48,-1
 562 1027 l 1,49,-1
 562 541 l 2,22,23
EndSplineSet
Colour: ffffff
EndChar

StartChar: Udieresisacute
Encoding: 471 471 97
Width: 1544
VWidth: 0
Flags: HMW
LayerCount: 2
Fore
SplineSet
726 1738 m 1,0,-1
 881 2063 l 1,1,-1
 1101 2049 l 1,2,-1
 870 1717 l 1,3,-1
 726 1738 l 1,0,-1
856 1498 m 0,4,5
 856 1537 856 1537 878 1561 c 0,6,7
 917 1605 917 1605 994 1605 c 0,8,9
 1104 1605 1104 1605 1131 1536 c 0,10,11
 1138 1519 1138 1519 1138 1500 c 0,12,13
 1138 1391 1138 1391 997 1391 c 128,-1,14
 856 1391 856 1391 856 1498 c 0,4,5
547 1498 m 0,15,16
 547 1537 547 1537 569 1561 c 0,17,18
 608 1605 608 1605 685 1605 c 0,19,20
 795 1605 795 1605 822 1536 c 0,21,22
 829 1519 829 1519 829 1500 c 0,23,24
 829 1391 829 1391 688 1391 c 128,-1,25
 547 1391 547 1391 547 1498 c 0,15,16
562 541 m 2,26,27
 562 382 562 382 640 308 c 0,28,29
 718 234 718 234 848 233 c 0,30,31
 1114 233 1114 233 1115 537 c 2,32,-1
 1115 1020 l 1,33,-1
 939 1094 l 1,34,-1
 959 1244 l 1,35,-1
 1544 1244 l 1,36,-1
 1527 1094 l 1,37,-1
 1362 1027 l 1,38,-1
 1358 565 l 2,39,40
 1352 -27 1352 -27 777 -27 c 0,41,42
 614 -27 614 -27 548.5 -10 c 128,-1,43
 483 7 483 7 437.5 25.5 c 128,-1,44
 392 44 392 44 358 70 c 0,45,46
 190 196 190 196 190 484 c 2,47,-1
 190 1020 l 1,48,-1
 0 1094 l 1,49,-1
 29 1244 l 1,50,-1
 749 1244 l 1,51,-1
 727 1094 l 1,52,-1
 562 1027 l 1,53,-1
 562 541 l 2,26,27
EndSplineSet
Colour: ffffff
EndChar

StartChar: Udieresiscaron
Encoding: 473 473 98
Width: 1544
VWidth: 0
Flags: HMW
LayerCount: 2
Fore
SplineSet
565 1933 m 1,0,-1
 750 1970 l 1,1,-1
 863 1885 l 1,2,-1
 873 1885 l 1,3,-1
 969 1967 l 1,4,-1
 1141 1938 l 1,5,-1
 931 1737 l 1,6,-1
 773 1727 l 1,7,-1
 565 1933 l 1,0,-1
856 1498 m 0,8,9
 856 1537 856 1537 878 1561 c 0,10,11
 917 1605 917 1605 994 1605 c 0,12,13
 1104 1605 1104 1605 1131 1536 c 0,14,15
 1138 1519 1138 1519 1138 1500 c 0,16,17
 1138 1391 1138 1391 997 1391 c 128,-1,18
 856 1391 856 1391 856 1498 c 0,8,9
547 1498 m 0,19,20
 547 1537 547 1537 569 1561 c 0,21,22
 608 1605 608 1605 685 1605 c 0,23,24
 795 1605 795 1605 822 1536 c 0,25,26
 829 1519 829 1519 829 1500 c 0,27,28
 829 1391 829 1391 688 1391 c 128,-1,29
 547 1391 547 1391 547 1498 c 0,19,20
562 541 m 2,30,31
 562 382 562 382 640 308 c 0,32,33
 718 234 718 234 848 233 c 0,34,35
 1114 233 1114 233 1115 537 c 2,36,-1
 1115 1020 l 1,37,-1
 939 1094 l 1,38,-1
 959 1244 l 1,39,-1
 1544 1244 l 1,40,-1
 1527 1094 l 1,41,-1
 1362 1027 l 1,42,-1
 1358 565 l 2,43,44
 1352 -27 1352 -27 777 -27 c 0,45,46
 614 -27 614 -27 548.5 -10 c 128,-1,47
 483 7 483 7 437.5 25.5 c 128,-1,48
 392 44 392 44 358 70 c 0,49,50
 190 196 190 196 190 484 c 2,51,-1
 190 1020 l 1,52,-1
 0 1094 l 1,53,-1
 29 1244 l 1,54,-1
 749 1244 l 1,55,-1
 727 1094 l 1,56,-1
 562 1027 l 1,57,-1
 562 541 l 2,30,31
EndSplineSet
Colour: ffffff
EndChar

StartChar: Udieresisgrave
Encoding: 475 475 99
Width: 1544
VWidth: 0
Flags: HMW
LayerCount: 2
Fore
SplineSet
575 2066 m 1,0,-1
 793 2106 l 1,1,-1
 943 1758 l 1,2,-1
 784 1727 l 1,3,-1
 575 2066 l 1,0,-1
856 1498 m 0,4,5
 856 1537 856 1537 878 1561 c 0,6,7
 917 1605 917 1605 994 1605 c 0,8,9
 1104 1605 1104 1605 1131 1536 c 0,10,11
 1138 1519 1138 1519 1138 1500 c 0,12,13
 1138 1391 1138 1391 997 1391 c 128,-1,14
 856 1391 856 1391 856 1498 c 0,4,5
547 1498 m 0,15,16
 547 1537 547 1537 569 1561 c 0,17,18
 608 1605 608 1605 685 1605 c 0,19,20
 795 1605 795 1605 822 1536 c 0,21,22
 829 1519 829 1519 829 1500 c 0,23,24
 829 1391 829 1391 688 1391 c 128,-1,25
 547 1391 547 1391 547 1498 c 0,15,16
562 541 m 2,26,27
 562 382 562 382 640 308 c 0,28,29
 718 234 718 234 848 233 c 0,30,31
 1114 233 1114 233 1115 537 c 2,32,-1
 1115 1020 l 1,33,-1
 939 1094 l 1,34,-1
 959 1244 l 1,35,-1
 1544 1244 l 1,36,-1
 1527 1094 l 1,37,-1
 1362 1027 l 1,38,-1
 1358 565 l 2,39,40
 1352 -27 1352 -27 777 -27 c 0,41,42
 614 -27 614 -27 548.5 -10 c 128,-1,43
 483 7 483 7 437.5 25.5 c 128,-1,44
 392 44 392 44 358 70 c 0,45,46
 190 196 190 196 190 484 c 2,47,-1
 190 1020 l 1,48,-1
 0 1094 l 1,49,-1
 29 1244 l 1,50,-1
 749 1244 l 1,51,-1
 727 1094 l 1,52,-1
 562 1027 l 1,53,-1
 562 541 l 2,26,27
EndSplineSet
Colour: ffffff
EndChar

StartChar: Udieresismacron
Encoding: 469 469 100
Width: 1544
VWidth: 0
Flags: HMW
LayerCount: 2
Fore
SplineSet
597 1727 m 1,0,-1
 618 1922 l 1,1,-1
 1071 1922 l 1,2,-1
 1049 1727 l 1,3,-1
 597 1727 l 1,0,-1
856 1498 m 0,4,5
 856 1537 856 1537 878 1561 c 0,6,7
 917 1605 917 1605 994 1605 c 0,8,9
 1104 1605 1104 1605 1131 1536 c 0,10,11
 1138 1519 1138 1519 1138 1500 c 0,12,13
 1138 1391 1138 1391 997 1391 c 128,-1,14
 856 1391 856 1391 856 1498 c 0,4,5
547 1498 m 0,15,16
 547 1537 547 1537 569 1561 c 0,17,18
 608 1605 608 1605 685 1605 c 0,19,20
 795 1605 795 1605 822 1536 c 0,21,22
 829 1519 829 1519 829 1500 c 0,23,24
 829 1391 829 1391 688 1391 c 128,-1,25
 547 1391 547 1391 547 1498 c 0,15,16
562 541 m 2,26,27
 562 382 562 382 640 308 c 0,28,29
 718 234 718 234 848 233 c 0,30,31
 1114 233 1114 233 1115 537 c 2,32,-1
 1115 1020 l 1,33,-1
 939 1094 l 1,34,-1
 959 1244 l 1,35,-1
 1544 1244 l 1,36,-1
 1527 1094 l 1,37,-1
 1362 1027 l 1,38,-1
 1358 565 l 2,39,40
 1352 -27 1352 -27 777 -27 c 0,41,42
 614 -27 614 -27 548.5 -10 c 128,-1,43
 483 7 483 7 437.5 25.5 c 128,-1,44
 392 44 392 44 358 70 c 0,45,46
 190 196 190 196 190 484 c 2,47,-1
 190 1020 l 1,48,-1
 0 1094 l 1,49,-1
 29 1244 l 1,50,-1
 749 1244 l 1,51,-1
 727 1094 l 1,52,-1
 562 1027 l 1,53,-1
 562 541 l 2,26,27
EndSplineSet
Colour: ffffff
EndChar

StartChar: Ugrave
Encoding: 217 217 101
Width: 1544
VWidth: 0
Flags: HMW
LayerCount: 2
Fore
SplineSet
538 1730 m 1,0,-1
 756 1770 l 1,1,-1
 906 1422 l 1,2,-1
 746 1391 l 1,3,-1
 538 1730 l 1,0,-1
562 541 m 2,4,5
 562 382 562 382 640 308 c 0,6,7
 718 234 718 234 848 233 c 0,8,9
 1114 233 1114 233 1115 537 c 2,10,-1
 1115 1020 l 1,11,-1
 939 1094 l 1,12,-1
 959 1244 l 1,13,-1
 1544 1244 l 1,14,-1
 1527 1094 l 1,15,-1
 1362 1027 l 1,16,-1
 1358 565 l 2,17,18
 1352 -27 1352 -27 777 -27 c 0,19,20
 614 -27 614 -27 548.5 -10 c 128,-1,21
 483 7 483 7 437.5 25.5 c 128,-1,22
 392 44 392 44 358 70 c 0,23,24
 190 196 190 196 190 484 c 2,25,-1
 190 1020 l 1,26,-1
 0 1094 l 1,27,-1
 29 1244 l 1,28,-1
 749 1244 l 1,29,-1
 727 1094 l 1,30,-1
 562 1027 l 1,31,-1
 562 541 l 2,4,5
EndSplineSet
Colour: ffffff
EndChar

StartChar: Uhungarumlaut
Encoding: 368 368 102
Width: 1544
VWidth: 0
Flags: HMW
LayerCount: 2
Fore
SplineSet
842 1430 m 1,0,-1
 1100 1682 l 1,1,-1
 1310 1654 l 1,2,-1
 978 1391 l 1,3,-1
 842 1430 l 1,0,-1
564 1430 m 1,4,-1
 844 1685 l 1,5,-1
 1048 1661 l 1,6,-1
 704 1391 l 1,7,-1
 564 1430 l 1,4,-1
562 541 m 2,8,9
 562 382 562 382 640 308 c 0,10,11
 718 234 718 234 848 233 c 0,12,13
 1114 233 1114 233 1115 537 c 2,14,-1
 1115 1020 l 1,15,-1
 939 1094 l 1,16,-1
 959 1244 l 1,17,-1
 1544 1244 l 1,18,-1
 1527 1094 l 1,19,-1
 1362 1027 l 1,20,-1
 1358 565 l 2,21,22
 1352 -27 1352 -27 777 -27 c 0,23,24
 614 -27 614 -27 548.5 -10 c 128,-1,25
 483 7 483 7 437.5 25.5 c 128,-1,26
 392 44 392 44 358 70 c 0,27,28
 190 196 190 196 190 484 c 2,29,-1
 190 1020 l 1,30,-1
 0 1094 l 1,31,-1
 29 1244 l 1,32,-1
 749 1244 l 1,33,-1
 727 1094 l 1,34,-1
 562 1027 l 1,35,-1
 562 541 l 2,8,9
EndSplineSet
Colour: ffffff
EndChar

StartChar: Umacron
Encoding: 362 362 103
Width: 1544
VWidth: 0
Flags: HMW
LayerCount: 2
Fore
SplineSet
610 1391 m 1,0,-1
 630 1586 l 1,1,-1
 1084 1586 l 1,2,-1
 1062 1391 l 1,3,-1
 610 1391 l 1,0,-1
562 541 m 2,4,5
 562 382 562 382 640 308 c 0,6,7
 718 234 718 234 848 233 c 0,8,9
 1114 233 1114 233 1115 537 c 2,10,-1
 1115 1020 l 1,11,-1
 939 1094 l 1,12,-1
 959 1244 l 1,13,-1
 1544 1244 l 1,14,-1
 1527 1094 l 1,15,-1
 1362 1027 l 1,16,-1
 1358 565 l 2,17,18
 1352 -27 1352 -27 777 -27 c 0,19,20
 614 -27 614 -27 548.5 -10 c 128,-1,21
 483 7 483 7 437.5 25.5 c 128,-1,22
 392 44 392 44 358 70 c 0,23,24
 190 196 190 196 190 484 c 2,25,-1
 190 1020 l 1,26,-1
 0 1094 l 1,27,-1
 29 1244 l 1,28,-1
 749 1244 l 1,29,-1
 727 1094 l 1,30,-1
 562 1027 l 1,31,-1
 562 541 l 2,4,5
EndSplineSet
Colour: ffffff
EndChar

StartChar: Uogonek
Encoding: 370 370 104
Width: 1544
VWidth: 0
Flags: HMW
LayerCount: 2
Fore
SplineSet
893 -122.5 m 128,-1,1
 893 -62 893 -62 929 -15 c 1,2,3
 859 -27 859 -27 795 -27 c 128,-1,4
 731 -27 731 -27 695.5 -25.5 c 128,-1,5
 660 -24 660 -24 610 -18.5 c 128,-1,6
 560 -13 560 -13 521.5 -3 c 128,-1,7
 483 7 483 7 437.5 25.5 c 128,-1,8
 392 44 392 44 358 70 c 0,9,10
 190 196 190 196 190 484 c 2,11,-1
 190 1020 l 1,12,-1
 0 1094 l 1,13,-1
 29 1244 l 1,14,-1
 749 1244 l 1,15,-1
 727 1094 l 1,16,-1
 562 1027 l 1,17,-1
 562 541 l 2,18,19
 562 382 562 382 640 308 c 0,20,21
 718 234 718 234 848 233 c 0,22,23
 1114 233 1114 233 1115 537 c 2,24,-1
 1115 1020 l 1,25,-1
 939 1094 l 1,26,-1
 959 1244 l 1,27,-1
 1544 1244 l 1,28,-1
 1527 1094 l 1,29,-1
 1362 1027 l 1,30,-1
 1358 565 l 2,31,32
 1355 227 1355 227 1167 82 c 1,33,-1
 1168 82 l 1,34,35
 1095 -102 1095 -102 1234 -221 c 1,36,-1
 1209 -316 l 1,37,38
 1028 -305 1028 -305 940 -225 c 0,39,0
 893 -183 893 -183 893 -122.5 c 128,-1,1
EndSplineSet
Colour: ffffff
EndChar

StartChar: Uring
Encoding: 366 366 105
Width: 1544
VWidth: 0
Flags: HMW
LayerCount: 2
Fore
SplineSet
763 1558 m 0,0,1
 763 1501 763 1501 841 1501 c 0,2,3
 871 1501 871 1501 894.5 1516 c 128,-1,4
 918 1531 918 1531 918 1558 c 128,-1,5
 918 1585 918 1585 893 1601 c 128,-1,6
 868 1617 868 1617 838 1617 c 128,-1,7
 808 1617 808 1617 785.5 1600 c 128,-1,8
 763 1583 763 1583 763 1558 c 0,0,1
832 1391 m 0,9,10
 572 1391 572 1391 572 1557 c 0,11,12
 572 1633 572 1633 640 1681.5 c 128,-1,13
 708 1730 708 1730 846 1730 c 0,14,15
 1121 1730 1121 1730 1121 1566 c 0,16,17
 1121 1492 1121 1492 1049.5 1441.5 c 128,-1,18
 978 1391 978 1391 832 1391 c 0,9,10
562 541 m 2,19,20
 562 382 562 382 640 308 c 0,21,22
 718 234 718 234 848 233 c 0,23,24
 1114 233 1114 233 1115 537 c 2,25,-1
 1115 1020 l 1,26,-1
 939 1094 l 1,27,-1
 959 1244 l 1,28,-1
 1544 1244 l 1,29,-1
 1527 1094 l 1,30,-1
 1362 1027 l 1,31,-1
 1358 565 l 2,32,33
 1352 -27 1352 -27 777 -27 c 0,34,35
 614 -27 614 -27 548.5 -10 c 128,-1,36
 483 7 483 7 437.5 25.5 c 128,-1,37
 392 44 392 44 358 70 c 0,38,39
 190 196 190 196 190 484 c 2,40,-1
 190 1020 l 1,41,-1
 0 1094 l 1,42,-1
 29 1244 l 1,43,-1
 749 1244 l 1,44,-1
 727 1094 l 1,45,-1
 562 1027 l 1,46,-1
 562 541 l 2,19,20
EndSplineSet
Colour: ffffff
EndChar

StartChar: V
Encoding: 86 86 106
Width: 1470
VWidth: 0
Flags: HMW
LayerCount: 2
Fore
SplineSet
0 1087 m 1,0,-1
 20 1244 l 1,1,-1
 776 1244 l 1,2,-1
 753 1087 l 1,3,-1
 591 1027 l 1,4,-1
 826 421 l 1,5,-1
 1044 1025 l 1,6,-1
 870 1087 l 1,7,-1
 885 1244 l 1,8,-1
 1470 1244 l 1,9,-1
 1455 1087 l 1,10,-1
 1321 1027 l 1,11,-1
 927 35 l 1,12,-1
 574 -23 l 1,13,-1
 145 1025 l 1,14,-1
 0 1087 l 1,0,-1
EndSplineSet
Colour: ffffff
EndChar

StartChar: W
Encoding: 87 87 107
Width: 2037
VWidth: 0
Flags: HMW
LayerCount: 2
Fore
SplineSet
0 1089 m 1,0,-1
 11 1244 l 1,1,-1
 766 1244 l 1,2,-1
 730 1081 l 1,3,-1
 577 1027 l 1,4,-1
 731 486 l 1,5,-1
 906 1200 l 1,6,-1
 1245 1240 l 1,7,-1
 1451 502 l 1,8,-1
 1604 1030 l 1,9,-1
 1437 1084 l 1,10,-1
 1458 1244 l 1,11,-1
 2037 1244 l 1,12,-1
 2012 1087 l 1,13,-1
 1880 1033 l 1,14,-1
 1545 38 l 1,15,-1
 1212 -23 l 1,16,-1
 1005 721 l 1,17,-1
 827 38 l 1,18,-1
 481 -24 l 1,19,-1
 176 1023 l 1,20,-1
 0 1089 l 1,0,-1
EndSplineSet
Colour: ffffff
EndChar

StartChar: Wacute
Encoding: 7810 7810 108
Width: 2037
VWidth: 0
Flags: HMW
LayerCount: 2
Fore
SplineSet
946 1402 m 1,0,-1
 1101 1727 l 1,1,-1
 1321 1713 l 1,2,-1
 1090 1381 l 1,3,-1
 946 1402 l 1,0,-1
0 1089 m 1,4,-1
 11 1244 l 1,5,-1
 766 1244 l 1,6,-1
 730 1081 l 1,7,-1
 577 1027 l 1,8,-1
 731 486 l 1,9,-1
 906 1200 l 1,10,-1
 1245 1240 l 1,11,-1
 1451 502 l 1,12,-1
 1604 1030 l 1,13,-1
 1437 1084 l 1,14,-1
 1458 1244 l 1,15,-1
 2037 1244 l 1,16,-1
 2012 1087 l 1,17,-1
 1880 1033 l 1,18,-1
 1545 38 l 1,19,-1
 1212 -23 l 1,20,-1
 1005 721 l 1,21,-1
 827 38 l 1,22,-1
 481 -24 l 1,23,-1
 176 1023 l 1,24,-1
 0 1089 l 1,4,-1
EndSplineSet
Colour: ffffff
EndChar

StartChar: Wcircumflex
Encoding: 372 372 109
Width: 2037
VWidth: 0
Flags: HMW
LayerCount: 2
Fore
SplineSet
803 1411 m 1,0,-1
 974 1606 l 1,1,-1
 1151 1626 l 1,2,-1
 1355 1421 l 1,3,-1
 1204 1362 l 1,4,-1
 1065 1463 l 1,5,-1
 1051 1463 l 1,6,-1
 948 1361 l 1,7,-1
 803 1411 l 1,0,-1
0 1089 m 1,8,-1
 11 1244 l 1,9,-1
 766 1244 l 1,10,-1
 730 1081 l 1,11,-1
 577 1027 l 1,12,-1
 731 486 l 1,13,-1
 906 1200 l 1,14,-1
 1245 1240 l 1,15,-1
 1451 502 l 1,16,-1
 1604 1030 l 1,17,-1
 1437 1084 l 1,18,-1
 1458 1244 l 1,19,-1
 2037 1244 l 1,20,-1
 2012 1087 l 1,21,-1
 1880 1033 l 1,22,-1
 1545 38 l 1,23,-1
 1212 -23 l 1,24,-1
 1005 721 l 1,25,-1
 827 38 l 1,26,-1
 481 -24 l 1,27,-1
 176 1023 l 1,28,-1
 0 1089 l 1,8,-1
EndSplineSet
Colour: ffffff
EndChar

StartChar: Wdieresis
Encoding: 7812 7812 110
Width: 2037
VWidth: 0
Flags: HMW
LayerCount: 2
Fore
SplineSet
1084 1498 m 0,0,1
 1084 1537 1084 1537 1105 1561 c 0,2,3
 1144 1605 1144 1605 1222 1605 c 0,4,5
 1332 1605 1332 1605 1359 1536 c 0,6,7
 1366 1519 1366 1519 1365 1500 c 0,8,9
 1365 1391 1365 1391 1224.5 1391 c 128,-1,10
 1084 1391 1084 1391 1084 1498 c 0,0,1
775 1498 m 0,11,12
 775 1537 775 1537 796 1561 c 0,13,14
 835 1605 835 1605 913 1605 c 0,15,16
 1023 1605 1023 1605 1050 1536 c 0,17,18
 1057 1519 1057 1519 1056 1500 c 0,19,20
 1056 1391 1056 1391 915.5 1391 c 128,-1,21
 775 1391 775 1391 775 1498 c 0,11,12
0 1089 m 1,22,-1
 11 1244 l 1,23,-1
 766 1244 l 1,24,-1
 730 1081 l 1,25,-1
 577 1027 l 1,26,-1
 731 486 l 1,27,-1
 906 1200 l 1,28,-1
 1245 1240 l 1,29,-1
 1451 502 l 1,30,-1
 1604 1030 l 1,31,-1
 1437 1084 l 1,32,-1
 1458 1244 l 1,33,-1
 2037 1244 l 1,34,-1
 2012 1087 l 1,35,-1
 1880 1033 l 1,36,-1
 1545 38 l 1,37,-1
 1212 -23 l 1,38,-1
 1005 721 l 1,39,-1
 827 38 l 1,40,-1
 481 -24 l 1,41,-1
 176 1023 l 1,42,-1
 0 1089 l 1,22,-1
EndSplineSet
Colour: ffffff
EndChar

StartChar: Wgrave
Encoding: 7808 7808 111
Width: 2037
VWidth: 0
Flags: HMW
LayerCount: 2
Fore
SplineSet
785 1730 m 1,0,-1
 1003 1770 l 1,1,-1
 1153 1422 l 1,2,-1
 994 1391 l 1,3,-1
 785 1730 l 1,0,-1
0 1089 m 1,4,-1
 11 1244 l 1,5,-1
 766 1244 l 1,6,-1
 730 1081 l 1,7,-1
 577 1027 l 1,8,-1
 731 486 l 1,9,-1
 906 1200 l 1,10,-1
 1245 1240 l 1,11,-1
 1451 502 l 1,12,-1
 1604 1030 l 1,13,-1
 1437 1084 l 1,14,-1
 1458 1244 l 1,15,-1
 2037 1244 l 1,16,-1
 2012 1087 l 1,17,-1
 1880 1033 l 1,18,-1
 1545 38 l 1,19,-1
 1212 -23 l 1,20,-1
 1005 721 l 1,21,-1
 827 38 l 1,22,-1
 481 -24 l 1,23,-1
 176 1023 l 1,24,-1
 0 1089 l 1,4,-1
EndSplineSet
Colour: ffffff
EndChar

StartChar: X
Encoding: 88 88 112
Width: 1344
VWidth: 0
Flags: HMW
LayerCount: 2
Back
SplineSet
1313 235 m 13,0,-1
 720 1000 l 1,1,-1
 781 1076 l 1,2,-1
 804 1244 l 1,3,-1
 210 1244 l 1,4,-1
 182 1076 l 1,5,-1
 321 1002 l 1,6,-1
 905 241 l 1,7,-1
 825 166 l 1,8,-1
 796 0 l 1,9,-1
 1420 0 l 1,10,-1
 1446 169 l 1,11,-1
 1313 235 l 13,0,-1
306 233 m 13,12,-1
 1009 1014 l 1,13,-1
 975 1084 l 1,14,-1
 1002 1244 l 1,15,-1
 1440 1244 l 1,16,-1
 1416 1087 l 1,17,-1
 1286 1015 l 1,18,-1
 600 232 l 1,19,-1
 653 167 l 1,20,-1
 622 0 l 1,21,-1
 152 0 l 1,22,-1
 177 157 l 1,23,-1
 306 233 l 13,12,-1
EndSplineSet
Fore
SplineSet
0 0 m 1,0,-1
 25 157 l 1,1,-1
 154 233 l 1,2,-1
 480 611 l 1,3,-1
 139 1012 l 1,4,-1
 13 1066 l 1,5,-1
 41 1244 l 1,6,-1
 686 1244 l 1,7,-1
 659 1076 l 1,8,-1
 568 1010 l 1,9,-1
 728 810 l 1,10,-1
 887 1014 l 1,11,-1
 773 1084 l 1,12,-1
 800 1244 l 1,13,-1
 1308 1244 l 1,14,-1
 1284 1087 l 1,15,-1
 1154 1015 l 1,16,-1
 849 665 l 1,17,-1
 1241 225 l 1,18,-1
 1344 179 l 1,19,-1
 1318 0 l 1,20,-1
 674 0 l 1,21,-1
 703 166 l 1,22,-1
 793 231 l 1,23,-1
 609 466 l 1,24,-1
 448 232 l 1,25,-1
 591 167 l 1,26,-1
 560 0 l 1,27,-1
 0 0 l 1,0,-1
EndSplineSet
Colour: ffffff
EndChar

StartChar: Y
Encoding: 89 89 113
Width: 1308
VWidth: 0
Flags: HMW
LayerCount: 2
Fore
SplineSet
0 1089 m 1,0,-1
 32 1245 l 1,1,-1
 693 1245 l 1,2,-1
 665 1089 l 1,3,-1
 590 1028 l 1,4,-1
 739 739 l 1,5,-1
 890 1025 l 1,6,-1
 791 1087 l 1,7,-1
 815 1244 l 1,8,-1
 1288 1244 l 1,9,-1
 1264 1087 l 1,10,-1
 1150 1027 l 1,11,-1
 834 498 l 1,12,-1
 834 221 l 1,13,-1
 1001 140 l 1,14,-1
 988 0 l 1,15,-1
 286 0 l 1,16,-1
 304 138 l 1,17,-1
 463 217 l 1,18,-1
 463 485 l 1,19,-1
 134 1027 l 1,20,-1
 0 1089 l 1,0,-1
EndSplineSet
Colour: ffffff
EndChar

StartChar: Yacute
Encoding: 221 221 114
Width: 1308
VWidth: 0
Flags: HMW
LayerCount: 2
Fore
SplineSet
666 1402 m 1,0,-1
 820 1727 l 1,1,-1
 1040 1713 l 1,2,-1
 810 1381 l 1,3,-1
 666 1402 l 1,0,-1
0 1089 m 1,4,-1
 32 1245 l 1,5,-1
 693 1245 l 1,6,-1
 665 1089 l 1,7,-1
 590 1028 l 1,8,-1
 739 739 l 1,9,-1
 890 1025 l 1,10,-1
 791 1087 l 1,11,-1
 815 1244 l 1,12,-1
 1288 1244 l 1,13,-1
 1264 1087 l 1,14,-1
 1150 1027 l 1,15,-1
 834 498 l 1,16,-1
 834 221 l 1,17,-1
 1001 140 l 1,18,-1
 988 0 l 1,19,-1
 286 0 l 1,20,-1
 304 138 l 1,21,-1
 463 217 l 1,22,-1
 463 485 l 1,23,-1
 134 1027 l 1,24,-1
 0 1089 l 1,4,-1
EndSplineSet
Colour: ffffff
EndChar

StartChar: Ycircumflex
Encoding: 374 374 115
Width: 1308
VWidth: 0
Flags: HMW
LayerCount: 2
Fore
SplineSet
452 1401 m 1,0,-1
 622 1596 l 1,1,-1
 800 1616 l 1,2,-1
 1004 1411 l 1,3,-1
 852 1352 l 1,4,-1
 714 1453 l 1,5,-1
 700 1453 l 1,6,-1
 596 1351 l 1,7,-1
 452 1401 l 1,0,-1
0 1089 m 1,8,-1
 32 1245 l 1,9,-1
 693 1245 l 1,10,-1
 665 1089 l 1,11,-1
 590 1028 l 1,12,-1
 739 739 l 1,13,-1
 890 1025 l 1,14,-1
 791 1087 l 1,15,-1
 815 1244 l 1,16,-1
 1288 1244 l 1,17,-1
 1264 1087 l 1,18,-1
 1150 1027 l 1,19,-1
 834 498 l 1,20,-1
 834 221 l 1,21,-1
 1001 140 l 1,22,-1
 988 0 l 1,23,-1
 286 0 l 1,24,-1
 304 138 l 1,25,-1
 463 217 l 1,26,-1
 463 485 l 1,27,-1
 134 1027 l 1,28,-1
 0 1089 l 1,8,-1
EndSplineSet
Colour: ffffff
EndChar

StartChar: Ydieresis
Encoding: 376 376 116
Width: 1308
VWidth: 0
Flags: HMW
LayerCount: 2
Fore
SplineSet
762 1498 m 0,0,1
 762 1537 762 1537 784 1561 c 0,2,3
 823 1605 823 1605 900 1605 c 0,4,5
 1010 1605 1010 1605 1037 1536 c 0,6,7
 1044 1519 1044 1519 1044 1500 c 0,8,9
 1044 1391 1044 1391 903 1391 c 128,-1,10
 762 1391 762 1391 762 1498 c 0,0,1
453 1498 m 0,11,12
 453 1537 453 1537 475 1561 c 0,13,14
 514 1605 514 1605 591 1605 c 0,15,16
 701 1605 701 1605 728 1536 c 0,17,18
 735 1519 735 1519 735 1500 c 0,19,20
 735 1391 735 1391 594 1391 c 128,-1,21
 453 1391 453 1391 453 1498 c 0,11,12
0 1089 m 1,22,-1
 32 1245 l 1,23,-1
 693 1245 l 1,24,-1
 665 1089 l 1,25,-1
 590 1028 l 1,26,-1
 739 739 l 1,27,-1
 890 1025 l 1,28,-1
 791 1087 l 1,29,-1
 815 1244 l 1,30,-1
 1288 1244 l 1,31,-1
 1264 1087 l 1,32,-1
 1150 1027 l 1,33,-1
 834 498 l 1,34,-1
 834 221 l 1,35,-1
 1001 140 l 1,36,-1
 988 0 l 1,37,-1
 286 0 l 1,38,-1
 304 138 l 1,39,-1
 463 217 l 1,40,-1
 463 485 l 1,41,-1
 134 1027 l 1,42,-1
 0 1089 l 1,22,-1
EndSplineSet
Colour: ffffff
EndChar

StartChar: Ygrave
Encoding: 7922 7922 117
Width: 1308
VWidth: 0
Flags: HMW
LayerCount: 2
Fore
SplineSet
424 1730 m 1,0,-1
 642 1770 l 1,1,-1
 792 1422 l 1,2,-1
 632 1391 l 1,3,-1
 424 1730 l 1,0,-1
0 1089 m 1,4,-1
 32 1245 l 1,5,-1
 693 1245 l 1,6,-1
 665 1089 l 1,7,-1
 590 1028 l 1,8,-1
 739 739 l 1,9,-1
 890 1025 l 1,10,-1
 791 1087 l 1,11,-1
 815 1244 l 1,12,-1
 1288 1244 l 1,13,-1
 1264 1087 l 1,14,-1
 1150 1027 l 1,15,-1
 834 498 l 1,16,-1
 834 221 l 1,17,-1
 1001 140 l 1,18,-1
 988 0 l 1,19,-1
 286 0 l 1,20,-1
 304 138 l 1,21,-1
 463 217 l 1,22,-1
 463 485 l 1,23,-1
 134 1027 l 1,24,-1
 0 1089 l 1,4,-1
EndSplineSet
Colour: ffffff
EndChar

StartChar: Z
Encoding: 90 90 118
Width: 1072
VWidth: 0
Flags: HMW
LayerCount: 2
Fore
SplineSet
0 236 m 1,0,-1
 631 1069 l 1,1,-1
 291 1069 l 1,2,-1
 228 812 l 1,3,-1
 28 844 l 1,4,-1
 39 1244 l 1,5,-1
 1070 1244 l 1,6,-1
 1062 1089 l 1,7,-1
 377 206 l 1,8,-1
 735 176 l 1,9,-1
 922 457 l 1,10,-1
 1072 434 l 1,11,-1
 1011 0 l 1,12,-1
 13 0 l 1,13,-1
 0 236 l 1,0,-1
EndSplineSet
Colour: ffffff
EndChar

StartChar: Zacute
Encoding: 377 377 119
Width: 1072
VWidth: 0
Flags: HMW
LayerCount: 2
Fore
SplineSet
456 1402 m 1,0,-1
 612 1727 l 1,1,-1
 832 1713 l 1,2,-1
 600 1381 l 1,3,-1
 456 1402 l 1,0,-1
0 236 m 1,4,-1
 631 1069 l 1,5,-1
 291 1069 l 1,6,-1
 228 812 l 1,7,-1
 28 844 l 1,8,-1
 39 1244 l 1,9,-1
 1070 1244 l 1,10,-1
 1062 1089 l 1,11,-1
 377 206 l 1,12,-1
 735 176 l 1,13,-1
 922 457 l 1,14,-1
 1072 434 l 1,15,-1
 1011 0 l 1,16,-1
 13 0 l 1,17,-1
 0 236 l 1,4,-1
EndSplineSet
Colour: ffffff
EndChar

StartChar: Zcaron
Encoding: 381 381 120
Width: 1072
VWidth: 0
Flags: HMW
LayerCount: 2
Fore
SplineSet
336 1597 m 1,0,-1
 520 1634 l 1,1,-1
 634 1549 l 1,2,-1
 644 1549 l 1,3,-1
 740 1631 l 1,4,-1
 912 1602 l 1,5,-1
 702 1401 l 1,6,-1
 544 1391 l 1,7,-1
 336 1597 l 1,0,-1
0 236 m 1,8,-1
 631 1069 l 1,9,-1
 291 1069 l 1,10,-1
 228 812 l 1,11,-1
 28 844 l 1,12,-1
 39 1244 l 1,13,-1
 1070 1244 l 1,14,-1
 1062 1089 l 1,15,-1
 377 206 l 1,16,-1
 735 176 l 1,17,-1
 922 457 l 1,18,-1
 1072 434 l 1,19,-1
 1011 0 l 1,20,-1
 13 0 l 1,21,-1
 0 236 l 1,8,-1
EndSplineSet
Colour: ffffff
EndChar

StartChar: Zdotaccent
Encoding: 379 379 121
Width: 1072
VWidth: 0
Flags: HMW
LayerCount: 2
Fore
SplineSet
391 1544 m 0,0,1
 391 1604 391 1604 440.5 1650.5 c 128,-1,2
 490 1697 490 1697 604 1697 c 0,3,4
 718 1697 718 1697 768 1651.5 c 128,-1,5
 818 1606 818 1606 818 1547 c 0,6,7
 818 1391 818 1391 604 1391 c 0,8,9
 390 1391 390 1391 391 1544 c 0,0,1
0 236 m 1,10,-1
 631 1069 l 1,11,-1
 291 1069 l 1,12,-1
 228 812 l 1,13,-1
 28 844 l 1,14,-1
 39 1244 l 1,15,-1
 1070 1244 l 1,16,-1
 1062 1089 l 1,17,-1
 377 206 l 1,18,-1
 735 176 l 1,19,-1
 922 457 l 1,20,-1
 1072 434 l 1,21,-1
 1011 0 l 1,22,-1
 13 0 l 1,23,-1
 0 236 l 1,10,-1
EndSplineSet
Colour: ffffff
EndChar

StartChar: a
Encoding: 97 97 122
Width: 932
VWidth: 0
Flags: HMW
LayerCount: 2
Back
SplineSet
0 188 m 4,0,1
 0 328 0 328 122 420.5 c 0
 244 513 244 513 458 512 c 1,2,-1
 458 607 l 2,3,4
 458 671 458 671 421.5 708.5 c 0
 385 746 385 746 343 746 c 0,5,6
 301 746 301 746 279 707 c 0
 257 668 257 668 239 568 c 1,7,8
 164 556 164 556 99 594 c 0
 34 632 34 632 34 713 c 0,9,10
 34 775 34 775 117 831.5 c 0
 200 888 200 888 302.5 918 c 0
 405 948 405 948 481 948 c 0,11,12
 565 948 565 948 620.5 930.5 c 0
 676 913 676 913 708 873.5 c 0
 740 834 740 834 753 779 c 0
 766 724 766 724 766 641 c 2,13,-1
 766 374 l 2,14,15
 766 299 766 299 792.5 269.5 c 0
 819 240 819 240 904 213 c 2,16,-1
 932 204 l 1,17,-1
 907 34 l 1,18,19
 843 4 843 4 791 -10 c 0
 739 -24 739 -24 671 -24 c 0,20,21
 519 -24 519 -24 469 106 c 2,22,-1
 464 119 l 1,23,-1
 451 125 l 1,24,25
 428 65 428 65 354 21 c 0
 280 -23 280 -23 201 -23 c 0,26,27
 117 -23 117 -23 58.5 31 c 0
 0 85 0 85 0 188 c 4,0,1
458 234 m 5,28,-1
 458 398 l 1,29,30
 374 388 374 388 335 353 c 0
 296 318 296 318 296 279 c 0,31,32
 296 248 296 248 317.5 226.5 c 0
 339 205 339 205 376 205 c 0,33,34
 417 205 417 205 458 234 c 5,28,-1
EndSplineSet
Fore
SplineSet
296 283 m 128,-1,1
 296 248 296 248 317.5 226.5 c 128,-1,2
 339 205 339 205 378 205 c 128,-1,3
 417 205 417 205 458 234 c 1,4,-1
 458 398 l 1,5,6
 374 388 374 388 335 353 c 128,-1,0
 296 318 296 318 296 283 c 128,-1,1
0 188 m 0,7,8
 0 328 0 328 122.5 420.5 c 128,-1,9
 245 513 245 513 458 512 c 1,10,-1
 458 607 l 2,11,12
 458 676 458 676 421 723 c 128,-1,13
 384 770 384 770 340 770 c 128,-1,14
 296 770 296 770 277.5 722.5 c 128,-1,15
 259 675 259 675 250 552 c 1,16,17
 88 552 88 552 50 616 c 0,18,19
 34 642 34 642 34 690.5 c 128,-1,20
 34 739 34 739 105 802 c 128,-1,21
 176 865 176 865 284.5 907 c 128,-1,22
 393 949 393 949 504.5 949 c 128,-1,23
 616 949 616 949 691 876 c 128,-1,24
 766 803 766 803 766 641 c 2,25,-1
 766 374 l 2,26,27
 766 285 766 285 783 254.5 c 128,-1,28
 800 224 800 224 864 210 c 2,29,-1
 892 204 l 1,30,-1
 867 34 l 1,31,32
 818 2 818 2 805.5 -2 c 128,-1,33
 793 -6 793 -6 780.5 -11 c 128,-1,34
 768 -16 768 -16 759.5 -17 c 128,-1,35
 751 -18 751 -18 735.5 -21 c 128,-1,36
 720 -24 720 -24 662 -24 c 0,37,38
 550 -24 550 -24 499 106 c 1,39,-1
 494 119 l 1,40,-1
 481 125 l 1,41,42
 459 66 459 66 380 21.5 c 128,-1,43
 301 -23 301 -23 209 -23 c 128,-1,44
 117 -23 117 -23 58.5 29.5 c 128,-1,45
 0 82 0 82 0 188 c 0,7,8
EndSplineSet
Colour: ffffff
EndChar

StartChar: aacute
Encoding: 225 225 123
Width: 932
VWidth: 0
Flags: HMW
LayerCount: 2
Fore
SplineSet
343 1084 m 1,0,-1
 498 1409 l 1,1,-1
 718 1395 l 1,2,-1
 487 1063 l 1,3,-1
 343 1084 l 1,0,-1
296 283 m 128,-1,5
 296 248 296 248 317.5 226.5 c 128,-1,6
 339 205 339 205 378 205 c 128,-1,7
 417 205 417 205 458 234 c 1,8,-1
 458 398 l 1,9,10
 374 388 374 388 335 353 c 128,-1,4
 296 318 296 318 296 283 c 128,-1,5
0 188 m 0,11,12
 0 328 0 328 122.5 420.5 c 128,-1,13
 245 513 245 513 458 512 c 1,14,-1
 458 607 l 2,15,16
 458 676 458 676 421 723 c 128,-1,17
 384 770 384 770 340 770 c 128,-1,18
 296 770 296 770 277.5 722.5 c 128,-1,19
 259 675 259 675 250 552 c 1,20,21
 88 552 88 552 50 616 c 0,22,23
 34 642 34 642 34 690.5 c 128,-1,24
 34 739 34 739 105 802 c 128,-1,25
 176 865 176 865 284.5 907 c 128,-1,26
 393 949 393 949 504.5 949 c 128,-1,27
 616 949 616 949 691 876 c 128,-1,28
 766 803 766 803 766 641 c 2,29,-1
 766 374 l 2,30,31
 766 285 766 285 783 254.5 c 128,-1,32
 800 224 800 224 864 210 c 2,33,-1
 892 204 l 1,34,-1
 867 34 l 1,35,36
 818 2 818 2 805.5 -2 c 128,-1,37
 793 -6 793 -6 780.5 -11 c 128,-1,38
 768 -16 768 -16 759.5 -17 c 128,-1,39
 751 -18 751 -18 735.5 -21 c 128,-1,40
 720 -24 720 -24 662 -24 c 0,41,42
 550 -24 550 -24 499 106 c 1,43,-1
 494 119 l 1,44,-1
 481 125 l 1,45,46
 459 66 459 66 380 21.5 c 128,-1,47
 301 -23 301 -23 209 -23 c 128,-1,48
 117 -23 117 -23 58.5 29.5 c 128,-1,49
 0 82 0 82 0 188 c 0,11,12
EndSplineSet
Colour: ffffff
EndChar

StartChar: abreve
Encoding: 259 259 124
Width: 932
VWidth: 0
Flags: HMW
LayerCount: 2
Fore
SplineSet
457 1240 m 128,-1,1
 488 1240 488 1240 505.5 1251.5 c 128,-1,2
 523 1263 523 1263 529.5 1274.5 c 128,-1,3
 536 1286 536 1286 545 1307 c 1,4,-1
 718 1266 l 1,5,6
 701 1176 701 1176 632.5 1119.5 c 128,-1,7
 564 1063 564 1063 463 1063 c 0,8,9
 256 1063 256 1063 204 1271 c 1,10,-1
 383 1307 l 1,11,12
 388 1281 388 1281 407 1260.5 c 128,-1,0
 426 1240 426 1240 457 1240 c 128,-1,1
296 283 m 128,-1,14
 296 248 296 248 317.5 226.5 c 128,-1,15
 339 205 339 205 378 205 c 128,-1,16
 417 205 417 205 458 234 c 1,17,-1
 458 398 l 1,18,19
 374 388 374 388 335 353 c 128,-1,13
 296 318 296 318 296 283 c 128,-1,14
0 188 m 0,20,21
 0 328 0 328 122.5 420.5 c 128,-1,22
 245 513 245 513 458 512 c 1,23,-1
 458 607 l 2,24,25
 458 676 458 676 421 723 c 128,-1,26
 384 770 384 770 340 770 c 128,-1,27
 296 770 296 770 277.5 722.5 c 128,-1,28
 259 675 259 675 250 552 c 1,29,30
 88 552 88 552 50 616 c 0,31,32
 34 642 34 642 34 690.5 c 128,-1,33
 34 739 34 739 105 802 c 128,-1,34
 176 865 176 865 284.5 907 c 128,-1,35
 393 949 393 949 504.5 949 c 128,-1,36
 616 949 616 949 691 876 c 128,-1,37
 766 803 766 803 766 641 c 2,38,-1
 766 374 l 2,39,40
 766 285 766 285 783 254.5 c 128,-1,41
 800 224 800 224 864 210 c 2,42,-1
 892 204 l 1,43,-1
 867 34 l 1,44,45
 818 2 818 2 805.5 -2 c 128,-1,46
 793 -6 793 -6 780.5 -11 c 128,-1,47
 768 -16 768 -16 759.5 -17 c 128,-1,48
 751 -18 751 -18 735.5 -21 c 128,-1,49
 720 -24 720 -24 662 -24 c 0,50,51
 550 -24 550 -24 499 106 c 1,52,-1
 494 119 l 1,53,-1
 481 125 l 1,54,55
 459 66 459 66 380 21.5 c 128,-1,56
 301 -23 301 -23 209 -23 c 128,-1,57
 117 -23 117 -23 58.5 29.5 c 128,-1,58
 0 82 0 82 0 188 c 0,20,21
EndSplineSet
Colour: ffffff
EndChar

StartChar: acaron
Encoding: 462 462 125
Width: 932
VWidth: 0
Flags: HMW
LayerCount: 2
Fore
SplineSet
162 1279 m 1,0,-1
 347 1316 l 1,1,-1
 460 1231 l 1,2,-1
 470 1231 l 1,3,-1
 566 1313 l 1,4,-1
 738 1284 l 1,5,-1
 528 1083 l 1,6,-1
 370 1073 l 1,7,-1
 162 1279 l 1,0,-1
296 283 m 128,-1,9
 296 248 296 248 317.5 226.5 c 128,-1,10
 339 205 339 205 378 205 c 128,-1,11
 417 205 417 205 458 234 c 1,12,-1
 458 398 l 1,13,14
 374 388 374 388 335 353 c 128,-1,8
 296 318 296 318 296 283 c 128,-1,9
0 188 m 0,15,16
 0 328 0 328 122.5 420.5 c 128,-1,17
 245 513 245 513 458 512 c 1,18,-1
 458 607 l 2,19,20
 458 676 458 676 421 723 c 128,-1,21
 384 770 384 770 340 770 c 128,-1,22
 296 770 296 770 277.5 722.5 c 128,-1,23
 259 675 259 675 250 552 c 1,24,25
 88 552 88 552 50 616 c 0,26,27
 34 642 34 642 34 690.5 c 128,-1,28
 34 739 34 739 105 802 c 128,-1,29
 176 865 176 865 284.5 907 c 128,-1,30
 393 949 393 949 504.5 949 c 128,-1,31
 616 949 616 949 691 876 c 128,-1,32
 766 803 766 803 766 641 c 2,33,-1
 766 374 l 2,34,35
 766 285 766 285 783 254.5 c 128,-1,36
 800 224 800 224 864 210 c 2,37,-1
 892 204 l 1,38,-1
 867 34 l 1,39,40
 818 2 818 2 805.5 -2 c 128,-1,41
 793 -6 793 -6 780.5 -11 c 128,-1,42
 768 -16 768 -16 759.5 -17 c 128,-1,43
 751 -18 751 -18 735.5 -21 c 128,-1,44
 720 -24 720 -24 662 -24 c 0,45,46
 550 -24 550 -24 499 106 c 1,47,-1
 494 119 l 1,48,-1
 481 125 l 1,49,50
 459 66 459 66 380 21.5 c 128,-1,51
 301 -23 301 -23 209 -23 c 128,-1,52
 117 -23 117 -23 58.5 29.5 c 128,-1,53
 0 82 0 82 0 188 c 0,15,16
EndSplineSet
Colour: ffffff
EndChar

StartChar: acircumflex
Encoding: 226 226 126
Width: 932
VWidth: 0
Flags: HMW
LayerCount: 2
Fore
SplineSet
156 1083 m 1,0,-1
 327 1278 l 1,1,-1
 504 1298 l 1,2,-1
 708 1093 l 1,3,-1
 557 1034 l 1,4,-1
 418 1135 l 1,5,-1
 404 1135 l 1,6,-1
 301 1033 l 1,7,-1
 156 1083 l 1,0,-1
296 283 m 128,-1,9
 296 248 296 248 317.5 226.5 c 128,-1,10
 339 205 339 205 378 205 c 128,-1,11
 417 205 417 205 458 234 c 1,12,-1
 458 398 l 1,13,14
 374 388 374 388 335 353 c 128,-1,8
 296 318 296 318 296 283 c 128,-1,9
0 188 m 0,15,16
 0 328 0 328 122.5 420.5 c 128,-1,17
 245 513 245 513 458 512 c 1,18,-1
 458 607 l 2,19,20
 458 676 458 676 421 723 c 128,-1,21
 384 770 384 770 340 770 c 128,-1,22
 296 770 296 770 277.5 722.5 c 128,-1,23
 259 675 259 675 250 552 c 1,24,25
 88 552 88 552 50 616 c 0,26,27
 34 642 34 642 34 690.5 c 128,-1,28
 34 739 34 739 105 802 c 128,-1,29
 176 865 176 865 284.5 907 c 128,-1,30
 393 949 393 949 504.5 949 c 128,-1,31
 616 949 616 949 691 876 c 128,-1,32
 766 803 766 803 766 641 c 2,33,-1
 766 374 l 2,34,35
 766 285 766 285 783 254.5 c 128,-1,36
 800 224 800 224 864 210 c 2,37,-1
 892 204 l 1,38,-1
 867 34 l 1,39,40
 818 2 818 2 805.5 -2 c 128,-1,41
 793 -6 793 -6 780.5 -11 c 128,-1,42
 768 -16 768 -16 759.5 -17 c 128,-1,43
 751 -18 751 -18 735.5 -21 c 128,-1,44
 720 -24 720 -24 662 -24 c 0,45,46
 550 -24 550 -24 499 106 c 1,47,-1
 494 119 l 1,48,-1
 481 125 l 1,49,50
 459 66 459 66 380 21.5 c 128,-1,51
 301 -23 301 -23 209 -23 c 128,-1,52
 117 -23 117 -23 58.5 29.5 c 128,-1,53
 0 82 0 82 0 188 c 0,15,16
EndSplineSet
Colour: ffffff
EndChar

StartChar: acute
Encoding: 180 180 127
Width: 317
VWidth: 0
Flags: HMW
LayerCount: 2
Fore
SplineSet
-1 1389 m 1,0,-1
 154 1714 l 1,1,-1
 374 1700 l 1,2,-1
 143 1368 l 1,3,-1
 -1 1389 l 1,0,-1
EndSplineSet
Colour: ffffff
EndChar

StartChar: adieresis
Encoding: 228 228 128
Width: 932
VWidth: 0
Flags: HMW
LayerCount: 2
Fore
SplineSet
441 1180 m 0,0,1
 441 1219 441 1219 462 1243 c 0,2,3
 501 1287 501 1287 579 1287 c 0,4,5
 689 1287 689 1287 716 1218 c 0,6,7
 723 1201 723 1201 722 1182 c 0,8,9
 722 1073 722 1073 581.5 1073 c 128,-1,10
 441 1073 441 1073 441 1180 c 0,0,1
132 1180 m 0,11,12
 132 1219 132 1219 153 1243 c 0,13,14
 192 1287 192 1287 270 1287 c 0,15,16
 380 1287 380 1287 407 1218 c 0,17,18
 414 1201 414 1201 413 1182 c 0,19,20
 413 1073 413 1073 272.5 1073 c 128,-1,21
 132 1073 132 1073 132 1180 c 0,11,12
296 283 m 128,-1,23
 296 248 296 248 317.5 226.5 c 128,-1,24
 339 205 339 205 378 205 c 128,-1,25
 417 205 417 205 458 234 c 1,26,-1
 458 398 l 1,27,28
 374 388 374 388 335 353 c 128,-1,22
 296 318 296 318 296 283 c 128,-1,23
0 188 m 0,29,30
 0 328 0 328 122.5 420.5 c 128,-1,31
 245 513 245 513 458 512 c 1,32,-1
 458 607 l 2,33,34
 458 676 458 676 421 723 c 128,-1,35
 384 770 384 770 340 770 c 128,-1,36
 296 770 296 770 277.5 722.5 c 128,-1,37
 259 675 259 675 250 552 c 1,38,39
 88 552 88 552 50 616 c 0,40,41
 34 642 34 642 34 690.5 c 128,-1,42
 34 739 34 739 105 802 c 128,-1,43
 176 865 176 865 284.5 907 c 128,-1,44
 393 949 393 949 504.5 949 c 128,-1,45
 616 949 616 949 691 876 c 128,-1,46
 766 803 766 803 766 641 c 2,47,-1
 766 374 l 2,48,49
 766 285 766 285 783 254.5 c 128,-1,50
 800 224 800 224 864 210 c 2,51,-1
 892 204 l 1,52,-1
 867 34 l 1,53,54
 818 2 818 2 805.5 -2 c 128,-1,55
 793 -6 793 -6 780.5 -11 c 128,-1,56
 768 -16 768 -16 759.5 -17 c 128,-1,57
 751 -18 751 -18 735.5 -21 c 128,-1,58
 720 -24 720 -24 662 -24 c 0,59,60
 550 -24 550 -24 499 106 c 1,61,-1
 494 119 l 1,62,-1
 481 125 l 1,63,64
 459 66 459 66 380 21.5 c 128,-1,65
 301 -23 301 -23 209 -23 c 128,-1,66
 117 -23 117 -23 58.5 29.5 c 128,-1,67
 0 82 0 82 0 188 c 0,29,30
EndSplineSet
Colour: ffffff
EndChar

StartChar: ae
Encoding: 230 230 129
Width: 1292
VWidth: 0
Flags: HMW
LayerCount: 2
Fore
SplineSet
948 605.5 m 128,-1,1
 948 662 948 662 928 702.5 c 128,-1,2
 908 743 908 743 865 743 c 0,3,4
 769 743 769 743 772 516 c 1,5,-1
 942 531 l 1,6,0
 948 549 948 549 948 605.5 c 128,-1,1
296 283 m 128,-1,8
 296 248 296 248 317.5 227 c 128,-1,9
 339 206 339 206 379 206 c 128,-1,10
 419 206 419 206 458 234 c 1,11,-1
 458 398 l 1,12,13
 374 388 374 388 335 353 c 128,-1,7
 296 318 296 318 296 283 c 128,-1,8
775 397 m 1,14,15
 787 199 787 199 1045 199 c 0,16,17
 1176 199 1176 199 1273 255 c 1,18,-1
 1292 122 l 1,19,20
 1249 65 1249 65 1171 29 c 0,21,22
 1041 -31 1041 -31 891 -31 c 128,-1,23
 741 -31 741 -31 660 14.5 c 128,-1,24
 579 60 579 60 523 141 c 1,25,26
 436 -23 436 -23 201 -23 c 0,27,28
 117 -23 117 -23 58.5 31 c 128,-1,29
 0 85 0 85 0 188 c 0,30,31
 0 328 0 328 122 420.5 c 128,-1,32
 244 513 244 513 458 512 c 1,33,-1
 458 607 l 2,34,35
 458 671 458 671 421.5 708.5 c 128,-1,36
 385 746 385 746 343 746 c 128,-1,37
 301 746 301 746 279 707 c 128,-1,38
 257 668 257 668 239 568 c 1,39,40
 164 556 164 556 99 594 c 128,-1,41
 34 632 34 632 34 703.5 c 128,-1,42
 34 775 34 775 117 831.5 c 128,-1,43
 200 888 200 888 302.5 918 c 128,-1,44
 405 948 405 948 481 948 c 0,45,46
 636 948 636 948 701 882 c 1,47,48
 814 950 814 950 938 950 c 0,49,50
 1098 950 1098 950 1186 847.5 c 128,-1,51
 1274 745 1274 745 1274 580 c 0,52,53
 1274 510 1274 510 1253 401 c 1,54,-1
 775 397 l 1,14,15
EndSplineSet
Colour: ffffff
EndChar

StartChar: agrave
Encoding: 224 224 130
Width: 932
VWidth: 0
Flags: HMW
LayerCount: 2
Fore
SplineSet
136 1412 m 1,0,-1
 354 1452 l 1,1,-1
 504 1104 l 1,2,-1
 345 1073 l 1,3,-1
 136 1412 l 1,0,-1
296 283 m 128,-1,5
 296 248 296 248 317.5 226.5 c 128,-1,6
 339 205 339 205 378 205 c 128,-1,7
 417 205 417 205 458 234 c 1,8,-1
 458 398 l 1,9,10
 374 388 374 388 335 353 c 128,-1,4
 296 318 296 318 296 283 c 128,-1,5
0 188 m 0,11,12
 0 328 0 328 122.5 420.5 c 128,-1,13
 245 513 245 513 458 512 c 1,14,-1
 458 607 l 2,15,16
 458 676 458 676 421 723 c 128,-1,17
 384 770 384 770 340 770 c 128,-1,18
 296 770 296 770 277.5 722.5 c 128,-1,19
 259 675 259 675 250 552 c 1,20,21
 88 552 88 552 50 616 c 0,22,23
 34 642 34 642 34 690.5 c 128,-1,24
 34 739 34 739 105 802 c 128,-1,25
 176 865 176 865 284.5 907 c 128,-1,26
 393 949 393 949 504.5 949 c 128,-1,27
 616 949 616 949 691 876 c 128,-1,28
 766 803 766 803 766 641 c 2,29,-1
 766 374 l 2,30,31
 766 285 766 285 783 254.5 c 128,-1,32
 800 224 800 224 864 210 c 2,33,-1
 892 204 l 1,34,-1
 867 34 l 1,35,36
 818 2 818 2 805.5 -2 c 128,-1,37
 793 -6 793 -6 780.5 -11 c 128,-1,38
 768 -16 768 -16 759.5 -17 c 128,-1,39
 751 -18 751 -18 735.5 -21 c 128,-1,40
 720 -24 720 -24 662 -24 c 0,41,42
 550 -24 550 -24 499 106 c 1,43,-1
 494 119 l 1,44,-1
 481 125 l 1,45,46
 459 66 459 66 380 21.5 c 128,-1,47
 301 -23 301 -23 209 -23 c 128,-1,48
 117 -23 117 -23 58.5 29.5 c 128,-1,49
 0 82 0 82 0 188 c 0,11,12
EndSplineSet
Colour: ffffff
EndChar

StartChar: amacron
Encoding: 257 257 131
Width: 932
VWidth: 0
Flags: HMW
LayerCount: 2
Fore
SplineSet
244 1073 m 1,0,-1
 265 1268 l 1,1,-1
 718 1268 l 1,2,-1
 696 1073 l 1,3,-1
 244 1073 l 1,0,-1
296 283 m 128,-1,5
 296 248 296 248 317.5 226.5 c 128,-1,6
 339 205 339 205 378 205 c 128,-1,7
 417 205 417 205 458 234 c 1,8,-1
 458 398 l 1,9,10
 374 388 374 388 335 353 c 128,-1,4
 296 318 296 318 296 283 c 128,-1,5
0 188 m 0,11,12
 0 328 0 328 122.5 420.5 c 128,-1,13
 245 513 245 513 458 512 c 1,14,-1
 458 607 l 2,15,16
 458 676 458 676 421 723 c 128,-1,17
 384 770 384 770 340 770 c 128,-1,18
 296 770 296 770 277.5 722.5 c 128,-1,19
 259 675 259 675 250 552 c 1,20,21
 88 552 88 552 50 616 c 0,22,23
 34 642 34 642 34 690.5 c 128,-1,24
 34 739 34 739 105 802 c 128,-1,25
 176 865 176 865 284.5 907 c 128,-1,26
 393 949 393 949 504.5 949 c 128,-1,27
 616 949 616 949 691 876 c 128,-1,28
 766 803 766 803 766 641 c 2,29,-1
 766 374 l 2,30,31
 766 285 766 285 783 254.5 c 128,-1,32
 800 224 800 224 864 210 c 2,33,-1
 892 204 l 1,34,-1
 867 34 l 1,35,36
 818 2 818 2 805.5 -2 c 128,-1,37
 793 -6 793 -6 780.5 -11 c 128,-1,38
 768 -16 768 -16 759.5 -17 c 128,-1,39
 751 -18 751 -18 735.5 -21 c 128,-1,40
 720 -24 720 -24 662 -24 c 0,41,42
 550 -24 550 -24 499 106 c 1,43,-1
 494 119 l 1,44,-1
 481 125 l 1,45,46
 459 66 459 66 380 21.5 c 128,-1,47
 301 -23 301 -23 209 -23 c 128,-1,48
 117 -23 117 -23 58.5 29.5 c 128,-1,49
 0 82 0 82 0 188 c 0,11,12
EndSplineSet
Colour: ffffff
EndChar

StartChar: ampersand
Encoding: 38 38 132
Width: 1386
VWidth: 0
Flags: HMW
LayerCount: 2
Fore
SplineSet
460 1029 m 0,0,1
 460 964 460 964 574 846 c 1,2,3
 611 902 611 902 611 969 c 128,-1,4
 611 1036 611 1036 585.5 1069 c 128,-1,5
 560 1102 560 1102 529.5 1102 c 128,-1,6
 499 1102 499 1102 479.5 1082 c 128,-1,7
 460 1062 460 1062 460 1029 c 0,0,1
332 399 m 128,-1,9
 332 314 332 314 380.5 259 c 128,-1,10
 429 204 429 204 503.5 204 c 128,-1,11
 578 204 578 204 651 293 c 1,12,-1
 422 546 l 1,13,-1
 413 550 l 1,14,8
 332 484 332 484 332 399 c 128,-1,9
0 269.5 m 128,-1,16
 0 333 0 333 11.5 378.5 c 128,-1,17
 23 424 23 424 47 460 c 0,18,19
 98 537 98 537 162 579.5 c 128,-1,20
 226 622 226 622 309 664 c 1,21,22
 252 716 252 716 221.5 792 c 128,-1,23
 191 868 191 868 191 940.5 c 128,-1,24
 191 1013 191 1013 225.5 1078.5 c 128,-1,25
 260 1144 260 1144 316 1186 c 0,26,27
 435 1274 435 1274 565.5 1273.5 c 128,-1,28
 696 1273 696 1273 776.5 1208.5 c 128,-1,29
 857 1144 857 1144 857 1031.5 c 128,-1,30
 857 919 857 919 817.5 852 c 128,-1,31
 778 785 778 785 702 731 c 1,32,-1
 702 715 l 1,33,-1
 848 563 l 1,34,-1
 978 741 l 1,35,-1
 897 780 l 1,36,-1
 921 940 l 1,37,-1
 1386 940 l 1,38,-1
 1364 780 l 1,39,-1
 1190 722 l 1,40,-1
 977 429 l 1,41,42
 1189 208 1189 208 1289 162 c 2,43,-1
 1335 141 l 1,44,-1
 1305 6 l 1,45,46
 1283 -1 1283 -1 1222.5 -9.5 c 128,-1,47
 1162 -18 1162 -18 1124 -18 c 0,48,49
 939 -18 939 -18 811 120 c 2,50,-1
 777 157 l 1,51,52
 703 68 703 68 596.5 19.5 c 128,-1,53
 490 -29 490 -29 402.5 -29 c 128,-1,54
 315 -29 315 -29 263 -21.5 c 128,-1,55
 211 -14 211 -14 160.5 6.5 c 128,-1,56
 110 27 110 27 76 60.5 c 128,-1,57
 42 94 42 94 21 150 c 128,-1,15
 0 206 0 206 0 269.5 c 128,-1,16
EndSplineSet
Colour: ffffff
EndChar

StartChar: ampersand.osf
Encoding: 65537 -1 133
Width: 1057
VWidth: 0
Flags: HMW
LayerCount: 2
Fore
SplineSet
371.5 167 m 128,-1,1
 432 167 432 167 497 203 c 1,2,-1
 309 400 l 1,3,4
 257 345 257 345 257 289.5 c 128,-1,5
 257 234 257 234 284 200.5 c 128,-1,0
 311 167 311 167 371.5 167 c 128,-1,1
88 743 m 0,6,7
 88 819 88 819 131.5 884.5 c 128,-1,8
 175 950 175 950 248 988 c 128,-1,9
 321 1026 321 1026 420.5 1026 c 128,-1,10
 520 1026 520 1026 600.5 964.5 c 128,-1,11
 681 903 681 903 681 808 c 0,12,13
 681 655 681 655 522 546 c 1,14,-1
 678 385 l 1,15,16
 699 416 699 416 718 452 c 1,17,-1
 664 519 l 1,18,-1
 689 656 l 1,19,-1
 1057 656 l 1,20,-1
 1035 519 l 1,21,-1
 897 456 l 1,22,23
 836 360 836 360 775 284 c 1,24,-1
 794 264 l 2,25,26
 869 186 869 186 1010 151 c 2,27,-1
 1034 145 l 1,28,-1
 1003 11 l 1,29,30
 925 -13 925 -13 838 -13 c 0,31,32
 711 -13 711 -13 591 101 c 1,33,34
 433 -18 433 -18 258 -18 c 0,35,36
 -40 -18 -40 -18 -40 217 c 0,37,38
 -40 309 -40 309 10 371 c 1,39,40
 49 423 49 423 104.5 455.5 c 128,-1,41
 160 488 160 488 204 510 c 1,42,-1
 183 532 l 2,43,44
 88 631 88 631 88 743 c 0,6,7
365 905 m 128,-1,46
 350 905 350 905 335.5 880.5 c 128,-1,47
 321 856 321 856 321 819 c 0,48,49
 321 754 321 754 422 650 c 1,50,51
 461 698 461 698 461 747.5 c 128,-1,52
 461 797 461 797 450.5 826.5 c 128,-1,53
 440 856 440 856 424.5 872 c 128,-1,54
 409 888 409 888 394.5 896.5 c 128,-1,45
 380 905 380 905 365 905 c 128,-1,46
EndSplineSet
Colour: ffffff
EndChar

StartChar: aogonek
Encoding: 261 261 134
Width: 932
VWidth: 0
Flags: HMW
LayerCount: 2
Fore
SplineSet
296 283 m 128,-1,1
 296 248 296 248 317.5 226.5 c 128,-1,2
 339 205 339 205 378 205 c 128,-1,3
 417 205 417 205 458 234 c 1,4,-1
 458 398 l 1,5,6
 374 388 374 388 335 353 c 128,-1,0
 296 318 296 318 296 283 c 128,-1,1
624 -155.5 m 128,-1,8
 624 -85 624 -85 693 -24 c 1,9,10
 687 -24 687 -24 681 -24 c 0,11,12
 604 -24 604 -24 564 8.5 c 128,-1,13
 524 41 524 41 494 119 c 1,14,-1
 481 125 l 1,15,16
 459 66 459 66 380 21.5 c 128,-1,17
 301 -23 301 -23 209 -23 c 128,-1,18
 117 -23 117 -23 58.5 29.5 c 128,-1,19
 0 82 0 82 0 188 c 0,20,21
 0 328 0 328 122.5 420.5 c 128,-1,22
 245 513 245 513 458 512 c 1,23,-1
 458 607 l 2,24,25
 458 676 458 676 421 723 c 128,-1,26
 384 770 384 770 340 770 c 128,-1,27
 296 770 296 770 277.5 722.5 c 128,-1,28
 259 675 259 675 250 552 c 1,29,30
 88 552 88 552 50 616 c 0,31,32
 34 642 34 642 34 690.5 c 128,-1,33
 34 739 34 739 105 802 c 128,-1,34
 176 865 176 865 284.5 907 c 128,-1,35
 393 949 393 949 504.5 949 c 128,-1,36
 616 949 616 949 691 876 c 128,-1,37
 766 803 766 803 766 641 c 2,38,-1
 766 374 l 2,39,40
 766 285 766 285 783 254.5 c 128,-1,41
 800 224 800 224 864 210 c 2,42,-1
 892 204 l 1,43,-1
 868 39 l 1,44,-1
 899 39 l 1,45,46
 826 -145 826 -145 965 -264 c 1,47,-1
 940 -359 l 1,48,49
 759 -348 759 -348 671 -268 c 0,50,7
 624 -226 624 -226 624 -155.5 c 128,-1,8
EndSplineSet
Colour: ffffff
EndChar

StartChar: approxequal
Encoding: 8776 8776 135
Width: 964
VWidth: 0
Flags: HMW
LayerCount: 2
Back
SplineSet
70 283 m 1,0,1
 68 316 68 316 79.5 352 c 0
 91 388 91 388 113.5 419.5 c 0
 136 451 136 451 175 469 c 0
 214 487 214 487 260 482 c 2,2,-1
 709 438 l 2,3,4
 738 435 738 435 760.5 450 c 0
 783 465 783 465 792 498 c 1,5,-1
 856 497 l 1,6,7
 858 405 858 405 804.5 345.5 c 0
 751 286 751 286 658 295 c 2,8,-1
 208 340 l 2,9,10
 176 343 176 343 155 318.5 c 0
 134 294 134 294 126 270 c 1,11,-1
 70 283 l 1,0,1
70 540 m 1,12,13
 65 627 65 627 115.5 687 c 0
 166 747 166 747 260 738 c 2,14,-1
 709 694 l 2,15,16
 774 687 774 687 792 755 c 1,17,-1
 856 753 l 1,18,19
 860 656 860 656 811 599 c 0
 762 542 762 542 658 552 c 2,20,-1
 208 596 l 2,21,22
 178 599 178 599 157.5 581.5 c 0
 137 564 137 564 131.5 545.5 c 2
 126 527 l 1,23,-1
 70 540 l 1,12,13
EndSplineSet
Fore
SplineSet
3 322 m 1,0,1
 -11 451 -11 451 34 555 c 0,2,3
 78 659 78 659 196 684 c 0,4,5
 256 697 256 697 339 676 c 2,6,-1
 681 593 l 2,7,8
 729 582 729 582 770 646 c 0,9,10
 779 661 779 661 787 682 c 1,11,-1
 961 664 l 1,12,13
 959 455 959 455 865 371.5 c 128,-1,14
 771 288 771 288 587 336 c 2,15,-1
 272 418 l 2,16,17
 225 430 225 430 206 393 c 0,18,19
 186 356 186 356 181 312 c 1,20,-1
 3 322 l 1,0,1
3 725 m 1,21,22
 -11 854 -11 854 34 958 c 0,23,24
 78 1062 78 1062 196 1087 c 0,25,26
 256 1100 256 1100 339 1079 c 2,27,-1
 681 996 l 2,28,29
 729 985 729 985 770 1049 c 0,30,31
 779 1064 779 1064 787 1085 c 1,32,-1
 961 1067 l 1,33,34
 959 858 959 858 865 774.5 c 128,-1,35
 771 691 771 691 587 739 c 2,36,-1
 272 821 l 2,37,38
 225 833 225 833 206 796 c 0,39,40
 186 759 186 759 181 715 c 1,41,-1
 3 725 l 1,21,22
EndSplineSet
Colour: ffffff
EndChar

StartChar: aring
Encoding: 229 229 136
Width: 932
VWidth: 0
Flags: HMW
LayerCount: 2
Fore
SplineSet
348 1240 m 0,0,1
 348 1183 348 1183 426 1183 c 0,2,3
 456 1183 456 1183 479 1198 c 128,-1,4
 502 1213 502 1213 502 1240 c 128,-1,5
 502 1267 502 1267 477.5 1283 c 128,-1,6
 453 1299 453 1299 422.5 1299 c 128,-1,7
 392 1299 392 1299 370 1282 c 128,-1,8
 348 1265 348 1265 348 1240 c 0,0,1
416 1073 m 0,9,10
 156 1073 156 1073 156 1239 c 0,11,12
 156 1315 156 1315 224 1363.5 c 128,-1,13
 292 1412 292 1412 430 1412 c 0,14,15
 706 1412 706 1412 706 1248 c 0,16,17
 706 1178 706 1178 637 1125.5 c 128,-1,18
 568 1073 568 1073 416 1073 c 0,9,10
296 283 m 128,-1,20
 296 248 296 248 317.5 226.5 c 128,-1,21
 339 205 339 205 378 205 c 128,-1,22
 417 205 417 205 458 234 c 1,23,-1
 458 398 l 1,24,25
 374 388 374 388 335 353 c 128,-1,19
 296 318 296 318 296 283 c 128,-1,20
0 188 m 0,26,27
 0 328 0 328 122.5 420.5 c 128,-1,28
 245 513 245 513 458 512 c 1,29,-1
 458 607 l 2,30,31
 458 676 458 676 421 723 c 128,-1,32
 384 770 384 770 340 770 c 128,-1,33
 296 770 296 770 277.5 722.5 c 128,-1,34
 259 675 259 675 250 552 c 1,35,36
 88 552 88 552 50 616 c 0,37,38
 34 642 34 642 34 690.5 c 128,-1,39
 34 739 34 739 105 802 c 128,-1,40
 176 865 176 865 284.5 907 c 128,-1,41
 393 949 393 949 504.5 949 c 128,-1,42
 616 949 616 949 691 876 c 128,-1,43
 766 803 766 803 766 641 c 2,44,-1
 766 374 l 2,45,46
 766 285 766 285 783 254.5 c 128,-1,47
 800 224 800 224 864 210 c 2,48,-1
 892 204 l 1,49,-1
 867 34 l 1,50,51
 818 2 818 2 805.5 -2 c 128,-1,52
 793 -6 793 -6 780.5 -11 c 128,-1,53
 768 -16 768 -16 759.5 -17 c 128,-1,54
 751 -18 751 -18 735.5 -21 c 128,-1,55
 720 -24 720 -24 662 -24 c 0,56,57
 550 -24 550 -24 499 106 c 1,58,-1
 494 119 l 1,59,-1
 481 125 l 1,60,61
 459 66 459 66 380 21.5 c 128,-1,62
 301 -23 301 -23 209 -23 c 128,-1,63
 117 -23 117 -23 58.5 29.5 c 128,-1,64
 0 82 0 82 0 188 c 0,26,27
EndSplineSet
Colour: ffffff
EndChar

StartChar: asciicircum
Encoding: 94 94 137
Width: 640
VWidth: 0
Flags: HMW
LayerCount: 2
Fore
SplineSet
0 825 m 1,0,-1
 241 1237 l 1,1,-1
 385 1250 l 1,2,-1
 640 823 l 1,3,-1
 518 789 l 1,4,-1
 302 963 l 1,5,-1
 291 963 l 1,6,-1
 114 796 l 1,7,-1
 0 825 l 1,0,-1
EndSplineSet
Colour: ffffff
EndChar

StartChar: asciitilde
Encoding: 126 126 138
Width: 824
VWidth: 0
Flags: HMW
LayerCount: 2
Fore
SplineSet
3 282 m 1,0,1
 -12 413 -12 413 34 537 c 0,2,3
 79 661 79 661 196 698 c 0,4,5
 256 717 256 717 339 696 c 2,6,-1
 681 613 l 1,7,8
 730 603 730 603 770 666 c 0,9,10
 780 681 780 681 787 702 c 1,11,-1
 961 684 l 1,12,13
 960 388 960 388 792 306 c 0,14,15
 706 264 706 264 587 296 c 2,16,-1
 272 378 l 2,17,18
 234 388 234 388 212 362 c 0,19,20
 190 336 190 336 186 304 c 2,21,-1
 181 272 l 1,22,-1
 3 282 l 1,0,1
EndSplineSet
Colour: ffffff
EndChar

StartChar: asterisk
Encoding: 42 42 139
Width: 740
VWidth: 0
Flags: HMW
LayerCount: 2
Fore
SplineSet
0 913 m 1,0,-1
 82 1088 l 1,1,-1
 315 993 l 1,2,-1
 260 1300 l 1,3,-1
 449 1275 l 1,4,-1
 423 1005 l 1,5,-1
 703 1175 l 1,6,-1
 740 989 l 1,7,-1
 485 906 l 1,8,-1
 727 714 l 1,9,-1
 556 623 l 1,10,-1
 411 824 l 1,11,-1
 285 548 l 1,12,-1
 146 686 l 1,13,-1
 317 876 l 1,14,-1
 0 913 l 1,0,-1
EndSplineSet
Colour: ffffff
EndChar

StartChar: at
Encoding: 64 64 140
Width: 1426
VWidth: 0
Flags: HMW
LayerCount: 2
Fore
SplineSet
621 395 m 0,0,1
 621 294 621 294 674 294 c 0,2,3
 688 294 688 294 729 306 c 1,4,-1
 773 648 l 1,5,6
 771 647 771 647 770.5 647.5 c 128,-1,7
 770 648 770 648 763 653.5 c 128,-1,8
 756 659 756 659 730.5 659 c 128,-1,9
 705 659 705 659 679.5 625.5 c 128,-1,10
 654 592 654 592 637.5 522.5 c 128,-1,11
 621 453 621 453 621 395 c 0,0,1
341 322 m 128,-1,13
 341 423 341 423 372.5 501 c 128,-1,14
 404 579 404 579 465 646 c 128,-1,15
 526 713 526 713 629.5 754.5 c 128,-1,16
 733 796 733 796 839.5 796 c 128,-1,17
 946 796 946 796 1025 778 c 1,18,-1
 1041 761 l 1,19,-1
 1001 395 l 1,20,21
 986 276 986 276 1004 254 c 0,22,23
 1013 244 1013 244 1045.5 243.5 c 128,-1,24
 1078 243 1078 243 1113 280 c 128,-1,25
 1148 317 1148 317 1178 401 c 128,-1,26
 1208 485 1208 485 1208 567 c 0,27,28
 1208 896 1208 896 811 894 c 0,29,30
 547 893 547 893 397.5 746 c 128,-1,31
 248 599 248 599 248 375.5 c 128,-1,32
 248 152 248 152 377.5 43.5 c 128,-1,33
 507 -65 507 -65 783 -65 c 0,34,35
 902 -65 902 -65 990.5 -47 c 128,-1,36
 1079 -29 1079 -29 1144 26 c 1,37,-1
 1189 -84 l 1,38,39
 1104 -149 1104 -149 976.5 -185 c 128,-1,40
 849 -221 849 -221 709 -221 c 0,41,42
 378 -221 378 -221 189 -71.5 c 128,-1,43
 0 78 0 78 0 315 c 128,-1,44
 0 552 0 552 161 741 c 128,-1,45
 322 930 322 930 583 1004 c 0,46,47
 724 1044 724 1044 846 1043.5 c 128,-1,48
 968 1043 968 1043 1048 1029 c 0,49,50
 1220 999 1220 999 1334 898.5 c 128,-1,51
 1448 798 1448 798 1448 637.5 c 128,-1,52
 1448 477 1448 477 1376.5 350 c 128,-1,53
 1305 223 1305 223 1185.5 147.5 c 128,-1,54
 1066 72 1066 72 932 72 c 0,55,56
 857 72 857 72 810 92 c 0,57,58
 722 128 722 128 724 197 c 1,59,-1
 713 197 l 1,60,61
 636 86 636 86 528 86 c 0,62,63
 449 86 449 86 395 153.5 c 128,-1,12
 341 221 341 221 341 322 c 128,-1,13
EndSplineSet
Colour: ffffff
EndChar

StartChar: atilde
Encoding: 227 227 141
Width: 932
VWidth: 0
Flags: HMW
LayerCount: 2
Fore
SplineSet
129 1079 m 1,0,1
 119 1157 119 1157 141 1211 c 128,-1,2
 163 1265 163 1265 190 1290 c 0,3,4
 252 1348 252 1348 352 1325 c 1,5,-1
 579 1276 l 2,6,7
 620 1267 620 1267 649 1329 c 1,8,-1
 764 1318 l 1,9,10
 763 1190 763 1190 698.5 1124.5 c 128,-1,11
 634 1059 634 1059 516 1087 c 2,12,-1
 307 1136 l 2,13,14
 258 1148 258 1148 247 1073 c 1,15,-1
 129 1079 l 1,0,1
296 283 m 128,-1,17
 296 248 296 248 317.5 226.5 c 128,-1,18
 339 205 339 205 378 205 c 128,-1,19
 417 205 417 205 458 234 c 1,20,-1
 458 398 l 1,21,22
 374 388 374 388 335 353 c 128,-1,16
 296 318 296 318 296 283 c 128,-1,17
0 188 m 0,23,24
 0 328 0 328 122.5 420.5 c 128,-1,25
 245 513 245 513 458 512 c 1,26,-1
 458 607 l 2,27,28
 458 676 458 676 421 723 c 128,-1,29
 384 770 384 770 340 770 c 128,-1,30
 296 770 296 770 277.5 722.5 c 128,-1,31
 259 675 259 675 250 552 c 1,32,33
 88 552 88 552 50 616 c 0,34,35
 34 642 34 642 34 690.5 c 128,-1,36
 34 739 34 739 105 802 c 128,-1,37
 176 865 176 865 284.5 907 c 128,-1,38
 393 949 393 949 504.5 949 c 128,-1,39
 616 949 616 949 691 876 c 128,-1,40
 766 803 766 803 766 641 c 2,41,-1
 766 374 l 2,42,43
 766 285 766 285 783 254.5 c 128,-1,44
 800 224 800 224 864 210 c 2,45,-1
 892 204 l 1,46,-1
 867 34 l 1,47,48
 818 2 818 2 805.5 -2 c 128,-1,49
 793 -6 793 -6 780.5 -11 c 128,-1,50
 768 -16 768 -16 759.5 -17 c 128,-1,51
 751 -18 751 -18 735.5 -21 c 128,-1,52
 720 -24 720 -24 662 -24 c 0,53,54
 550 -24 550 -24 499 106 c 1,55,-1
 494 119 l 1,56,-1
 481 125 l 1,57,58
 459 66 459 66 380 21.5 c 128,-1,59
 301 -23 301 -23 209 -23 c 128,-1,60
 117 -23 117 -23 58.5 29.5 c 128,-1,61
 0 82 0 82 0 188 c 0,23,24
EndSplineSet
Colour: ffffff
EndChar

StartChar: b
Encoding: 98 98 142
Width: 1078
VWidth: 0
Flags: HMW
LayerCount: 2
Back
SplineSet
-184 0 m 1,0,-1
 -167 157 l 1,1,-1
 -25 229 l 1,2,-1
 -25 640 l 1,3,-1
 -167 721 l 1,4,-1
 -140 889 l 1,5,-1
 263 918 l 1,6,-1
 301 879 l 1,7,-1
 278 777 l 1,8,-1
 293 771 l 1,9,10
 368.469 849.75 368.469 849.75 435.821 889.184 c 0
 503.173 928.617 503.173 928.617 582.449 928.617 c 0,11,12
 697.883 928.617 697.883 928.617 762.942 859.476 c 0
 828 790.336 828 790.336 828 641 c 2,13,-1
 828 229 l 1,14,-1
 976 165 l 1,15,-1
 953 0 l 1,16,-1
 517 0 l 1,17,-1
 517 157 l 1,18,-1
 517 229 l 1,19,-1
 517 429 l 2,20,21
 517 522.379 517 522.379 493.633 562.203 c 0
 470.266 602.028 470.266 602.028 422.271 602.028 c 0,22,23
 349.976 602.028 349.976 602.028 293 552 c 1,24,-1
 293 229 l 1,25,-1
 416 166 l 1,26,-1
 388 0 l 1,27,-1
 -184 0 l 1,0,-1
EndSplineSet
Fore
SplineSet
585.5 202 m 128,-1,1
 647 202 647 202 688 270.5 c 128,-1,2
 729 339 729 339 729 433.5 c 128,-1,3
 729 528 729 528 698.5 586.5 c 128,-1,4
 668 645 668 645 606.5 645 c 128,-1,5
 545 645 545 645 461 578 c 1,6,-1
 461 259 l 1,7,0
 524 202 524 202 585.5 202 c 128,-1,1
725 930 m 0,8,9
 886 930 886 930 982 810 c 128,-1,10
 1078 690 1078 690 1078 516.5 c 128,-1,11
 1078 343 1078 343 998.5 222.5 c 128,-1,12
 919 102 919 102 793 39.5 c 128,-1,13
 667 -23 667 -23 522 -23 c 0,14,15
 439 -23 439 -23 324.5 -4 c 128,-1,16
 210 15 210 15 145 51 c 1,17,-1
 145 986 l 1,18,-1
 0 1086 l 1,19,-1
 28 1251 l 1,20,-1
 404 1277 l 1,21,-1
 461 1223 l 1,22,-1
 461 878 l 1,23,-1
 446 777 l 1,24,-1
 461 771 l 1,25,26
 534 852 534 852 591.5 891 c 128,-1,27
 649 930 649 930 725 930 c 0,8,9
EndSplineSet
Colour: ffffff
EndChar

StartChar: backslash
Encoding: 92 92 143
Width: 696
VWidth: 0
Flags: HMW
LayerCount: 2
Fore
SplineSet
0 1333 m 1,0,-1
 235 1316 l 1,1,-1
 696 -410 l 1,2,-1
 469 -397 l 1,3,-1
 0 1333 l 1,0,-1
EndSplineSet
Colour: ffffff
EndChar

StartChar: bar
Encoding: 124 124 144
Width: 196
VWidth: 0
Flags: HMW
LayerCount: 2
Fore
SplineSet
0 -363 m 1,0,-1
 0 1260 l 1,1,-1
 196 1248 l 1,2,-1
 196 -379 l 1,3,-1
 0 -363 l 1,0,-1
EndSplineSet
Colour: ffffff
EndChar

StartChar: braceleft
Encoding: 123 123 145
Width: 677
VWidth: 0
Flags: HMW
LayerCount: 2
Fore
SplineSet
432 -379 m 2,0,1
 348 -379 348 -379 295.5 -343 c 128,-1,2
 243 -307 243 -307 223 -248 c 128,-1,3
 203 -189 203 -189 196 -117 c 0,4,5
 190 -45 190 -45 188 29 c 0,6,7
 186 102 186 102 178 166 c 0,8,9
 161 312 161 312 61 333 c 2,10,-1
 0 346 l 1,11,-1
 0 545 l 1,12,-1
 58 557 l 2,13,14
 155 577 155 577 174.5 687 c 128,-1,15
 194 797 194 797 194 894 c 0,16,17
 194 1058 194 1058 239 1156.5 c 128,-1,18
 284 1255 284 1255 430 1255 c 2,19,-1
 670 1255 l 1,20,-1
 664 1052 l 1,21,-1
 531 1049 l 2,22,23
 498 1048 498 1048 488.5 991.5 c 128,-1,24
 479 935 479 935 480.5 852.5 c 128,-1,25
 482 770 482 770 478.5 685.5 c 128,-1,26
 475 601 475 601 443 536 c 128,-1,27
 411 471 411 471 346 459 c 1,28,-1
 346 446 l 1,29,30
 401 410 401 410 431.5 348 c 128,-1,31
 462 286 462 286 468 220 c 0,32,33
 478 98 478 98 475.5 -34.5 c 128,-1,34
 473 -167 473 -167 541 -169 c 2,35,-1
 665 -173 l 1,36,-1
 677 -379 l 1,37,-1
 432 -379 l 2,0,1
EndSplineSet
Colour: ffffff
EndChar

StartChar: braceright
Encoding: 125 125 146
Width: 677
VWidth: 0
Flags: HMW
LayerCount: 2
Fore
SplineSet
247 1255 m 2,0,1
 393 1255 393 1255 438 1156.5 c 128,-1,2
 483 1058 483 1058 483 961 c 0,3,4
 483 797 483 797 502.5 687 c 128,-1,5
 522 577 522 577 619 557 c 2,6,-1
 677 545 l 1,7,-1
 677 346 l 1,8,-1
 616 333 l 2,9,10
 516 312 516 312 498 166 c 0,11,12
 490 102 490 102 489 28.5 c 128,-1,13
 488 -45 488 -45 481 -117 c 128,-1,14
 474 -189 474 -189 454 -248 c 128,-1,15
 434 -307 434 -307 381.5 -343 c 128,-1,16
 329 -379 329 -379 245 -379 c 2,17,-1
 0 -379 l 1,18,-1
 12 -173 l 1,19,-1
 136 -169 l 2,20,21
 204 -167 204 -167 201.5 -34.5 c 128,-1,22
 199 98 199 98 207 192 c 0,23,24
 222 375 222 375 331 446 c 1,25,-1
 331 459 l 1,26,27
 266 471 266 471 234 536 c 128,-1,28
 202 601 202 601 198.5 685.5 c 128,-1,29
 195 770 195 770 196.5 852.5 c 128,-1,30
 198 935 198 935 188.5 991.5 c 128,-1,31
 179 1048 179 1048 146 1049 c 2,32,-1
 13 1052 l 1,33,-1
 7 1255 l 1,34,-1
 247 1255 l 2,0,1
EndSplineSet
Colour: ffffff
EndChar

StartChar: bracketleft
Encoding: 91 91 147
Width: 477
VWidth: 0
Flags: HMW
LayerCount: 2
Fore
SplineSet
477 -214 m 1,0,-1
 449 -378 l 1,1,-1
 0 -378 l 1,2,-1
 4 1255 l 1,3,-1
 440 1255 l 1,4,-1
 470 1094 l 1,5,-1
 231 1075 l 1,6,-1
 231 -193 l 1,7,-1
 477 -214 l 1,0,-1
EndSplineSet
Colour: ffffff
EndChar

StartChar: bracketright
Encoding: 93 93 148
Width: 477
VWidth: 0
Flags: HMW
LayerCount: 2
Back
SplineSet
-189 -217 m 5,0,-1
 -159 -378 l 1,1,-1
 267 -378 l 1,2,-1
 271 1255 l 1,3,-1
 -169 1255 l 1,4,-1
 -187 1050 l 1,5,-1
 40 1034 l 1,6,-1
 40 -198 l 1,7,-1
 -189 -217 l 5,0,-1
EndSplineSet
Fore
SplineSet
0 -214 m 1,0,-1
 246 -193 l 1,1,-1
 246 1075 l 1,2,-1
 7 1094 l 1,3,-1
 37 1255 l 1,4,-1
 473 1255 l 1,5,-1
 477 -378 l 1,6,-1
 28 -378 l 1,7,-1
 0 -214 l 1,0,-1
EndSplineSet
Colour: ffffff
EndChar

StartChar: breve
Encoding: 728 728 149
Width: 404
VWidth: 0
Flags: HMW
LayerCount: 2
Fore
SplineSet
213 1548 m 128,-1,1
 244 1548 244 1548 261.5 1559.5 c 128,-1,2
 279 1571 279 1571 285.5 1582.5 c 128,-1,3
 292 1594 292 1594 301 1615 c 1,4,-1
 474 1574 l 1,5,6
 457 1484 457 1484 388.5 1427.5 c 128,-1,7
 320 1371 320 1371 219 1371 c 0,8,9
 12 1371 12 1371 -40 1579 c 1,10,-1
 139 1615 l 1,11,12
 144 1589 144 1589 163 1568.5 c 128,-1,0
 182 1548 182 1548 213 1548 c 128,-1,1
EndSplineSet
Colour: ffffff
EndChar

StartChar: brokenbar
Encoding: 166 166 150
Width: 219
VWidth: 0
Flags: HMW
LayerCount: 2
Fore
SplineSet
0 528 m 1,0,-1
 0 1274 l 1,1,-1
 216 1248 l 1,2,-1
 218 505 l 1,3,-1
 0 528 l 1,0,-1
0 -351 m 1,4,-1
 0 415 l 1,5,-1
 219 387 l 1,6,-1
 219 -379 l 1,7,-1
 0 -351 l 1,4,-1
EndSplineSet
Colour: ffffff
EndChar

StartChar: bullet
Encoding: 8226 8226 151
Width: 427
VWidth: 0
Flags: HMW
LayerCount: 2
Fore
SplineSet
-9 715 m 0,0,1
 -9 778 -9 778 25 817 c 0,2,3
 87 889 87 889 209 889 c 0,4,5
 382 889 382 889 425 776 c 0,6,7
 436 748 436 748 436 718 c 0,8,9
 436 637 436 637 383 589 c 128,-1,10
 330 541 330 541 208 541 c 0,11,12
 -9 541 -9 541 -9 715 c 0,0,1
EndSplineSet
Colour: ffffff
EndChar

StartChar: c
Encoding: 99 99 152
Width: 857
VWidth: 0
Flags: HMW
LayerCount: 2
Back
SplineSet
0 426 m 0,0,1
 0 552 0 552 50 657.5 c 0
 100 763 100 763 179.5 829 c 0
 259 895 259 895 352.5 931 c 0
 446 967 446 967 538 967 c 0,2,3
 684 967 684 967 758.5 896 c 0
 833 825 833 825 833 714 c 0,4,5
 833 630 833 630 779.5 579.5 c 0
 726 529 726 529 641 520 c 1,6,7
 606 624 606 624 573 678.5 c 0
 540 733 540 733 513 748.5 c 0
 486 764 486 764 446 764 c 0,8,9
 385 764 385 764 359 704.5 c 0
 333 645 333 645 333 515 c 0,10,11
 333 389 333 389 397.5 294.5 c 0
 462 200 462 200 573 200 c 0,12,13
 650 200 650 200 701.5 216.5 c 0
 753 233 753 233 817 271 c 1,14,-1
 857 167 l 1,15,16
 818 84 818 84 712.5 26.5 c 0
 607 -31 607 -31 482 -31 c 0,17,18
 0 -31 0 -31 0 426 c 0,0,1
EndSplineSet
Fore
SplineSet
0 426 m 0,0,1
 0 718 0 718 244 878 c 0,2,3
 381 968 381 968 522 967.5 c 128,-1,4
 663 967 663 967 743 898 c 128,-1,5
 823 829 823 829 823 736 c 128,-1,6
 823 643 823 643 767 601.5 c 128,-1,7
 711 560 711 560 621 550 c 1,8,9
 579 681 579 681 542 728.5 c 128,-1,10
 505 776 505 776 449 776 c 0,11,12
 333 776 333 776 333 515 c 0,13,14
 333 389 333 389 397.5 294.5 c 128,-1,15
 462 200 462 200 573 200 c 0,16,17
 650 200 650 200 701.5 216.5 c 128,-1,18
 753 233 753 233 817 271 c 1,19,-1
 857 167 l 1,20,21
 818 84 818 84 712.5 26.5 c 128,-1,22
 607 -31 607 -31 482 -31 c 0,23,24
 0 -31 0 -31 0 426 c 0,0,1
EndSplineSet
Colour: ffffff
EndChar

StartChar: cacute
Encoding: 263 263 153
Width: 857
VWidth: 0
Flags: HMW
LayerCount: 2
Fore
SplineSet
400 1100 m 1,0,-1
 555 1425 l 1,1,-1
 775 1411 l 1,2,-1
 544 1079 l 1,3,-1
 400 1100 l 1,0,-1
0 426 m 0,4,5
 0 718 0 718 244 878 c 0,6,7
 381 968 381 968 522 967.5 c 128,-1,8
 663 967 663 967 743 898 c 128,-1,9
 823 829 823 829 823 736 c 128,-1,10
 823 643 823 643 767 601.5 c 128,-1,11
 711 560 711 560 621 550 c 1,12,13
 579 681 579 681 542 728.5 c 128,-1,14
 505 776 505 776 449 776 c 0,15,16
 333 776 333 776 333 515 c 0,17,18
 333 389 333 389 397.5 294.5 c 128,-1,19
 462 200 462 200 573 200 c 0,20,21
 650 200 650 200 701.5 216.5 c 128,-1,22
 753 233 753 233 817 271 c 1,23,-1
 857 167 l 1,24,25
 818 84 818 84 712.5 26.5 c 128,-1,26
 607 -31 607 -31 482 -31 c 0,27,28
 0 -31 0 -31 0 426 c 0,4,5
EndSplineSet
Colour: ffffff
EndChar

StartChar: caron
Encoding: 711 711 154
Width: 446
VWidth: 0
Flags: HMW
LayerCount: 2
Fore
SplineSet
-21 1564 m 1,0,-1
 164 1601 l 1,1,-1
 277 1516 l 1,2,-1
 287 1516 l 1,3,-1
 383 1598 l 1,4,-1
 555 1569 l 1,5,-1
 345 1368 l 1,6,-1
 187 1358 l 1,7,-1
 -21 1564 l 1,0,-1
EndSplineSet
Colour: ffffff
EndChar

StartChar: ccaron
Encoding: 269 269 155
Width: 857
VWidth: 0
Flags: HMW
LayerCount: 2
Fore
SplineSet
179 1295 m 1,0,-1
 364 1332 l 1,1,-1
 477 1247 l 1,2,-1
 487 1247 l 1,3,-1
 583 1329 l 1,4,-1
 755 1300 l 1,5,-1
 545 1099 l 1,6,-1
 387 1089 l 1,7,-1
 179 1295 l 1,0,-1
0 426 m 0,8,9
 0 718 0 718 244 878 c 0,10,11
 381 968 381 968 522 967.5 c 128,-1,12
 663 967 663 967 743 898 c 128,-1,13
 823 829 823 829 823 736 c 128,-1,14
 823 643 823 643 767 601.5 c 128,-1,15
 711 560 711 560 621 550 c 1,16,17
 579 681 579 681 542 728.5 c 128,-1,18
 505 776 505 776 449 776 c 0,19,20
 333 776 333 776 333 515 c 0,21,22
 333 389 333 389 397.5 294.5 c 128,-1,23
 462 200 462 200 573 200 c 0,24,25
 650 200 650 200 701.5 216.5 c 128,-1,26
 753 233 753 233 817 271 c 1,27,-1
 857 167 l 1,28,29
 818 84 818 84 712.5 26.5 c 128,-1,30
 607 -31 607 -31 482 -31 c 0,31,32
 0 -31 0 -31 0 426 c 0,8,9
EndSplineSet
Colour: ffffff
EndChar

StartChar: ccedilla
Encoding: 231 231 156
Width: 857
VWidth: 0
Flags: HMW
LayerCount: 2
Fore
SplineSet
795 -194 m 0,0,1
 795 -250 795 -250 761 -285 c 0,2,3
 691 -356 691 -356 431 -356 c 1,4,-1
 395 -268 l 1,5,6
 453 -267 453 -267 492.5 -247.5 c 128,-1,7
 532 -228 532 -228 532 -204 c 0,8,9
 532 -165 532 -165 376 -112 c 1,10,-1
 480 -31 l 1,11,12
 0 -30 0 -30 0 426 c 0,13,14
 0 718 0 718 244 878 c 0,15,16
 381 968 381 968 522 967.5 c 128,-1,17
 663 967 663 967 743 898 c 128,-1,18
 823 829 823 829 823 736 c 128,-1,19
 823 643 823 643 767 601.5 c 128,-1,20
 711 560 711 560 621 550 c 1,21,22
 579 681 579 681 542 728.5 c 128,-1,23
 505 776 505 776 449 776 c 0,24,25
 333 776 333 776 333 515 c 0,26,27
 333 389 333 389 397.5 294.5 c 128,-1,28
 462 200 462 200 573 200 c 0,29,30
 650 200 650 200 701.5 216.5 c 128,-1,31
 753 233 753 233 817 271 c 1,32,-1
 857 167 l 1,33,34
 821 90 821 90 728 35 c 1,35,-1
 738 35 l 1,36,-1
 620 -51 l 1,37,38
 795 -66 795 -66 795 -194 c 0,0,1
EndSplineSet
Colour: ffffff
EndChar

StartChar: cdotaccent
Encoding: 267 267 157
Width: 857
VWidth: 0
Flags: HMW
LayerCount: 2
Fore
SplineSet
244 1242 m 0,0,1
 244 1297 244 1297 277 1332 c 0,2,3
 338 1395 338 1395 454 1395 c 0,4,5
 620 1395 620 1395 661 1296 c 0,6,7
 672 1272 672 1272 672 1245 c 0,8,9
 672 1089 672 1089 458 1089 c 128,-1,10
 244 1089 244 1089 244 1242 c 0,0,1
0 426 m 0,11,12
 0 718 0 718 244 878 c 0,13,14
 381 968 381 968 522 967.5 c 128,-1,15
 663 967 663 967 743 898 c 128,-1,16
 823 829 823 829 823 736 c 128,-1,17
 823 643 823 643 767 601.5 c 128,-1,18
 711 560 711 560 621 550 c 1,19,20
 579 681 579 681 542 728.5 c 128,-1,21
 505 776 505 776 449 776 c 0,22,23
 333 776 333 776 333 515 c 0,24,25
 333 389 333 389 397.5 294.5 c 128,-1,26
 462 200 462 200 573 200 c 0,27,28
 650 200 650 200 701.5 216.5 c 128,-1,29
 753 233 753 233 817 271 c 1,30,-1
 857 167 l 1,31,32
 818 84 818 84 712.5 26.5 c 128,-1,33
 607 -31 607 -31 482 -31 c 0,34,35
 0 -31 0 -31 0 426 c 0,11,12
EndSplineSet
Colour: ffffff
EndChar

StartChar: cedilla
Encoding: 184 184 158
Width: 379
VWidth: 0
Flags: HMW
LayerCount: 2
Fore
SplineSet
156 -236 m 0,0,1
 156 -197 156 -197 0 -144 c 1,2,-1
 188 3 l 1,3,-1
 362 3 l 1,4,-1
 244 -83 l 1,5,6
 419 -98 419 -98 419 -226 c 0,7,8
 419 -310 419 -310 336 -349 c 128,-1,9
 253 -388 253 -388 55 -388 c 1,10,-1
 19 -300 l 1,11,12
 77 -299 77 -299 116.5 -279.5 c 128,-1,13
 156 -260 156 -260 156 -236 c 0,0,1
EndSplineSet
Colour: ffffff
EndChar

StartChar: cent
Encoding: 162 162 159
Width: 867
VWidth: 0
Flags: HMW
LayerCount: 2
Fore
SplineSet
833 714 m 128,-1,1
 833 646 833 646 779.5 595.5 c 128,-1,2
 726 545 726 545 641 536 c 1,3,4
 588 693 588 693 544.5 751.5 c 128,-1,5
 501 810 501 810 446 810 c 0,6,7
 333 810 333 810 333 531 c 0,8,9
 333 406 333 406 397 318 c 128,-1,10
 461 230 461 230 573 230 c 0,11,12
 648 230 648 230 703 250 c 128,-1,13
 758 270 758 270 827 311 c 1,14,-1
 867 177 l 1,15,16
 834 106 834 106 747 49 c 128,-1,17
 660 -8 660 -8 555 -25 c 1,18,-1
 585 -250 l 1,19,-1
 356 -266 l 1,20,-1
 380 -24 l 1,21,22
 92 15 92 15 21 279 c 0,23,24
 -29 468 -29 468 29.5 635.5 c 128,-1,25
 88 803 88 803 236 909 c 0,26,27
 302 957 302 957 377 983 c 1,28,-1
 346 1232 l 1,29,-1
 573 1249 l 1,30,-1
 551 1012 l 1,31,32
 754 1006 754 1006 816 830 c 0,33,0
 833 782 833 782 833 714 c 128,-1,1
EndSplineSet
Colour: ffffff
EndChar

StartChar: circumflex
Encoding: 710 710 160
Width: 412
VWidth: 0
Flags: HMW
LayerCount: 2
Fore
SplineSet
-60 1365 m 1,0,-1
 111 1560 l 1,1,-1
 288 1580 l 1,2,-1
 492 1375 l 1,3,-1
 341 1316 l 1,4,-1
 202 1417 l 1,5,-1
 188 1417 l 1,6,-1
 85 1315 l 1,7,-1
 -60 1365 l 1,0,-1
EndSplineSet
Colour: ffffff
EndChar

StartChar: colon
Encoding: 58 58 161
Width: 405
VWidth: 0
Flags: HMW
LayerCount: 2
Fore
SplineSet
0 759 m 0,0,1
 0 811 0 811 29 844 c 0,2,3
 83 904 83 904 188 904 c 0,4,5
 337 904 337 904 375 810 c 0,6,7
 384 788 384 788 384 762 c 0,8,9
 384 614 384 614 192 614 c 128,-1,10
 0 614 0 614 0 759 c 0,0,1
0 144 m 0,11,12
 0 196 0 196 29 229 c 0,13,14
 83 289 83 289 188 289 c 0,15,16
 337 289 337 289 375 195 c 0,17,18
 384 172 384 172 384 146 c 0,19,20
 384 -2 384 -2 192 -1.5 c 128,-1,21
 0 -1 0 -1 0 144 c 0,11,12
EndSplineSet
Colour: ffffff
EndChar

StartChar: comma
Encoding: 44 44 162
Width: 445
VWidth: 0
Flags: HMW
LayerCount: 2
Back
SplineSet
0 127 m 0,0,1
 0 187 0 187 49.5 233.5 c 0
 99 280 99 280 209 280 c 0,2,3
 326 280 326 280 376.5 234.5 c 0
 427 189 427 189 427 130 c 0,4,5
 427 -26 427 -26 208 -26 c 0,6,7
 0 -26 0 -26 0 127 c 0,0,1
EndSplineSet
Fore
SplineSet
172 -85 m 128,-1,1
 172 -39 172 -39 147 -14.5 c 128,-1,2
 122 10 122 10 89.5 10 c 128,-1,3
 57 10 57 10 31 -3 c 1,4,5
 0 49 0 49 0 96 c 0,6,7
 -1 183 -1 183 55.5 230.5 c 128,-1,8
 112 278 112 278 202 278 c 0,9,10
 445 278 445 278 445 12 c 0,11,12
 445 -118 445 -118 347.5 -233.5 c 128,-1,13
 250 -349 250 -349 51 -377 c 1,14,-1
 7 -259 l 1,15,16
 88 -232 88 -232 130 -181.5 c 128,-1,0
 172 -131 172 -131 172 -85 c 128,-1,1
EndSplineSet
Colour: ffffff
EndChar

StartChar: commaaccent
Encoding: 806 806 163
Width: 275
VWidth: 0
Flags: HMW
LayerCount: 2
Fore
SplineSet
161 -85 m 0,0,1
 237 -85 237 -85 283 -120 c 128,-1,2
 329 -155 329 -155 329 -217 c 0,3,4
 330 -278 330 -278 278 -320 c 0,5,6
 178 -400 178 -400 -14 -390 c 1,7,-1
 -36 -330 l 1,8,9
 4 -324 4 -324 38 -306 c 128,-1,10
 72 -288 72 -288 72 -267.5 c 128,-1,11
 72 -247 72 -247 37 -232 c 128,-1,12
 2 -217 2 -217 -40 -211 c 1,13,14
 -17 -85 -17 -85 161 -85 c 0,0,1
EndSplineSet
Colour: ffffff
EndChar

StartChar: copyright
Encoding: 169 169 164
Width: 1389
VWidth: 0
Flags: HMW
LayerCount: 2
Fore
SplineSet
206 698 m 128,-1,1
 206 446 206 446 346.5 308 c 128,-1,2
 487 170 487 170 706.5 170 c 128,-1,3
 926 170 926 170 1069 302 c 0,4,5
 1138 366 1138 366 1178 466 c 128,-1,6
 1218 566 1218 566 1218 683 c 128,-1,7
 1218 800 1218 800 1187.5 897.5 c 128,-1,8
 1157 995 1157 995 1096.5 1073.5 c 128,-1,9
 1036 1152 1036 1152 934.5 1198 c 128,-1,10
 833 1244 833 1244 703 1244 c 0,11,12
 468 1244 468 1244 337 1097 c 128,-1,0
 206 950 206 950 206 698 c 128,-1,1
0 687 m 0,13,14
 0 850 0 850 56 984 c 0,15,16
 112 1118 112 1118 208 1209 c 0,17,18
 410 1397 410 1397 723 1397 c 128,-1,19
 1036 1397 1036 1397 1222.5 1206 c 128,-1,20
 1409 1015 1409 1015 1409 700 c 0,21,22
 1409 568 1409 568 1355 442.5 c 128,-1,23
 1301 317 1301 317 1208.5 221.5 c 128,-1,24
 1116 126 1116 126 984.5 68 c 128,-1,25
 853 10 853 10 708 10 c 0,26,27
 375 10 375 10 187.5 192.5 c 128,-1,28
 0 375 0 375 0 687 c 0,13,14
323 678 m 0,29,30
 323 922 323 922 527 1056 c 0,31,32
 642 1131 642 1131 760 1131 c 128,-1,33
 878 1131 878 1131 944.5 1073 c 128,-1,34
 1011 1015 1011 1015 1011 937 c 128,-1,35
 1011 859 1011 859 964.5 824.5 c 128,-1,36
 918 790 918 790 842 782 c 1,37,38
 806 892 806 892 775.5 931.5 c 128,-1,39
 745 971 745 971 698 971 c 0,40,41
 601 971 601 971 602 752 c 0,42,43
 602 604 602 604 693 528 c 0,44,45
 740 489 740 489 803.5 488.5 c 128,-1,46
 867 488 867 488 910 502 c 128,-1,47
 953 516 953 516 1006 548 c 1,48,-1
 1040 461 l 1,49,50
 1007 391 1007 391 919 343 c 128,-1,51
 831 295 831 295 726 295 c 0,52,53
 323 295 323 295 323 678 c 0,29,30
EndSplineSet
Colour: ffffff
EndChar

StartChar: currency
Encoding: 164 164 165
Width: 850
VWidth: 0
Flags: HMW
LayerCount: 2
Fore
SplineSet
321 490 m 128,-1,1
 321 436 321 436 353 400 c 128,-1,2
 385 364 385 364 428.5 364 c 128,-1,3
 472 364 472 364 503 397.5 c 128,-1,4
 534 431 534 431 534 486.5 c 128,-1,5
 534 542 534 542 503.5 576 c 128,-1,6
 473 610 473 610 429.5 610 c 128,-1,7
 386 610 386 610 353.5 577 c 128,-1,0
 321 544 321 544 321 490 c 128,-1,1
430 784 m 128,-1,9
 506 784 506 784 549 752 c 1,10,-1
 690 891 l 1,11,-1
 855 732 l 1,12,-1
 706 595 l 1,13,14
 730 552 730 552 730 486 c 128,-1,15
 730 420 730 420 701 372 c 1,16,-1
 860 221 l 1,17,-1
 684 71 l 1,18,-1
 539 226 l 1,19,20
 478 190 478 190 422.5 190 c 128,-1,21
 367 190 367 190 320 218 c 1,22,-1
 174 54 l 1,23,-1
 9 212 l 1,24,-1
 164 362 l 1,25,26
 129 412 129 412 129 478 c 128,-1,27
 129 544 129 544 156 589 c 1,28,-1
 0 733 l 1,29,-1
 166 886 l 1,30,-1
 305 741 l 1,31,8
 354 784 354 784 430 784 c 128,-1,9
EndSplineSet
Colour: ffffff
EndChar

StartChar: d
Encoding: 100 100 166
Width: 1064
VWidth: 0
Flags: HMW
LayerCount: 2
Back
SplineSet
24 188 m 0,0,1
 24 328 24 328 146 420.5 c 0
 268 513 268 513 482 512 c 1,2,-1
 482 607 l 2,3,4
 482 671.404 482 671.404 445.559 708.905 c 0
 409.117 746.405 409.117 746.405 367.311 746.405 c 0,5,6
 325.174 746.405 325.174 746.405 302.904 707.04 c 0
 280.635 667.676 280.635 667.676 263 568 c 1,7,8
 188 556 188 556 123 594 c 0
 58 632 58 632 58 713 c 0,9,10
 58 775 58 775 141 831.5 c 0
 224 888 224 888 326.5 918 c 0
 429 948 429 948 505 948 c 0,11,12
 589 948 589 948 644.5 930.5 c 0
 700 913 700 913 732 873.5 c 0
 764 834 764 834 777 779 c 0
 790 724 790 724 790 641 c 2,13,-1
 790 374 l 2,14,15
 790 299 790 299 817 269.5 c 0
 844 240 844 240 928 213 c 2,16,-1
 956 204 l 1,17,-1
 931 34 l 1,18,19
 867.48 4.21421 867.48 4.21421 815.283 -9.83139 c 0
 763.085 -23.877 763.085 -23.877 694.626 -23.877 c 0,20,21
 542.952 -23.877 542.952 -23.877 493 106 c 2,22,-1
 488 119 l 1,23,-1
 475 125 l 1,24,25
 452.699 64.9011 452.699 64.9011 378.582 21.1332 c 0
 304.465 -22.6348 304.465 -22.6348 224.929 -22.6348 c 0,26,27
 140.168 -22.6348 140.168 -22.6348 82.0839 31.3447 c 0
 24 85.3242 24 85.3242 24 188 c 0,0,1
482 234 m 1,28,-1
 482 398 l 1,29,30
 397.584 388.469 397.584 388.469 358.689 353.595 c 0
 319.793 318.721 319.793 318.721 319.793 279.474 c 0,31,32
 319.793 248.081 319.793 248.081 341.521 226.802 c 0
 363.249 205.522 363.249 205.522 400.331 205.522 c 0,33,34
 442.567 205.522 442.567 205.522 482 234 c 1,28,-1
EndSplineSet
Fore
SplineSet
337 466.5 m 128,-1,1
 337 379 337 379 373 316 c 128,-1,2
 409 253 409 253 468 253 c 128,-1,3
 527 253 527 253 592 291 c 1,4,-1
 592 610 l 1,5,6
 517 700 517 700 460 700 c 128,-1,7
 403 700 403 700 370 627 c 128,-1,0
 337 554 337 554 337 466.5 c 128,-1,1
463 911 m 128,-1,9
 560 911 560 911 602 883 c 1,10,-1
 606 883 l 1,11,-1
 596 956 l 1,12,-1
 596 987 l 1,13,-1
 423 1088 l 1,14,-1
 448 1252 l 1,15,-1
 838 1279 l 1,16,-1
 898 1224 l 1,17,-1
 898 375 l 2,18,19
 898 300 898 300 924.5 270.5 c 128,-1,20
 951 241 951 241 1036 214 c 2,21,-1
 1064 205 l 1,22,-1
 1039 35 l 1,23,24
 915 -23 915 -23 803 -23 c 0,25,26
 651 -23 651 -23 601 107 c 2,27,-1
 596 120 l 1,28,-1
 583 126 l 1,29,30
 534 58 534 58 476 20 c 0,31,32
 416 -18 416 -18 330 -19 c 0,33,34
 164 -19 164 -19 82 95 c 128,-1,35
 0 209 0 209 0 367 c 0,36,37
 0 575 0 575 116 735 c 0,38,39
 174 814 174 814 270 862.5 c 128,-1,8
 366 911 366 911 463 911 c 128,-1,9
EndSplineSet
Colour: ffffff
EndChar

StartChar: dagger
Encoding: 8224 8224 167
Width: 809
VWidth: 0
Flags: HMW
LayerCount: 2
Fore
SplineSet
0 666 m 1,0,-1
 7 860 l 1,1,-1
 302 853 l 1,2,-1
 298 1255 l 1,3,-1
 510 1244 l 1,4,-1
 503 853 l 1,5,-1
 809 860 l 1,6,-1
 800 657 l 1,7,-1
 503 667 l 1,8,-1
 516 -362 l 1,9,-1
 292 -351 l 1,10,-1
 302 671 l 1,11,-1
 0 666 l 1,0,-1
EndSplineSet
Colour: ffffff
EndChar

StartChar: daggerdbl
Encoding: 8225 8225 168
Width: 800
VWidth: 0
Flags: HMW
LayerCount: 2
Fore
SplineSet
0 666 m 1,0,-1
 4 862 l 1,1,-1
 298 856 l 1,2,-1
 290 1255 l 1,3,-1
 504 1244 l 1,4,-1
 489 856 l 1,5,-1
 793 862 l 1,6,-1
 788 660 l 1,7,-1
 489 669 l 1,8,-1
 478 430 l 1,9,-1
 482 212 l 1,10,-1
 800 217 l 1,11,-1
 793 19 l 1,12,-1
 482 26 l 1,13,-1
 496 -362 l 1,14,-1
 281 -351 l 1,15,-1
 291 26 l 1,16,-1
 1 19 l 1,17,-1
 12 224 l 1,18,-1
 291 210 l 1,19,-1
 301 497 l 1,20,-1
 298 674 l 1,21,-1
 0 666 l 1,0,-1
EndSplineSet
Colour: ffffff
EndChar

StartChar: dcaron
Encoding: 271 271 169
Width: 1692
VWidth: 0
Flags: HMW
LayerCount: 2
Fore
SplineSet
1139 901 m 128,-1,1
 1139 947 1139 947 1114 971.5 c 128,-1,2
 1089 996 1089 996 1056.5 996 c 128,-1,3
 1024 996 1024 996 998 983 c 1,4,5
 967 1035 967 1035 967 1082 c 0,6,7
 966 1169 966 1169 1022.5 1216.5 c 128,-1,8
 1079 1264 1079 1264 1169 1264 c 0,9,10
 1412 1264 1412 1264 1412 998 c 0,11,12
 1412 868 1412 868 1314.5 752.5 c 128,-1,13
 1217 637 1217 637 1018 609 c 1,14,-1
 974 727 l 1,15,16
 1055 754 1055 754 1097 804.5 c 128,-1,0
 1139 855 1139 855 1139 901 c 128,-1,1
337 466.5 m 128,-1,18
 337 379 337 379 373 316 c 128,-1,19
 409 253 409 253 468 253 c 128,-1,20
 527 253 527 253 592 291 c 1,21,-1
 592 610 l 1,22,23
 517 700 517 700 460 700 c 128,-1,24
 403 700 403 700 370 627 c 128,-1,17
 337 554 337 554 337 466.5 c 128,-1,18
463 911 m 128,-1,26
 560 911 560 911 602 883 c 1,27,-1
 606 883 l 1,28,-1
 596 956 l 1,29,-1
 596 987 l 1,30,-1
 423 1088 l 1,31,-1
 448 1252 l 1,32,-1
 838 1279 l 1,33,-1
 898 1224 l 1,34,-1
 898 375 l 2,35,36
 898 300 898 300 924.5 270.5 c 128,-1,37
 951 241 951 241 1036 214 c 2,38,-1
 1064 205 l 1,39,-1
 1039 35 l 1,40,41
 915 -23 915 -23 803 -23 c 0,42,43
 651 -23 651 -23 601 107 c 2,44,-1
 596 120 l 1,45,-1
 583 126 l 1,46,47
 534 58 534 58 476 20 c 0,48,49
 416 -18 416 -18 330 -19 c 0,50,51
 164 -19 164 -19 82 95 c 128,-1,52
 0 209 0 209 0 367 c 0,53,54
 0 575 0 575 116 735 c 0,55,56
 174 814 174 814 270 862.5 c 128,-1,25
 366 911 366 911 463 911 c 128,-1,26
EndSplineSet
Colour: ffffff
EndChar

StartChar: dcroat
Encoding: 273 273 170
Width: 1064
VWidth: 0
Flags: HMW
LayerCount: 2
Fore
SplineSet
337 466.5 m 128,-1,1
 337 379 337 379 373 316 c 128,-1,2
 409 253 409 253 468 253 c 128,-1,3
 527 253 527 253 592 291 c 1,4,-1
 592 610 l 1,5,6
 517 700 517 700 460 700 c 128,-1,7
 403 700 403 700 370 627 c 128,-1,0
 337 554 337 554 337 466.5 c 128,-1,1
463 911 m 128,-1,9
 560 911 560 911 602 883 c 1,10,-1
 606 883 l 1,11,-1
 596 956 l 1,12,-1
 596 972 l 1,13,-1
 423 1073 l 1,14,-1
 448 1237 l 1,15,-1
 838 1264 l 1,16,-1
 898 1209 l 1,17,-1
 898 1061 l 1,18,-1
 1049 1061 l 1,19,-1
 1031 856 l 1,20,-1
 898 856 l 1,21,-1
 898 375 l 2,22,23
 898 300 898 300 924.5 270.5 c 128,-1,24
 951 241 951 241 1036 214 c 2,25,-1
 1064 205 l 1,26,-1
 1039 35 l 1,27,28
 915 -23 915 -23 803 -23 c 0,29,30
 651 -23 651 -23 601 107 c 2,31,-1
 596 120 l 1,32,-1
 583 126 l 1,33,34
 534 58 534 58 476 20 c 0,35,36
 416 -18 416 -18 330 -19 c 0,37,38
 164 -19 164 -19 82 95 c 128,-1,39
 0 209 0 209 0 367 c 0,40,41
 0 575 0 575 116 735 c 0,42,43
 174 814 174 814 270 862.5 c 128,-1,8
 366 911 366 911 463 911 c 128,-1,9
EndSplineSet
Colour: ffffff
EndChar

StartChar: degree
Encoding: 176 176 171
Width: 424
VWidth: 0
Flags: HMW
LayerCount: 2
Fore
SplineSet
219 1023 m 0,0,1
 274 1023 274 1023 274 1109 c 0,2,3
 274 1149 274 1149 257 1179 c 128,-1,4
 240 1209 240 1209 211.5 1209 c 128,-1,5
 183 1209 183 1209 168 1186 c 128,-1,6
 153 1163 153 1163 153 1129 c 0,7,8
 153 1023 153 1023 219 1023 c 0,0,1
22 1103.5 m 128,-1,10
 22 1185 22 1185 83 1244.5 c 128,-1,11
 144 1304 144 1304 228 1304 c 128,-1,12
 312 1304 312 1304 364 1256.5 c 128,-1,13
 416 1209 416 1209 416 1126.5 c 128,-1,14
 416 1044 416 1044 350 986 c 128,-1,15
 284 928 284 928 203 928 c 128,-1,16
 122 928 122 928 72 975 c 128,-1,9
 22 1022 22 1022 22 1103.5 c 128,-1,10
EndSplineSet
Colour: ffffff
EndChar

StartChar: dieresis
Encoding: 168 168 172
Width: 594
VWidth: 0
Flags: HMW
LayerCount: 2
Back
SplineSet
0 1464 m 4,0,1
 0 1492 0 1492 54 1516.5 c 0
 108 1541 108 1541 146 1541 c 0,2,3
 190 1541 190 1541 239 1515.5 c 0
 288 1490 288 1490 288 1464 c 0,4,5
 288 1435 288 1435 235.5 1409 c 0
 183 1383 183 1383 143 1383 c 0,6,7
 102 1383 102 1383 51 1407.5 c 0
 0 1432 0 1432 0 1464 c 4,0,1
269 1464 m 4,8,9
 269 1492 269 1492 321.5 1516.5 c 0
 374 1541 374 1541 412 1541 c 0,10,11
 457 1541 457 1541 507.5 1515.5 c 0
 558 1490 558 1490 558 1464 c 0,12,13
 558 1435 558 1435 504.5 1409 c 0
 451 1383 451 1383 411 1383 c 0,14,15
 370 1383 370 1383 319.5 1407.5 c 0
 269 1432 269 1432 269 1464 c 4,8,9
EndSplineSet
Fore
SplineSet
309 1465 m 0,0,1
 309 1503 309 1503 331 1528 c 0,2,3
 370 1572 370 1572 447 1572 c 0,4,5
 557 1572 557 1572 584 1503 c 0,6,7
 591 1486 591 1486 591 1467 c 0,8,9
 591 1358 591 1358 450 1358 c 128,-1,10
 309 1358 309 1358 309 1465 c 0,0,1
0 1465 m 0,11,12
 0 1503 0 1503 22 1528 c 0,13,14
 61 1572 61 1572 138 1572 c 0,15,16
 248 1572 248 1572 275 1503 c 0,17,18
 282 1486 282 1486 282 1467 c 0,19,20
 282 1358 282 1358 141 1358 c 128,-1,21
 0 1358 0 1358 0 1465 c 0,11,12
EndSplineSet
Colour: ffffff
EndChar

StartChar: dieresiscomb
Encoding: 776 776 173
Width: 594
VWidth: 0
Flags: HMW
LayerCount: 2
Fore
SplineSet
309 1465 m 0,0,1
 309 1503 309 1503 331 1528 c 0,2,3
 370 1572 370 1572 447 1572 c 0,4,5
 557 1572 557 1572 584 1503 c 0,6,7
 591 1486 591 1486 591 1467 c 0,8,9
 591 1358 591 1358 450 1358 c 128,-1,10
 309 1358 309 1358 309 1465 c 0,0,1
0 1465 m 0,11,12
 0 1503 0 1503 22 1528 c 0,13,14
 61 1572 61 1572 138 1572 c 0,15,16
 248 1572 248 1572 275 1503 c 0,17,18
 282 1486 282 1486 282 1467 c 0,19,20
 282 1358 282 1358 141 1358 c 128,-1,21
 0 1358 0 1358 0 1465 c 0,11,12
EndSplineSet
Colour: ffffff
EndChar

StartChar: divide
Encoding: 247 247 174
Width: 823
VWidth: 0
Flags: HMW
LayerCount: 2
Fore
SplineSet
191 781 m 0,0,1
 191 841 191 841 240.5 887.5 c 128,-1,2
 290 934 290 934 404 934 c 0,3,4
 518 934 518 934 568 888.5 c 128,-1,5
 618 843 618 843 618 784 c 0,6,7
 618 628 618 628 404 628 c 0,8,9
 190 628 190 628 191 781 c 0,0,1
191 218 m 0,10,11
 191 278 191 278 240.5 324.5 c 128,-1,12
 290 371 290 371 404 371 c 0,13,14
 518 371 518 371 568 325.5 c 128,-1,15
 618 280 618 280 618 221 c 0,16,17
 618 65 618 65 404 65 c 0,18,19
 190 65 190 65 191 218 c 0,10,11
0 411 m 1,20,-1
 12 597 l 1,21,-1
 823 597 l 1,22,-1
 814 411 l 1,23,-1
 0 411 l 1,20,-1
EndSplineSet
Colour: ffffff
EndChar

StartChar: dollar
Encoding: 36 36 175
Width: 939
VWidth: 0
Flags: HMW
LayerCount: 2
Fore
SplineSet
939 378 m 128,-1,1
 939 325 939 325 915 263 c 0,2,3
 872 152 872 152 768.5 84.5 c 128,-1,4
 665 17 665 17 543 -9 c 1,5,-1
 545 -158 l 1,6,-1
 259 -183 l 1,7,-1
 292 -9 l 1,8,9
 200 11 200 11 117.5 51.5 c 128,-1,10
 35 92 35 92 0 136 c 1,11,-1
 34 468 l 1,12,-1
 211 439 l 1,13,-1
 273 212 l 1,14,15
 311 163 311 163 382 145 c 1,16,-1
 406 455 l 1,17,18
 380 466 380 466 316 502 c 128,-1,19
 252 538 252 538 230.5 552.5 c 128,-1,20
 209 567 209 567 177.5 590.5 c 128,-1,21
 146 614 146 614 128 634 c 0,22,23
 72 694 72 694 54 735 c 0,24,25
 -6 874 -6 874 53 1014 c 0,26,27
 141 1222 141 1222 419 1259 c 1,28,-1
 409 1390 l 1,29,-1
 697 1425 l 1,30,-1
 656 1253 l 1,31,32
 754 1233 754 1233 852 1187 c 1,33,-1
 824 835 l 1,34,-1
 651 865 l 1,35,-1
 612 1068 l 1,36,37
 597 1080 597 1080 557 1090 c 1,38,-1
 535 811 l 1,39,40
 553 801 553 801 588 783 c 128,-1,41
 623 765 623 765 644 754 c 128,-1,42
 665 743 665 743 698 724 c 128,-1,43
 731 705 731 705 752.5 690.5 c 128,-1,44
 774 676 774 676 801.5 655 c 128,-1,45
 829 634 829 634 847 614.5 c 128,-1,46
 865 595 865 595 884 569.5 c 128,-1,47
 903 544 903 544 914 518.5 c 128,-1,48
 925 493 925 493 932 462 c 128,-1,0
 939 431 939 431 939 378 c 128,-1,1
433.5 1105 m 128,-1,50
 407 1105 407 1105 378 1081 c 128,-1,51
 349 1057 349 1057 349 1007 c 0,52,53
 349 929 349 929 453 859 c 1,54,-1
 473 1104 l 1,55,49
 460 1105 460 1105 433.5 1105 c 128,-1,50
609 283 m 128,-1,57
 609 344 609 344 488 412 c 1,58,-1
 467 139 l 1,59,60
 529 146 529 146 569 184 c 128,-1,56
 609 222 609 222 609 283 c 128,-1,57
EndSplineSet
Colour: ffffff
EndChar

StartChar: dollar.osf
Encoding: 65538 -1 176
Width: 779
VWidth: 0
Flags: HMW
LayerCount: 2
Fore
SplineSet
764 779 m 128,-1,1
 764 709 764 709 707 664 c 128,-1,2
 650 619 650 619 573 611 c 1,3,-1
 540 697 l 2,4,5
 501 799 501 799 388 799 c 0,6,7
 349 799 349 799 326 780 c 128,-1,8
 303 761 303 761 303 734.5 c 128,-1,9
 303 708 303 708 329.5 685 c 128,-1,10
 356 662 356 662 397.5 641 c 128,-1,11
 439 620 439 620 490 596 c 0,12,13
 610 541 610 541 694.5 466.5 c 128,-1,14
 779 392 779 392 779 272 c 128,-1,15
 779 152 779 152 697.5 75.5 c 128,-1,16
 616 -1 616 -1 477 -25 c 1,17,-1
 498 -178 l 1,18,-1
 311 -196 l 1,19,-1
 333 -36 l 1,20,21
 150 -31 150 -31 50 62 c 0,22,23
 0 109 0 109 0 174 c 128,-1,24
 0 239 0 239 50 279.5 c 128,-1,25
 100 320 100 320 192 328 c 1,26,27
 220 229 220 229 268 176.5 c 128,-1,28
 316 124 316 124 375.5 124 c 128,-1,29
 435 124 435 124 459.5 137 c 128,-1,30
 484 150 484 150 484 179.5 c 128,-1,31
 484 209 484 209 459 231 c 128,-1,32
 434 253 434 253 394.5 273 c 128,-1,33
 355 293 355 293 307 316 c 0,34,35
 196 369 196 369 115 442 c 128,-1,36
 34 515 34 515 34 633 c 128,-1,37
 34 751 34 751 120 835.5 c 128,-1,38
 206 920 206 920 336 941 c 1,39,-1
 313 1068 l 1,40,-1
 503 1085 l 1,41,-1
 480 947 l 1,42,43
 611 940 611 940 687.5 894.5 c 128,-1,0
 764 849 764 849 764 779 c 128,-1,1
EndSplineSet
Colour: ffffff
EndChar

StartChar: dotaccent
Encoding: 729 729 177
Width: 427
VWidth: 0
Flags: HMW
LayerCount: 2
Fore
SplineSet
0 1473 m 0,0,1
 0 1534 0 1534 50 1580 c 0,2,3
 98 1626 98 1626 212 1626 c 128,-1,4
 326 1626 326 1626 376.5 1580.5 c 128,-1,5
 427 1535 427 1535 427 1476 c 0,6,7
 428 1320 428 1320 214 1320 c 128,-1,8
 0 1320 0 1320 0 1473 c 0,0,1
EndSplineSet
Colour: ffffff
EndChar

StartChar: dotaccentcomb
Encoding: 775 775 178
Width: 427
VWidth: 0
Flags: HMW
LayerCount: 2
Fore
SplineSet
0 1473 m 0,0,1
 0 1534 0 1534 50 1580 c 0,2,3
 98 1626 98 1626 212 1626 c 128,-1,4
 326 1626 326 1626 376.5 1580.5 c 128,-1,5
 427 1535 427 1535 427 1476 c 0,6,7
 428 1320 428 1320 214 1320 c 128,-1,8
 0 1320 0 1320 0 1473 c 0,0,1
EndSplineSet
Colour: ffffff
EndChar

StartChar: dotbelowcomb
Encoding: 803 803 179
Width: 389
VWidth: 0
Flags: HMW
LayerCount: 2
Fore
SplineSet
0 -256 m 0,0,1
 0 -208 0 -208 44 -171 c 128,-1,2
 88 -134 88 -134 191 -134 c 0,3,4
 294 -134 294 -134 339.5 -170.5 c 128,-1,5
 385 -207 385 -207 385 -254 c 0,6,7
 384 -378 384 -378 192 -378 c 0,8,9
 0 -378 0 -378 0 -256 c 0,0,1
EndSplineSet
Colour: ffffff
EndChar

StartChar: dotlessi
Encoding: 305 305 180
Width: 638
VWidth: 0
Flags: HMW
LayerCount: 2
Fore
SplineSet
0 0 m 1,0,-1
 8 176 l 1,1,-1
 162 230 l 1,2,-1
 162 571 l 1,3,-1
 14 676 l 1,4,-1
 47 854 l 1,5,-1
 420 880 l 1,6,-1
 476 819 l 1,7,-1
 476 230 l 1,8,-1
 638 174 l 1,9,-1
 627 0 l 1,10,-1
 0 0 l 1,0,-1
EndSplineSet
Colour: ffffff
EndChar

StartChar: e
Encoding: 101 101 181
Width: 845
VWidth: 0
Flags: HMW
LayerCount: 2
Fore
SplineSet
501 604 m 0,0,1
 500 742 500 742 414 743 c 0,2,3
 368 743 368 743 342.5 676 c 128,-1,4
 317 609 317 609 319 506 c 1,5,-1
 495 529 l 1,6,7
 501 546 501 546 501 604 c 0,0,1
578 199 m 0,9,10
 729 199 729 199 826 255 c 1,11,-1
 845 122 l 1,12,13
 802 65 802 65 724 29 c 0,14,15
 594 -31 594 -31 414 -31 c 128,-1,16
 234 -31 234 -31 117 88 c 128,-1,17
 0 207 0 207 0 430 c 0,18,19
 0 540 0 540 42.5 638.5 c 128,-1,20
 85 737 85 737 153.5 804.5 c 128,-1,21
 222 872 222 872 311 911 c 128,-1,22
 400 950 400 950 491 950 c 0,23,24
 651 950 651 950 739 847.5 c 128,-1,25
 827 745 827 745 827 580 c 0,26,27
 827 510 827 510 806 401 c 1,28,-1
 328 387 l 1,29,8
 340 199 340 199 578 199 c 0,9,10
EndSplineSet
Colour: ffffff
EndChar

StartChar: eacute
Encoding: 233 233 182
Width: 845
VWidth: 0
Flags: HMW
LayerCount: 2
Fore
SplineSet
336 1084 m 1,0,-1
 491 1409 l 1,1,-1
 711 1395 l 1,2,-1
 480 1063 l 1,3,-1
 336 1084 l 1,0,-1
501 604 m 0,4,5
 500 742 500 742 414 743 c 0,6,7
 368 743 368 743 342.5 676 c 128,-1,8
 317 609 317 609 319 506 c 1,9,-1
 495 529 l 1,10,11
 501 546 501 546 501 604 c 0,4,5
578 199 m 0,13,14
 729 199 729 199 826 255 c 1,15,-1
 845 122 l 1,16,17
 802 65 802 65 724 29 c 0,18,19
 594 -31 594 -31 414 -31 c 128,-1,20
 234 -31 234 -31 117 88 c 128,-1,21
 0 207 0 207 0 430 c 0,22,23
 0 540 0 540 42.5 638.5 c 128,-1,24
 85 737 85 737 153.5 804.5 c 128,-1,25
 222 872 222 872 311 911 c 128,-1,26
 400 950 400 950 491 950 c 0,27,28
 651 950 651 950 739 847.5 c 128,-1,29
 827 745 827 745 827 580 c 0,30,31
 827 510 827 510 806 401 c 1,32,-1
 328 387 l 1,33,12
 340 199 340 199 578 199 c 0,13,14
EndSplineSet
Colour: ffffff
EndChar

StartChar: ecaron
Encoding: 283 283 183
Width: 845
VWidth: 0
Flags: HMW
LayerCount: 2
Fore
SplineSet
162 1279 m 1,0,-1
 347 1316 l 1,1,-1
 460 1231 l 1,2,-1
 470 1231 l 1,3,-1
 566 1313 l 1,4,-1
 738 1284 l 1,5,-1
 528 1083 l 1,6,-1
 370 1073 l 1,7,-1
 162 1279 l 1,0,-1
501 604 m 0,8,9
 500 742 500 742 414 743 c 0,10,11
 368 743 368 743 342.5 676 c 128,-1,12
 317 609 317 609 319 506 c 1,13,-1
 495 529 l 1,14,15
 501 546 501 546 501 604 c 0,8,9
578 199 m 0,17,18
 729 199 729 199 826 255 c 1,19,-1
 845 122 l 1,20,21
 802 65 802 65 724 29 c 0,22,23
 594 -31 594 -31 414 -31 c 128,-1,24
 234 -31 234 -31 117 88 c 128,-1,25
 0 207 0 207 0 430 c 0,26,27
 0 540 0 540 42.5 638.5 c 128,-1,28
 85 737 85 737 153.5 804.5 c 128,-1,29
 222 872 222 872 311 911 c 128,-1,30
 400 950 400 950 491 950 c 0,31,32
 651 950 651 950 739 847.5 c 128,-1,33
 827 745 827 745 827 580 c 0,34,35
 827 510 827 510 806 401 c 1,36,-1
 328 387 l 1,37,16
 340 199 340 199 578 199 c 0,17,18
EndSplineSet
Colour: ffffff
EndChar

StartChar: ecircumflex
Encoding: 234 234 184
Width: 845
VWidth: 0
Flags: HMW
LayerCount: 2
Fore
SplineSet
141 1083 m 1,0,-1
 312 1278 l 1,1,-1
 489 1298 l 1,2,-1
 693 1093 l 1,3,-1
 542 1034 l 1,4,-1
 403 1135 l 1,5,-1
 389 1135 l 1,6,-1
 286 1033 l 1,7,-1
 141 1083 l 1,0,-1
501 604 m 0,8,9
 500 742 500 742 414 743 c 0,10,11
 368 743 368 743 342.5 676 c 128,-1,12
 317 609 317 609 319 506 c 1,13,-1
 495 529 l 1,14,15
 501 546 501 546 501 604 c 0,8,9
578 199 m 0,17,18
 729 199 729 199 826 255 c 1,19,-1
 845 122 l 1,20,21
 802 65 802 65 724 29 c 0,22,23
 594 -31 594 -31 414 -31 c 128,-1,24
 234 -31 234 -31 117 88 c 128,-1,25
 0 207 0 207 0 430 c 0,26,27
 0 540 0 540 42.5 638.5 c 128,-1,28
 85 737 85 737 153.5 804.5 c 128,-1,29
 222 872 222 872 311 911 c 128,-1,30
 400 950 400 950 491 950 c 0,31,32
 651 950 651 950 739 847.5 c 128,-1,33
 827 745 827 745 827 580 c 0,34,35
 827 510 827 510 806 401 c 1,36,-1
 328 387 l 1,37,16
 340 199 340 199 578 199 c 0,17,18
EndSplineSet
Colour: ffffff
EndChar

StartChar: edieresis
Encoding: 235 235 185
Width: 845
VWidth: 0
Flags: HMW
LayerCount: 2
Fore
SplineSet
441 1180 m 0,0,1
 441 1219 441 1219 462 1243 c 0,2,3
 501 1287 501 1287 579 1287 c 0,4,5
 689 1287 689 1287 716 1218 c 0,6,7
 723 1201 723 1201 722 1182 c 0,8,9
 722 1073 722 1073 581.5 1073 c 128,-1,10
 441 1073 441 1073 441 1180 c 0,0,1
132 1180 m 0,11,12
 132 1219 132 1219 153 1243 c 0,13,14
 192 1287 192 1287 270 1287 c 0,15,16
 380 1287 380 1287 407 1218 c 0,17,18
 414 1201 414 1201 413 1182 c 0,19,20
 413 1073 413 1073 272.5 1073 c 128,-1,21
 132 1073 132 1073 132 1180 c 0,11,12
501 604 m 0,22,23
 500 742 500 742 414 743 c 0,24,25
 368 743 368 743 342.5 676 c 128,-1,26
 317 609 317 609 319 506 c 1,27,-1
 495 529 l 1,28,29
 501 546 501 546 501 604 c 0,22,23
578 199 m 0,31,32
 729 199 729 199 826 255 c 1,33,-1
 845 122 l 1,34,35
 802 65 802 65 724 29 c 0,36,37
 594 -31 594 -31 414 -31 c 128,-1,38
 234 -31 234 -31 117 88 c 128,-1,39
 0 207 0 207 0 430 c 0,40,41
 0 540 0 540 42.5 638.5 c 128,-1,42
 85 737 85 737 153.5 804.5 c 128,-1,43
 222 872 222 872 311 911 c 128,-1,44
 400 950 400 950 491 950 c 0,45,46
 651 950 651 950 739 847.5 c 128,-1,47
 827 745 827 745 827 580 c 0,48,49
 827 510 827 510 806 401 c 1,50,-1
 328 387 l 1,51,30
 340 199 340 199 578 199 c 0,31,32
EndSplineSet
Colour: ffffff
EndChar

StartChar: edotaccent
Encoding: 279 279 186
Width: 845
VWidth: 0
Flags: HMW
LayerCount: 2
Fore
SplineSet
218 1226 m 0,0,1
 218 1281 218 1281 250 1316 c 0,2,3
 310 1379 310 1379 426 1379 c 0,4,5
 592 1379 592 1379 634 1280 c 0,6,7
 644 1256 644 1256 644 1229 c 0,8,9
 644 1073 644 1073 431 1073 c 128,-1,10
 218 1073 218 1073 218 1226 c 0,0,1
501 604 m 0,11,12
 500 742 500 742 414 743 c 0,13,14
 368 743 368 743 342.5 676 c 128,-1,15
 317 609 317 609 319 506 c 1,16,-1
 495 529 l 1,17,18
 501 546 501 546 501 604 c 0,11,12
578 199 m 0,20,21
 729 199 729 199 826 255 c 1,22,-1
 845 122 l 1,23,24
 802 65 802 65 724 29 c 0,25,26
 594 -31 594 -31 414 -31 c 128,-1,27
 234 -31 234 -31 117 88 c 128,-1,28
 0 207 0 207 0 430 c 0,29,30
 0 540 0 540 42.5 638.5 c 128,-1,31
 85 737 85 737 153.5 804.5 c 128,-1,32
 222 872 222 872 311 911 c 128,-1,33
 400 950 400 950 491 950 c 0,34,35
 651 950 651 950 739 847.5 c 128,-1,36
 827 745 827 745 827 580 c 0,37,38
 827 510 827 510 806 401 c 1,39,-1
 328 387 l 1,40,19
 340 199 340 199 578 199 c 0,20,21
EndSplineSet
Colour: ffffff
EndChar

StartChar: egrave
Encoding: 232 232 187
Width: 845
VWidth: 0
Flags: HMW
LayerCount: 2
Fore
SplineSet
165 1412 m 1,0,-1
 383 1452 l 1,1,-1
 533 1104 l 1,2,-1
 374 1073 l 1,3,-1
 165 1412 l 1,0,-1
501 604 m 0,4,5
 500 742 500 742 414 743 c 0,6,7
 368 743 368 743 342.5 676 c 128,-1,8
 317 609 317 609 319 506 c 1,9,-1
 495 529 l 1,10,11
 501 546 501 546 501 604 c 0,4,5
578 199 m 0,13,14
 729 199 729 199 826 255 c 1,15,-1
 845 122 l 1,16,17
 802 65 802 65 724 29 c 0,18,19
 594 -31 594 -31 414 -31 c 128,-1,20
 234 -31 234 -31 117 88 c 128,-1,21
 0 207 0 207 0 430 c 0,22,23
 0 540 0 540 42.5 638.5 c 128,-1,24
 85 737 85 737 153.5 804.5 c 128,-1,25
 222 872 222 872 311 911 c 128,-1,26
 400 950 400 950 491 950 c 0,27,28
 651 950 651 950 739 847.5 c 128,-1,29
 827 745 827 745 827 580 c 0,30,31
 827 510 827 510 806 401 c 1,32,-1
 328 387 l 1,33,12
 340 199 340 199 578 199 c 0,13,14
EndSplineSet
Colour: ffffff
EndChar

StartChar: eight
Encoding: 56 56 188
Width: 941
VWidth: 0
Flags: HMW
LayerCount: 2
Fore
SplineSet
463 1063 m 0,0,1
 400 1062 400 1062 400 980 c 0,2,3
 400 938 400 938 441 874.5 c 128,-1,4
 482 811 482 811 550 769 c 1,5,6
 589 795 589 795 589 878 c 128,-1,7
 589 961 589 961 549.5 1012 c 128,-1,8
 510 1063 510 1063 463 1063 c 0,0,1
342 347 m 0,9,10
 342 247 342 247 386 181 c 128,-1,11
 430 115 430 115 518 115 c 0,12,13
 559 115 559 115 587.5 139.5 c 128,-1,14
 616 164 616 164 616 190 c 128,-1,15
 616 216 616 216 605 237 c 128,-1,16
 594 258 594 258 567.5 282.5 c 128,-1,17
 541 307 541 307 514.5 328 c 128,-1,18
 488 349 488 349 440.5 386 c 128,-1,19
 393 423 393 423 356 454 c 1,20,21
 338 425 338 425 340 390.5 c 128,-1,22
 342 356 342 356 342 347 c 0,9,10
0 270 m 0,23,24
 0 471 0 471 214 558 c 1,25,-1
 214 573 l 1,26,27
 45 708 45 708 45 852 c 0,28,29
 45 996 45 996 160 1098 c 0,30,31
 275 1199 275 1199 505 1199 c 0,32,33
 677 1199 677 1199 782.5 1117 c 128,-1,34
 888 1035 888 1035 888 925 c 0,35,36
 888 856 888 856 836 789.5 c 128,-1,37
 784 723 784 723 695 681 c 1,38,-1
 696 665 l 1,39,40
 831 577 831 577 890 498.5 c 128,-1,41
 949 420 949 420 949 331 c 0,42,43
 949 184 949 184 804.5 78.5 c 128,-1,44
 660 -27 660 -27 437 -27 c 0,45,46
 119 -27 119 -27 26 160 c 0,47,48
 0 212 0 212 0 270 c 0,23,24
EndSplineSet
Substitution2: "'sups' Superscript lookup 0 subtable" eight.superior
Colour: ffffff
EndChar

StartChar: eight.osf
Encoding: 65539 -1 189
Width: 959
VWidth: 0
Flags: HMW
LayerCount: 2
Fore
SplineSet
473 1063 m 0,0,1
 410 1062 410 1062 410 980 c 0,2,3
 410 938 410 938 451 874.5 c 128,-1,4
 492 811 492 811 560 769 c 1,5,6
 599 795 599 795 599 878 c 128,-1,7
 599 961 599 961 559.5 1012 c 128,-1,8
 520 1063 520 1063 473 1063 c 0,0,1
352 347 m 0,9,10
 352 247 352 247 396 181 c 128,-1,11
 440 115 440 115 528 115 c 0,12,13
 569 115 569 115 597.5 139.5 c 128,-1,14
 626 164 626 164 626 190 c 128,-1,15
 626 216 626 216 615 237 c 128,-1,16
 604 258 604 258 577.5 282.5 c 128,-1,17
 551 307 551 307 524.5 328 c 128,-1,18
 498 349 498 349 450.5 386 c 128,-1,19
 403 423 403 423 366 454 c 1,20,21
 348 425 348 425 350 390.5 c 128,-1,22
 352 356 352 356 352 347 c 0,9,10
0 270 m 0,23,24
 0 467 0 467 224 558 c 1,25,-1
 224 573 l 1,26,27
 55 708 55 708 55 852 c 0,28,29
 55 996 55 996 170 1098 c 0,30,31
 285 1199 285 1199 515 1199 c 0,32,33
 687 1199 687 1199 792.5 1117 c 128,-1,34
 898 1035 898 1035 898 925 c 0,35,36
 898 856 898 856 846 789.5 c 128,-1,37
 794 723 794 723 705 681 c 1,38,-1
 706 665 l 1,39,40
 841 577 841 577 900 498.5 c 128,-1,41
 959 420 959 420 959 331 c 0,42,43
 959 184 959 184 814.5 78.5 c 128,-1,44
 670 -27 670 -27 451 -27 c 128,-1,45
 232 -27 232 -27 116 60.5 c 128,-1,46
 0 148 0 148 0 270 c 0,23,24
EndSplineSet
Colour: ffffff
EndChar

StartChar: ellipsis
Encoding: 8230 8230 190
Width: 1321
VWidth: 0
Flags: HMW
LayerCount: 2
Fore
SplineSet
894 127 m 0,0,1
 894 188 894 188 944 234 c 0,2,3
 992 280 992 280 1106 280 c 128,-1,4
 1220 280 1220 280 1270.5 234.5 c 128,-1,5
 1321 189 1321 189 1321 130 c 0,6,7
 1322 -26 1322 -26 1108 -26 c 128,-1,8
 894 -26 894 -26 894 127 c 0,0,1
447 130 m 0,9,10
 447 190 447 190 496.5 236.5 c 128,-1,11
 546 283 546 283 660 283 c 128,-1,12
 774 283 774 283 824 237.5 c 128,-1,13
 874 192 874 192 874 133 c 0,14,15
 874 -23 874 -23 660 -23 c 128,-1,16
 446 -23 446 -23 447 130 c 0,9,10
0 127 m 0,17,18
 0 188 0 188 50 234 c 0,19,20
 98 280 98 280 212 280 c 128,-1,21
 326 280 326 280 376.5 234.5 c 128,-1,22
 427 189 427 189 427 130 c 0,23,24
 428 -26 428 -26 214 -26 c 128,-1,25
 0 -26 0 -26 0 127 c 0,17,18
EndSplineSet
Colour: ffffff
EndChar

StartChar: emacron
Encoding: 275 275 191
Width: 845
VWidth: 0
Flags: HMW
LayerCount: 2
Fore
SplineSet
204 1073 m 1,0,-1
 225 1268 l 1,1,-1
 678 1268 l 1,2,-1
 656 1073 l 1,3,-1
 204 1073 l 1,0,-1
501 604 m 0,4,5
 500 742 500 742 414 743 c 0,6,7
 368 743 368 743 342.5 676 c 128,-1,8
 317 609 317 609 319 506 c 1,9,-1
 495 529 l 1,10,11
 501 546 501 546 501 604 c 0,4,5
578 199 m 0,13,14
 729 199 729 199 826 255 c 1,15,-1
 845 122 l 1,16,17
 802 65 802 65 724 29 c 0,18,19
 594 -31 594 -31 414 -31 c 128,-1,20
 234 -31 234 -31 117 88 c 128,-1,21
 0 207 0 207 0 430 c 0,22,23
 0 540 0 540 42.5 638.5 c 128,-1,24
 85 737 85 737 153.5 804.5 c 128,-1,25
 222 872 222 872 311 911 c 128,-1,26
 400 950 400 950 491 950 c 0,27,28
 651 950 651 950 739 847.5 c 128,-1,29
 827 745 827 745 827 580 c 0,30,31
 827 510 827 510 806 401 c 1,32,-1
 328 387 l 1,33,12
 340 199 340 199 578 199 c 0,13,14
EndSplineSet
Colour: ffffff
EndChar

StartChar: emdash
Encoding: 8212 8212 192
Width: 1391
VWidth: 0
Flags: HMW
LayerCount: 2
Fore
SplineSet
0 367 m 1,0,-1
 21 554 l 1,1,-1
 1391 562 l 1,2,-1
 1365 372 l 1,3,-1
 0 367 l 1,0,-1
EndSplineSet
Colour: ffffff
EndChar

StartChar: emptyset
Encoding: 8709 8709 193
Width: 1042
VWidth: 0
Flags: HMW
LayerCount: 2
Fore
SplineSet
62 441.5 m 128,-1,1
 62 567 62 567 127 679 c 128,-1,2
 192 791 192 791 298 858.5 c 128,-1,3
 404 926 404 926 519 926 c 0,4,5
 681 926 681 926 797 834 c 1,6,-1
 888 941 l 1,7,-1
 1042 729 l 1,8,-1
 932 652 l 1,9,10
 971 555 971 555 971 450.5 c 128,-1,11
 971 346 971 346 939 259 c 128,-1,12
 907 172 907 172 849.5 106.5 c 128,-1,13
 792 41 792 41 706.5 2 c 128,-1,14
 621 -37 621 -37 520 -37 c 0,15,16
 368 -37 368 -37 251 46 c 1,17,-1
 155 -70 l 1,18,-1
 0 142 l 1,19,-1
 112 212 l 1,20,0
 62 316 62 316 62 441.5 c 128,-1,1
718 443 m 0,21,22
 718 488 718 488 712 526 c 1,23,-1
 380 229 l 1,24,25
 433 175 433 175 523 175 c 128,-1,26
 613 175 613 175 665.5 234.5 c 128,-1,27
 718 294 718 294 718 443 c 0,21,22
522 710 m 128,-1,29
 424 710 424 710 369 644.5 c 128,-1,30
 314 579 314 579 314 442 c 0,31,32
 314 375 314 375 329 324 c 1,33,-1
 673 632 l 1,34,28
 620 710 620 710 522 710 c 128,-1,29
EndSplineSet
Colour: ffffff
EndChar

StartChar: endash
Encoding: 8211 8211 194
Width: 758
VWidth: 0
Flags: HMW
LayerCount: 2
Fore
SplineSet
0 367 m 1,0,-1
 23 554 l 1,1,-1
 758 562 l 1,2,-1
 729 372 l 1,3,-1
 0 367 l 1,0,-1
EndSplineSet
Colour: ffffff
EndChar

StartChar: eng
Encoding: 331 331 195
Width: 1104
VWidth: 0
Flags: HMW
LayerCount: 2
Fore
SplineSet
766 929 m 0,0,1
 882 929 882 929 947 859.5 c 128,-1,2
 1012 790 1012 790 1012 641 c 2,3,-1
 1012 155 l 2,4,5
 1012 -224 1012 -224 571 -371 c 1,6,-1
 529 -382 l 1,7,-1
 446 -213 l 1,8,9
 552 -137 552 -137 582 -100 c 0,10,11
 649 -17 649 -17 676.5 63 c 128,-1,12
 704 143 704 143 704 245 c 1,13,-1
 701 429 l 2,14,15
 700 523 700 523 677 562.5 c 128,-1,16
 654 602 654 602 594 602 c 128,-1,17
 534 602 534 602 477 552 c 1,18,-1
 477 229 l 1,19,-1
 600 166 l 1,20,-1
 572 0 l 1,21,-1
 0 0 l 1,22,-1
 17 157 l 1,23,-1
 159 229 l 1,24,-1
 159 640 l 1,25,-1
 17 721 l 1,26,-1
 44 889 l 1,27,-1
 447 918 l 1,28,-1
 485 879 l 1,29,-1
 462 777 l 1,30,-1
 477 771 l 1,31,32
 553 850 553 850 620 889.5 c 128,-1,33
 687 929 687 929 766 929 c 0,0,1
EndSplineSet
Colour: ffffff
EndChar

StartChar: eogonek
Encoding: 281 281 196
Width: 845
VWidth: 0
Flags: HMW
LayerCount: 2
Fore
SplineSet
501 604 m 0,0,1
 500 742 500 742 414 743 c 0,2,3
 368 743 368 743 342.5 676 c 128,-1,4
 317 609 317 609 319 506 c 1,5,-1
 495 529 l 1,6,7
 501 546 501 546 501 604 c 0,0,1
578 199 m 0,9,10
 729 199 729 199 826 255 c 1,11,-1
 845 122 l 1,12,13
 765 16 765 16 576 -18 c 1,14,15
 519 -186 519 -186 650 -298 c 1,16,-1
 625 -393 l 1,17,18
 444 -382 444 -382 356 -302 c 0,19,20
 309 -260 309 -260 309 -204.5 c 128,-1,21
 309 -149 309 -149 333 -110 c 128,-1,22
 357 -71 357 -71 412 -31 c 1,23,24
 227 -26 227 -26 113.5 91 c 128,-1,25
 0 208 0 208 0 430 c 0,26,27
 0 540 0 540 42.5 638.5 c 128,-1,28
 85 737 85 737 153.5 804.5 c 128,-1,29
 222 872 222 872 311 911 c 128,-1,30
 400 950 400 950 491 950 c 0,31,32
 651 950 651 950 739 847.5 c 128,-1,33
 827 745 827 745 827 580 c 0,34,35
 827 510 827 510 806 401 c 1,36,-1
 328 387 l 1,37,8
 340 199 340 199 578 199 c 0,9,10
EndSplineSet
Colour: ffffff
EndChar

StartChar: equal
Encoding: 61 61 197
Width: 636
VWidth: 0
Flags: HMW
LayerCount: 2
Fore
SplineSet
3 276 m 1,0,-1
 14 464 l 1,1,-1
 639 464 l 1,2,-1
 626 276 l 1,3,-1
 3 276 l 1,0,-1
0 557 m 1,4,-1
 11 745 l 1,5,-1
 636 745 l 1,6,-1
 623 557 l 1,7,-1
 0 557 l 1,4,-1
EndSplineSet
Colour: ffffff
EndChar

StartChar: eth
Encoding: 240 240 198
Width: 942
VWidth: 0
Flags: HMW
LayerCount: 2
Back
SplineSet
0 451 m 0,0,1
 0 556 0 556 50 651.5 c 0
 100 747 100 747 177 810 c 0
 254 873 254 873 343.5 910 c 0
 433 947 433 947 514 947 c 1,2,3
 459.279 947 459.279 947 452.864 982.707 c 0
 448.362 1007.76 448.362 1007.76 466.722 1023.45 c 0
 487.347 1041.07 487.347 1041.07 502.386 1011.72 c 0
 503.755 1009.05 503.755 1009.05 505 1006 c 1,4,-1
 510 1012 l 1,5,6
 508 999 508 999 503 993 c 0
 498 987 498 987 493 992.5 c 0
 488 998 488 998 487 1015 c 1,7,-1
 336 997 l 1,8,-1
 345 1119 l 1,9,-1
 441 1136 l 1,10,11
 419 1220 419 1220 326 1302 c 1,12,-1
 542 1302 l 1,13,14
 538.043 1306.22 538.043 1306.22 540.79 1305.8 c 0
 556.414 1303.43 556.414 1303.43 614.456 1251.41 c 0
 641.357 1227.31 641.357 1227.31 668 1199 c 1,15,-1
 795 1219 l 1,16,-1
 784 1090 l 1,17,-1
 754 1084 l 1,18,19
 944 812 944 812 944 464 c 0,20,21
 944 354 944 354 900.5 259 c 0
 857 164 857 164 787.5 103 c 0
 718 42 718 42 635 7.5 c 0
 552 -27 552 -27 471 -27 c 0,22,23
 370 -27 370 -27 289.5 -0.5 c 0
 209 26 209 26 155.5 71 c 0
 102 116 102 116 66.5 178 c 0
 31 240 31 240 15.5 307.5 c 0
 0 375 0 375 0 451 c 0,0,1
334 497 m 1,24,25
 338 421 338 421 347 363 c 0
 356 305 356 305 373.5 255.5 c 0
 391 206 391 206 421 179.5 c 0
 451 153 451 153 492 153 c 0,26,27
 516 153 516 153 533.5 155.5 c 0
 551 158 551 158 565 160.5 c 0
 579 163 579 163 589 171.5 c 0
 599 180 599 180 606 186 c 0
 613 192 613 192 617 208.5 c 0
 621 225 621 225 623.5 235 c 0
 626 245 626 245 626.5 270.5 c 0
 627 296 627 296 627 312 c 0
 627 328 627 328 626.5 364 c 0
 626 400 626 400 626 423 c 0,28,29
 626 465 626 465 611.5 544.5 c 0
 597 624 597 624 566.5 701 c 0
 536 778 536 778 501 783 c 1,30,-1
 488 783 l 1,31,32
 428 786 428 786 396.5 765 c 0
 365 744 365 744 349.5 681 c 0
 334 618 334 618 334 497 c 1,24,25
EndSplineSet
Fore
SplineSet
616 445 m 128,-1,1
 616 538 616 538 589 614.5 c 128,-1,2
 562 691 562 691 522 734.5 c 128,-1,3
 482 778 482 778 438.5 778 c 128,-1,4
 395 778 395 778 364.5 709 c 128,-1,5
 334 640 334 640 334 497 c 1,6,7
 342 356 342 356 394 254.5 c 128,-1,8
 446 153 446 153 505 153 c 128,-1,9
 564 153 564 153 579 179 c 0,10,11
 606 224 606 224 611 288 c 128,-1,0
 616 352 616 352 616 445 c 128,-1,1
0 455 m 0,12,13
 0 535 0 535 39.5 626 c 128,-1,14
 79 717 79 717 139.5 786.5 c 128,-1,15
 200 856 200 856 275 901 c 128,-1,16
 350 946 350 946 421.5 946 c 128,-1,17
 493 946 493 946 544 887 c 1,18,-1
 548 893 l 1,19,20
 521 977 521 977 492 1046 c 1,21,-1
 290 1006 l 1,22,-1
 298 1132 l 1,23,-1
 436 1163 l 1,24,25
 385 1259 385 1259 336 1302 c 1,26,-1
 592 1302 l 1,27,28
 638 1266 638 1266 682 1219 c 1,29,-1
 846 1256 l 1,30,-1
 834 1114 l 1,31,-1
 772 1102 l 1,32,33
 854 977 854 977 898 827 c 128,-1,34
 942 677 942 677 942 558 c 0,35,36
 942 440 942 440 924 358 c 0,37,38
 887 187 887 187 773.5 80 c 128,-1,39
 660 -27 660 -27 471 -27 c 0,40,41
 184 -27 184 -27 66 178 c 0,42,43
 0 294 0 294 0 455 c 0,12,13
EndSplineSet
Colour: ffffff
EndChar

StartChar: exclam
Encoding: 33 33 199
Width: 427
VWidth: 0
Flags: HMW
LayerCount: 2
Back
SplineSet
10 1094 m 5,0,-1
 30 1244 l 1,1,-1
 757 1244 l 1,2,-1
 741 1084 l 1,3,-1
 562 1017 l 1,4,-1
 562 223 l 1,5,-1
 742 160 l 1,6,-1
 729 0 l 1,7,-1
 12 0 l 1,8,-1
 22 142 l 1,9,-1
 198 221 l 1,10,-1
 198 1020 l 1,11,-1
 10 1094 l 5,0,-1
EndSplineSet
Fore
SplineSet
19 1194 m 0,0,1
 19 1306 19 1306 225 1306 c 0,2,3
 307 1306 307 1306 343 1286.5 c 128,-1,4
 379 1267 379 1267 379 1215 c 0,5,6
 379 890 379 890 300 362 c 1,7,-1
 133 391 l 1,8,9
 97 579 97 579 58 850.5 c 128,-1,10
 19 1122 19 1122 19 1194 c 0,0,1
0 127 m 0,11,12
 0 187 0 187 49.5 233.5 c 128,-1,13
 99 280 99 280 212.5 280 c 128,-1,14
 326 280 326 280 376.5 234.5 c 128,-1,15
 427 189 427 189 427 130 c 0,16,17
 427 -26 427 -26 213.5 -26 c 128,-1,18
 0 -26 0 -26 0 127 c 0,11,12
EndSplineSet
Colour: ffffff
EndChar

StartChar: exclamdown
Encoding: 161 161 200
Width: 425
VWidth: 0
Flags: HMW
LayerCount: 2
Fore
SplineSet
408 -294 m 0,0,1
 408 -406 408 -406 202 -406 c 0,2,3
 120 -406 120 -406 84 -386.5 c 128,-1,4
 48 -367 48 -367 48 -315 c 0,5,6
 48 10 48 10 127 538 c 1,7,-1
 294 509 l 1,8,9
 330 321 330 321 369 49.5 c 128,-1,10
 408 -222 408 -222 408 -294 c 0,0,1
427 773 m 0,11,12
 427 713 427 713 377.5 666.5 c 128,-1,13
 328 620 328 620 214.5 620 c 128,-1,14
 101 620 101 620 50.5 665.5 c 128,-1,15
 0 711 0 711 0 770 c 0,16,17
 0 926 0 926 213.5 926 c 128,-1,18
 427 926 427 926 427 773 c 0,11,12
EndSplineSet
Colour: ffffff
EndChar

StartChar: f
Encoding: 102 102 201
Width: 895
VWidth: 0
Flags: HMW
LayerCount: 2
Back
SplineSet
790.311 602.595 m 4,0,1
 790.311 669.853 790.311 669.853 759.879 728.676 c 0
 729.448 787.5 729.448 787.5 672.805 832.014 c 0
 616.162 876.528 616.162 876.528 528.254 901.926 c 0
 440.347 927.325 440.347 927.325 332.311 926.595 c 1,2,-1
 332.311 1021.59 l 2,3,4
 332.311 1085.99 332.311 1085.99 368.753 1123.5 c 0
 405.194 1161 405.194 1161 447 1161 c 0,5,6
 489.137 1161 489.137 1161 511.406 1121.63 c 0
 533.676 1082.27 533.676 1082.27 551.311 982.595 c 1,7,8
 598.311 975.202 598.311 975.202 643.978 987.121 c 0
 689.644 999.041 689.644 999.041 722.978 1035.73 c 0
 756.311 1072.42 756.311 1072.42 756.311 1127.59 c 0,9,10
 756.311 1174.68 756.311 1174.68 706.796 1219.95 c 0
 657.281 1265.23 657.281 1265.23 586.217 1295.43 c 0
 515.152 1325.63 515.152 1325.63 439.702 1344.11 c 0
 364.253 1362.59 364.253 1362.59 309.311 1362.59 c 0,11,12
 225.232 1362.59 225.232 1362.59 169.907 1344.98 c 0
 114.582 1327.38 114.582 1327.38 82.3862 1288.04 c 0
 50.1905 1248.7 50.1905 1248.7 37.2505 1193.55 c 0
 24.3105 1138.39 24.3105 1138.39 24.3105 1055.59 c 2,13,-1
 24.3105 788.595 l 2,14,15
 24.3105 749.181 24.3105 749.181 18.5751 724.941 c 0
 12.8397 700.702 12.8397 700.702 -4.50221 682.519 c 0
 -21.8441 664.336 -21.8441 664.336 -45.7464 653.043 c 0
 -69.6487 641.751 -69.6487 641.751 -113.689 627.595 c 2,16,-1
 -141.689 618.595 l 1,17,-1
 -116.689 448.595 l 1,18,19
 -53.1712 418.809 -53.1712 418.809 -0.97308 404.764 c 0
 51.2251 390.718 51.2251 390.718 119.685 390.718 c 0,20,21
 271.358 390.718 271.358 390.718 321.311 520.595 c 2,22,-1
 326.311 533.595 l 1,23,-1
 339.311 539.595 l 1,24,25
 361.612 479.496 361.612 479.496 435.729 435.728 c 0
 509.846 391.96 509.846 391.96 589.382 391.96 c 0,26,27
 674.143 391.96 674.143 391.96 732.227 445.94 c 0
 790.311 499.919 790.311 499.919 790.311 602.595 c 4,0,1
332.311 648.595 m 5,28,-1
 332.311 812.595 l 1,29,30
 416.727 803.064 416.727 803.064 455.622 768.19 c 0
 494.518 733.316 494.518 733.316 494.518 694.068 c 0,31,32
 494.518 662.676 494.518 662.676 472.79 641.396 c 0
 451.061 620.117 451.061 620.117 413.979 620.117 c 0,33,34
 371.741 620.117 371.741 620.117 332.311 648.595 c 5,28,-1
-186 0 m 1,35,-1
 -171 176 l 1,36,-1
 -19 230 l 1,37,-1
 -19 966 l 1,38,-1
 -186 1068 l 1,39,-1
 -152 1241 l 1,40,-1
 239 1266 l 1,41,-1
 296 1209 l 1,42,-1
 296 230 l 1,43,-1
 452 174 l 1,44,-1
 439 0 l 1,45,-1
 -186 0 l 1,35,-1
EndSplineSet
Fore
SplineSet
167 700 m 1,0,-1
 17 700 l 1,1,-1
 27 849 l 1,2,-1
 165 873 l 1,3,4
 177 1064 177 1064 300 1175 c 128,-1,5
 423 1286 423 1286 612 1286 c 0,6,7
 741 1286 741 1286 780.5 1270 c 128,-1,8
 820 1254 820 1254 844 1238 c 0,9,10
 894 1206 894 1206 894.5 1138.5 c 128,-1,11
 895 1071 895 1071 835 1021 c 128,-1,12
 775 971 775 971 708 965 c 1,13,14
 703 975 703 975 692 998 c 128,-1,15
 681 1021 681 1021 675 1033 c 0,16,17
 668 1045 668 1045 658 1064 c 0,18,19
 619 1134 619 1134 557 1134 c 0,20,21
 516 1134 516 1134 489.5 1097.5 c 128,-1,22
 463 1061 463 1061 463 955 c 2,23,-1
 463 866 l 1,24,-1
 726 866 l 1,25,-1
 712 700 l 1,26,-1
 463 700 l 1,27,-1
 463 240 l 1,28,-1
 708 172 l 1,29,-1
 700 0 l 1,30,-1
 0 0 l 1,31,-1
 12 158 l 1,32,-1
 167 230 l 1,33,-1
 167 700 l 1,0,-1
EndSplineSet
Colour: ffffff
EndChar

StartChar: f.alt2
Encoding: 65540 -1 202
Width: 805
VWidth: 0
Flags: HMW
LayerCount: 2
Fore
SplineSet
167 700 m 1,0,-1
 17 700 l 1,1,-1
 27 849 l 1,2,-1
 165 873 l 1,3,4
 177 1068 177 1068 282.5 1177 c 128,-1,5
 388 1286 388 1286 572 1286 c 0,6,7
 706 1286 706 1286 768 1226 c 0,8,9
 806 1190 806 1190 805.5 1130.5 c 128,-1,10
 805 1071 805 1071 745 1021 c 128,-1,11
 685 971 685 971 618 965 c 1,12,13
 589 1070 589 1070 571 1102 c 128,-1,14
 553 1134 553 1134 517 1134 c 128,-1,15
 481 1134 481 1134 472 1103 c 128,-1,16
 463 1072 463 1072 463 955 c 2,17,-1
 463 866 l 1,18,-1
 726 866 l 1,19,-1
 712 700 l 1,20,-1
 463 700 l 1,21,-1
 463 240 l 1,22,-1
 708 172 l 1,23,-1
 700 0 l 1,24,-1
 0 0 l 1,25,-1
 12 158 l 1,26,-1
 167 230 l 1,27,-1
 167 700 l 1,0,-1
EndSplineSet
Colour: ffffff
EndChar

StartChar: five
Encoding: 53 53 203
Width: 806
VWidth: 0
Flags: HMW
LayerCount: 2
Fore
SplineSet
359.5 101 m 128,-1,1
 424 101 424 101 464 138 c 128,-1,2
 504 175 504 175 504 230 c 0,3,4
 504 284 504 284 488 322 c 0,5,6
 455 402 455 402 354.5 460.5 c 128,-1,7
 254 519 254 519 93 519 c 1,8,-1
 216 1166 l 1,9,-1
 765 1198 l 1,10,-1
 722 888 l 1,11,-1
 324 875 l 1,12,-1
 312 770 l 1,13,14
 690 767 690 767 798 525 c 0,15,16
 828 457 828 457 828.5 369 c 128,-1,17
 829 281 829 281 781 197.5 c 128,-1,18
 733 114 733 114 655 60 c 0,19,20
 491 -53 491 -53 283 -52 c 0,21,22
 207 -52 207 -52 125 -36.5 c 128,-1,23
 43 -21 43 -21 0 7 c 1,24,-1
 77 428 l 1,25,-1
 227 392 l 1,26,-1
 269 117 l 1,27,0
 295 101 295 101 359.5 101 c 128,-1,1
EndSplineSet
Substitution2: "'sups' Superscript lookup 0 subtable" five.superior
Colour: ffffff
EndChar

StartChar: five.osf
Encoding: 65541 -1 204
Width: 838
VWidth: 0
Flags: HMW
LayerCount: 2
Fore
SplineSet
-30 -81.5 m 128,-1,1
 -30 7 -30 7 32.5 61.5 c 128,-1,2
 95 116 95 116 203 135 c 1,3,4
 246 -171 246 -171 389 -171 c 0,5,6
 442 -171 442 -171 482 -138 c 0,7,8
 557 -75 557 -75 556.5 47 c 128,-1,9
 556 169 556 169 445 262.5 c 128,-1,10
 334 356 334 356 146 377 c 1,11,-1
 302 980 l 1,12,-1
 814 1017 l 1,13,-1
 773 760 l 1,14,-1
 366 757 l 1,15,-1
 352 653 l 1,16,17
 595 622 595 622 717 482.5 c 128,-1,18
 839 343 839 343 839 168 c 0,19,20
 839 -71 839 -71 649 -210 c 0,21,22
 516 -308 516 -308 310 -308 c 0,23,24
 166 -308 166 -308 68 -239 c 128,-1,0
 -30 -170 -30 -170 -30 -81.5 c 128,-1,1
EndSplineSet
Colour: ffffff
EndChar

